<svg width="404" height="479" viewBox="0 0 404 479" fill="white" xmlns="http://www.w3.org/2000/svg">
<path d="M125.37 120.467C126.973 117.324 128.826 114.323 130.909 111.492C132.484 118.903 143.614 124.293 149.126 122.623C149.809 126.369 149.73 130.303 150.045 134.049C150.056 134.138 150.095 134.221 150.157 134.284C150.219 134.348 150.3 134.388 150.386 134.4C150.493 134.409 150.599 134.379 150.686 134.315C150.773 134.25 150.834 134.156 150.859 134.049C150.859 133.241 151.41 121.356 149.809 121.194C155.426 108.501 169.47 119.011 169.26 112.867C169.542 113.189 169.892 113.441 170.282 113.605C170.673 113.769 171.094 113.841 171.515 113.815C171.936 113.79 172.346 113.667 172.715 113.456C173.083 113.245 173.401 112.951 173.644 112.597C177.555 108.312 178.211 101.655 192.019 104.728C190.811 105.455 193.148 107.234 193.646 107.773L198.896 114.187C198.96 114.237 199.039 114.265 199.119 114.265C199.2 114.265 199.278 114.237 199.343 114.187C199.432 114.136 199.498 114.051 199.528 113.95C199.557 113.85 199.547 113.741 199.5 113.648C197.826 110.54 195.732 107.691 193.279 105.186C199.369 102.491 200.655 90.579 199.526 84.5152C202.965 84.1379 207.69 84.2996 211.339 84.2996C211.838 84.2996 211.943 83.4911 211.339 83.4911C209.633 83.3564 198.739 82.0358 197.925 83.7606C192.491 80.2571 187.766 74.6785 181.256 73.2501C179.708 70.3126 169.05 57.8078 165.139 60.7723C163.223 62.2545 166.031 64.9226 167.081 66.0006C154.586 61.3113 154.219 67.5098 161.201 70.5282C163.961 71.6344 166.601 73.0345 169.076 74.7054C166.595 75.7036 164.509 77.5234 163.149 79.8764C161.789 82.2294 161.233 84.9811 161.569 87.6953C160.44 84.2996 152.198 82.7365 146.685 85.0003C146.842 80.3328 147.342 75.6842 148.181 71.0941C148.575 66.8091 143.824 67.7523 141.435 74.4898C140.726 71.175 138.18 70.07 137.104 73.0615C135.437 79.5442 135.437 86.36 137.104 92.8428C133.907 98.0045 131.905 103.849 131.25 109.929C129.806 109.363 125.291 119.038 124.871 120.116C124.849 120.157 124.835 120.202 124.829 120.248C124.823 120.295 124.827 120.342 124.839 120.387C124.851 120.432 124.872 120.474 124.9 120.511C124.928 120.547 124.963 120.578 125.003 120.601C125.042 120.624 125.086 120.639 125.131 120.645C125.176 120.65 125.222 120.647 125.266 120.634C125.31 120.622 125.351 120.601 125.387 120.572C125.423 120.543 125.453 120.507 125.475 120.467H125.37ZM165.743 61.985C166.11 61.0148 168.21 61.985 168.788 62.1737C172.939 64.7954 176.514 68.2735 179.288 72.3877C174.536 69.0729 170.861 68.5608 167.37 64.6261C166.819 64.0871 165.375 62.8205 165.743 61.985ZM164.325 70.4473C162.435 69.558 158.76 68.6147 158.156 66.1892C157.71 64.5453 165.533 66.6474 166.215 66.8899C170.288 68.4505 174.166 70.5042 177.765 73.0076C175.253 73.0614 172.765 73.516 170.389 74.3551C168.579 72.7277 166.533 71.4001 164.325 70.4204V70.4473ZM162.75 85.2698C163.354 78.155 168.866 75.2444 175.508 74.3281C187.215 72.765 194.04 84.8117 198.135 85.4854C198.686 91.4414 198.503 99.715 193.568 103.811C182.779 100.524 177.66 104 173.775 110.603C169.89 117.206 167.554 108.42 172.856 102.518C175.049 100.617 176.89 98.3257 178.29 95.7534C180.128 91.1988 178.553 82.6557 173.04 81.3621C168.473 80.2571 166.373 83.4372 164.745 87.1024C163.931 89.4471 162.409 89.1776 162.75 85.2698ZM161.831 88.1804C162.461 90.0939 164.614 89.9591 165.506 88.1804C166.635 85.9975 166.95 83.7876 169.601 82.9252C176.768 80.5805 179.708 91.2258 176.663 96.4002C174.458 100.2 168.236 103.407 168.551 110.791C165.375 105.725 156.266 107.153 152.486 105.105C146.029 101.494 146.659 88.2343 158.051 90.2017C159.784 90.4442 161.936 90.5251 161.805 88.1804H161.831ZM142.485 75.6756C144.191 70.4204 147.735 67.4289 147.131 71.9835C146.974 73.5735 145.215 85.0542 145.766 85.6741C143.722 86.7796 141.847 88.187 140.201 89.8513C140.475 85.0587 141.231 80.3081 142.459 75.6756H142.485ZM137.419 79.8529C137.419 79.1522 138.469 69.6658 140.044 73.8969C140.211 75.0805 140.457 76.2511 140.779 77.4004C140.228 79.5834 138.626 89.5279 139.23 90.8754L137.944 92.196C137.454 88.1021 137.269 83.9756 137.393 79.8529H137.419ZM138.364 93.3279C142.406 88.5847 147.184 84.5691 153.641 84.9734C157.92 85.2429 159.863 86.6712 160.493 87.6684C161.359 89.3393 159.233 89.2315 158.261 88.9889C145.766 85.9166 143.745 101.763 152.04 105.887C155.138 107.423 159.679 107.531 162.986 108.393C166.294 109.255 169.444 112.166 167.869 113.486C166.294 114.807 163.879 113.19 159.731 113.19C154.954 113.406 149.231 116.559 148.575 121.275C144.428 122.623 132.641 118.014 131.959 111.142C133.088 105.779 134.873 97.5051 138.338 93.4357L138.364 93.3279ZM63.2625 381.316C64.3913 378.243 63.63 373.608 60.1913 372.449C61.6613 362.531 43.5225 363.987 43.9163 368.865C38.696 369.073 33.5594 370.279 28.77 372.422C28.8642 372.236 28.884 372.019 28.8252 371.818C28.7664 371.616 28.6337 371.447 28.455 371.344H28.0613L13.545 372.961C13.4383 372.975 13.3407 373.03 13.2723 373.115C13.2039 373.2 13.17 373.309 13.1775 373.419C13.184 373.476 13.2014 373.531 13.2288 373.581C13.2561 373.631 13.2929 373.674 13.3368 373.709C13.3808 373.745 13.4312 373.77 13.4849 373.785C13.5387 373.8 13.5948 373.804 13.65 373.797L27.6413 372.853C28.035 382.609 32.8913 394.225 38.1413 402.31C34.2461 406.338 29.9629 409.949 25.3575 413.09C24.99 413.359 25.3575 414.033 25.7513 413.871C27.7463 412.901 41.0288 403.927 39.795 402.067C48.51 401.178 52.1063 401.339 58.5638 410.637C61.9763 415.623 67.095 409.667 59.7975 398.59C58.2225 396.192 59.1675 396.461 58.8788 395.896C61.3453 394.309 63.4494 392.195 65.0475 389.697C65.7658 388.309 65.9806 386.705 65.6536 385.17C65.3267 383.635 64.4793 382.269 63.2625 381.316ZM63.4988 389.589C61.9238 392.042 57.0675 394.979 57.4875 395.896C56.28 397.998 61.2413 401.905 62.1863 407.349C62.37 408.292 62.4488 411.284 60.9 411.149C58.0125 410.907 54.81 396.623 39.06 401.016C33.842 392.699 30.373 383.354 28.875 373.581C41.58 370.185 37.9838 370.077 51.6338 369.646C51.7429 369.62 51.8385 369.553 51.9017 369.458C51.9649 369.364 51.9911 369.248 51.975 369.134C51.9641 369.045 51.9246 368.962 51.8628 368.899C51.801 368.836 51.7205 368.795 51.6338 368.784C49.4414 368.595 47.2374 368.595 45.045 368.784C50.4788 363.609 63.0788 366.439 57.1725 376.06C56.385 377.381 58.8525 377.246 59.9813 373.365C65.6513 377.623 60.7688 383.283 60.1125 384.738C59.7188 385.574 61.2413 385.681 62.895 382.205C63.7891 383.187 64.335 384.45 64.4445 385.79C64.554 387.129 64.2209 388.468 63.4988 389.589ZM380.993 308.416C384.802 303.746 387.155 298.008 387.745 291.947C388.335 285.886 387.135 279.783 384.3 274.432C378.551 263.652 367.395 255.324 370.178 241.499C371.123 236.81 372.986 232.363 373.879 227.674C376.005 216.193 373.879 203.419 366.188 194.39C359.284 186.494 347.97 183.88 345.896 173.962C344.61 167.791 346.815 161.592 344.741 153.561C343.211 147.465 340.037 141.936 335.582 137.61C331.128 133.284 325.575 130.337 319.562 129.106C313.548 127.876 307.319 128.413 301.59 130.656C295.861 132.899 290.864 136.756 287.175 141.784C311.456 149.384 318.071 177.304 308.175 200.858C303.293 212.555 292.766 223.981 280.061 233.576L280.219 231.878C291.979 222.661 302.978 207.353 306.101 199.915C317.258 172.965 305.944 143.59 275.914 140.625C257.696 138.766 235.489 144.344 224.018 160.056C220.605 164.745 215.513 181.616 222.285 183.53C221.078 190.536 218.531 206.545 218.006 212.986C216.878 227.566 221.813 242.793 237.563 244.949C237.598 248.109 237.44 251.268 237.09 254.408C196.114 263.302 169.89 291.788 158.839 308.146C153.48 298.942 147.33 290.247 140.464 282.167C141.593 280.415 141.698 273.812 141.803 271.387C144.428 273.111 159.259 279.31 162.645 279.148C163.163 279.178 163.672 278.996 164.06 278.643C164.448 278.29 164.685 277.793 164.719 277.262C164.746 277.038 164.746 276.812 164.719 276.588C163.537 274.087 161.724 271.956 159.469 270.416C159.864 269.571 159.965 268.613 159.755 267.7C159.545 266.788 159.036 265.977 158.314 265.404C154.301 262.468 150.129 259.769 145.819 257.319C145.425 257.076 144.953 257.723 145.346 257.992L156.345 265.916C157.658 266.805 158.708 267.775 158.183 269.5C153.386 265.559 148.335 261.957 143.063 258.72C138.705 256.025 138.075 256.941 137.261 253.034C136.763 250.581 136.684 245.164 132.72 246.943C131.88 245.488 123.716 245.38 123.165 248.506C115.926 245.155 108.46 242.344 100.826 240.098C100.275 240.098 99.9338 240.879 100.301 241.256C105.866 247.239 113.033 251.47 119.648 256.052C119.08 256.238 118.579 256.594 118.21 257.074C117.84 257.554 117.619 258.137 117.574 258.747C112.665 256.295 104.003 263.221 111.72 279.795C112.801 282.145 114.14 284.36 115.71 286.398C109.016 312.162 110.46 342.022 114.713 368.191C118.493 391.314 125.213 418.426 147.341 430.014C156.844 434.973 170.363 436.267 178.29 427.589L183.068 437.991C179.996 445.699 176.505 470.331 176.295 478.282C176.295 478.821 177.004 478.821 177.083 478.282C178.546 464.684 180.994 451.216 184.406 437.991C224.543 448.044 283.421 449.472 330.855 432.979C336.979 435.35 343.346 436.996 349.834 437.884C352.879 441.818 360.623 461.438 361.673 466.531C361.709 466.645 361.787 466.739 361.89 466.795C361.992 466.85 362.112 466.862 362.224 466.828C362.316 466.794 362.396 466.732 362.452 466.65C362.509 466.568 362.539 466.47 362.539 466.37C360.419 456.474 356.88 446.956 352.039 438.126C386.164 441.495 410.183 418.264 410.813 383.822C411.311 356.872 397.031 329.086 381.019 308.524L380.993 308.416ZM155.295 274.89C155.925 273.569 156.581 272.195 157.211 270.982C157.736 270.282 159.495 270.74 157.211 274.647C155.715 276.992 155.033 275.537 155.295 274.89ZM113.846 250.635L106.365 245.245L107.284 243.763L115.631 246.943C114.976 248.142 114.38 249.374 113.846 250.635ZM289.065 251.632C281.888 265.301 270.927 276.48 257.565 283.757C254.04 278.194 250.849 272.416 248.01 266.455C255.386 265.781 278.145 257.292 279.878 250.958C282.949 251.018 286.015 251.233 289.065 251.605V251.632ZM220.973 227.916C217.114 215.519 221.655 197.031 223.256 183.718C230.528 184.877 245.018 175.903 248.929 168.006C252.866 176.9 263.419 183.314 272.764 184.176C271.268 191.022 273.473 203.985 280.639 201.37C282.555 200.67 284.839 198.675 286.86 200.077C287.666 200.864 288.245 201.864 288.532 202.968C288.819 204.071 288.804 205.234 288.488 206.329C286.466 216.328 277.62 214.684 277.804 245.973L278.014 251.201C268.737 258.373 257.946 263.202 246.514 265.296C243.232 261.963 240.415 258.181 238.14 254.058C238.35 253.141 240.424 244.005 238.35 243.601C237.773 242.361 225.75 243.332 220.973 227.916ZM226.774 258.72C228.034 258.316 237.274 255.782 237.563 255.405C239.49 259.484 242.163 263.144 245.438 266.185C240.663 269.546 236.384 273.594 232.733 278.205C229.74 272.081 227.728 265.501 226.774 258.72ZM131.539 247.94C130.53 248.957 129.891 250.298 129.728 251.74C127.864 250.824 125.974 249.961 124.058 249.045C125.141 248.291 126.378 247.799 127.674 247.608C128.97 247.416 130.292 247.53 131.539 247.94ZM127.628 263.194C130.253 272.06 125.869 272.977 123.48 268.772C122.961 265.319 121.335 262.142 118.86 259.744C120.514 253.842 126 257.992 127.628 263.059V263.194ZM111.3 274.459C110.171 270.659 109.253 265.646 111.773 262.197C117.023 255.028 121.748 264.541 122.273 269.904C122.614 273.974 120.488 273.435 119.123 271.683C117.758 269.931 116.498 267.425 114.581 267.021C112.665 266.616 116.183 270.039 116.288 270.147C116.97 270.955 117.443 271.899 118.151 272.842C120.566 275.806 123.9 274.836 123.716 270.659C125.003 272.195 126.866 273.354 128.415 271.899C128.179 276.076 129.203 274.243 129.203 274.189C129.36 267.694 132.274 264.838 131.828 259.097C131.257 256.673 131.062 254.172 131.25 251.686C131.591 249.961 132.956 247.59 134.951 248.183C136.316 251.551 135.24 253.788 138.023 258.963C140.805 264.137 140.648 266.293 140.306 272.438C140.123 275.133 139.703 277.828 139.466 280.523C136.841 284.915 121.275 287.799 116.786 286.128C114.628 282.364 112.793 278.414 111.3 274.324V274.459ZM116.708 287.152C121.958 289.147 135.319 287.476 139.781 283.002C143.588 288.122 147.499 293.108 151.069 298.39C140.096 307.607 122.43 307.742 113.636 306.961C114.319 300.196 115.5 293.755 116.708 287.018V287.152ZM403.751 409.128C392.201 434.03 367.185 440.956 342.405 435.108C323.164 430.58 299.775 417.321 284.288 404.412C295.418 394.063 300.195 375.953 299.171 363.987C319.331 360.861 336.184 359.297 356.449 358.139C356.546 358.139 356.64 358.099 356.709 358.028C356.778 357.957 356.816 357.861 356.816 357.761C356.816 357.661 356.778 357.565 356.709 357.494C356.64 357.424 356.546 357.384 356.449 357.384C346.526 357.6 336.604 358.354 326.734 359.27C327.259 357.68 319.121 351.778 312.638 337.872C312.454 337.441 311.64 337.603 311.798 338.142C314.851 346.148 319.552 353.382 325.579 359.351C309.368 360.68 293.254 363.047 277.331 366.439C273.184 359.27 264.889 352.425 256.699 351.266C254.809 342.373 251.16 323.05 248.824 314.911C248.535 313.914 238.324 315.935 236.906 316.097C237.274 318.145 238.035 321.945 235.174 322.484C228.979 323.67 202.65 327.874 196.061 327.874C193.436 327.874 193.279 324.235 193.174 322.484C191.835 322.672 183.593 323.454 183.33 324.532C182.7 327.227 199.264 405.624 200.786 412.631C200.996 413.656 207.086 412.847 208.11 412.793C228.001 411.902 247.831 409.914 267.514 406.837C267.676 406.817 267.825 406.732 267.928 406.602C268.031 406.471 268.08 406.304 268.065 406.136C268.076 406.083 268.076 406.028 268.065 405.975C268.59 405.409 265.44 391.961 265.046 390.182C266.175 390.344 267.461 390.613 268.669 390.721C287.306 414.976 317.205 427.912 329.044 432.494C278.25 446.885 234.754 447.37 183.75 436.752C176.164 417.725 168.525 396.165 167.213 375.656C165.244 345.095 179.025 313.429 198.424 290.764C198.739 290.386 198.214 289.82 197.873 290.198C178.999 310.787 164.929 343.047 165.349 371.506C165.611 388.808 171.544 409.586 177.791 425.999C171.045 433.922 159.259 433.599 150.491 429.799C128.074 420.124 120.619 393.847 116.708 371.533C112.763 350.598 111.677 329.201 113.479 307.958C126 310.114 141.619 307.419 151.935 299.63C157.498 308.01 162.48 316.782 166.845 325.879C167.206 326.84 167.691 327.747 168.289 328.574C168.396 328.677 168.536 328.734 168.683 328.734C168.829 328.734 168.969 328.677 169.076 328.574C169.146 328.51 169.201 328.431 169.238 328.343C169.274 328.254 169.291 328.158 169.286 328.062C168.945 325.367 160.729 311.084 159.6 309.197C175.947 285.834 199.004 268.306 225.54 259.07C225.068 261.011 230.396 281.196 232.733 279.498C237.014 274.967 241.649 270.803 246.593 267.048C249.329 273.467 252.858 279.5 257.093 284.996C258.825 287.341 284.603 267.775 290.483 251.713C322.954 256.375 354.034 278.663 375.218 303.565C398.055 330.542 420 373.877 403.751 408.993V409.128ZM252.158 377.543C246.908 373.931 239.348 369.458 237.274 362.747C236.408 360.052 241.736 363.151 242.839 363.286C245.494 366.403 248.56 369.124 251.948 371.371C252.368 371.641 252.761 370.967 252.368 370.67C248.246 367.76 240.765 360.726 240.476 355.228C240.319 351.536 245.254 356.683 246.724 357.626C248.194 358.57 257.408 365.927 259.508 363.475C260.531 362.316 258.773 359.836 258.3 358.705C257.854 356.441 257.381 354.204 256.883 351.967C267.383 354.662 269.798 359.082 276.229 367.032C278.513 374.362 272.37 387.406 268.721 389.535C261.319 387.918 253.496 387.137 247.223 382.367C244.44 380.265 239.348 376.438 238.691 372.665C238.14 369.727 244.283 373.554 245.123 374.174C247.268 375.658 249.495 377.017 251.79 378.243C251.881 378.293 251.987 378.304 252.085 378.274C252.184 378.244 252.266 378.174 252.315 378.082C252.364 377.989 252.375 377.88 252.345 377.779C252.315 377.677 252.248 377.593 252.158 377.543ZM273.158 385.897C276.687 380.464 278.239 373.928 277.541 367.436L298.121 363.933C297.885 379.618 293.685 391.799 282.949 403.307C278.151 399.211 273.65 394.762 269.483 389.993C271.043 388.958 272.339 387.553 273.263 385.897H273.158Z" fill="white"/>
<path d="M234.728 314.264C233.205 310.329 228.428 312.027 225.409 312.485C223.125 312.836 220.395 314.237 219.476 312.189C217.823 308.416 215.775 305.182 211.076 306.071C204.461 307.23 207.375 314.857 204.986 315.504C200.708 316.662 193.804 314.533 194.723 323.05C194.723 323.669 195.011 325.96 195.956 325.987C202.02 325.987 228.086 321.837 234.754 320.597C236.486 320.274 235.095 315.207 234.754 314.21L234.728 314.264ZM211.103 315.126C207.874 312.62 211.103 308.416 213.386 310.599C216.72 313.725 213.439 316.878 211.234 315.126H211.103ZM242.104 214.118C242.918 213.956 242.786 212.501 241.946 212.609C237.379 213.121 237.956 211.8 238.534 206.248C238.855 202.669 239.478 199.125 240.398 195.657C240.393 195.563 240.36 195.473 240.301 195.401C240.243 195.328 240.163 195.278 240.073 195.256C239.984 195.235 239.891 195.244 239.807 195.282C239.723 195.321 239.654 195.386 239.61 195.468C238.039 200.449 237.06 205.607 236.696 210.83C236.565 214.118 239.531 214.603 242.104 214.118ZM430.159 90.1747L417.296 94.4867C413.989 87.857 406.954 77.9933 400.339 74.1394L408.844 62.3892C409.054 62.0928 408.686 61.6077 408.398 61.8772C407.321 62.9013 399.158 71.8756 398.816 73.8969C380.179 84.0031 373.406 100.308 383.066 102.14C381.938 105.267 384.851 107.989 387.686 108.231C387.056 112.516 395.194 118.095 401.179 106.965C403.646 107.261 404.775 112.193 406.219 114.834C409.211 120.224 414.094 122.057 415.144 118.715C416.351 114.376 407.978 103.003 416.771 96.0767C417.9 96.6427 429.03 91.7378 430.526 90.6867C430.868 90.5789 430.5 90.0669 430.159 90.1747ZM386.978 106.911H386.768C385.826 106.645 385.023 106.011 384.532 105.144C384.041 104.277 383.901 103.247 384.143 102.275C388.238 102.275 390.863 99.3916 393.356 96.3732C394.17 95.6186 397.005 94.9987 397.215 96.7235C397.661 101.386 391.676 108.204 386.978 106.911ZM392.858 112.301C391.787 112.267 390.762 111.845 389.964 111.11C389.167 110.375 388.648 109.375 388.5 108.285C392.149 108.069 394.59 105.132 396.69 102.383C397.766 101.251 401.468 100.254 401.021 103.407C400.575 106.56 396.533 112.759 392.858 112.193V112.301ZM412.099 110.98C412.44 112.22 415.485 119.523 412.624 119.065C406.324 118.203 406.009 106.506 401.599 106.021C403.568 101.628 401.336 98.7987 397.714 100.631C398.948 97.532 398.764 93.4087 394.223 94.7292C397.819 86.4556 387.371 90.1477 384.563 94.3789C384.169 94.9718 384.983 95.6455 385.403 95.0526C388.736 90.2825 397.766 87.9917 391.965 96.4271C383.696 108.339 368.34 96.4271 393.514 78.8826L399.551 74.8401C406.221 80.4819 411.78 87.3787 415.931 95.1604C411.259 98.7987 410.576 105.348 412.125 110.872L412.099 110.98ZM511.508 372.18C505.824 372.502 500.163 373.15 494.55 374.12C493.815 374.389 493.946 375.845 494.025 376.438C484.916 373.446 488.644 357.573 484.286 356.171C483.592 356.001 482.863 356.051 482.198 356.316C481.532 356.581 480.96 357.047 480.559 357.653C477.803 361.319 477.934 366.574 478.091 371.128C473.288 369.458 463.654 371.371 465.701 379.052C463.26 379.914 463.076 386.625 464.284 389.266C463.389 392.461 463.763 395.889 465.322 398.802C466.881 401.716 469.499 403.878 472.605 404.816L473.393 405.005C478.171 406.272 483.113 406.763 488.04 406.46C487.148 409.155 501.165 414.545 503.396 415.111C503.499 415.143 503.61 415.134 503.706 415.085C503.802 415.036 503.877 414.951 503.914 414.847C503.951 414.743 503.948 414.629 503.905 414.528C503.863 414.427 503.784 414.346 503.685 414.302C498.702 412.043 493.839 409.515 489.116 406.729C495.154 398.833 496.991 385.169 495.469 375.602C500.719 374.821 506.284 374.416 511.586 373.177C512.006 372.907 511.875 372.18 511.508 372.18ZM488.513 405.247C480.795 403.522 464.888 407.026 465.203 390.559C466.463 391.907 467.093 390.991 466.568 390.559C464.52 388.942 464.284 382.124 466.148 380.184C467.093 382.259 467.513 380.965 467.381 380.615C463.864 372.287 473.156 370.967 478.039 372.53C477.75 375.44 475.073 374.524 473.34 373.689C473.245 373.649 473.139 373.646 473.043 373.681C472.946 373.716 472.865 373.786 472.815 373.877C472.765 373.953 472.739 374.042 472.739 374.133C472.739 374.225 472.765 374.314 472.815 374.389C475.151 376.518 478.958 376.249 479.194 372.476C479.378 369.431 478.669 359.432 482.554 357.653C486.439 355.875 484.47 365.253 486.99 371.344C488.014 373.823 491.768 378.594 494.104 378.135C495.338 388.673 493.133 395.734 488.513 405.247ZM469.14 253.33C470.768 253.195 474.206 252.602 474.39 250.446C479.535 250.77 484.68 250.904 489.825 250.851C490.324 252.764 503.843 253.168 505.811 252.845C506.205 252.845 506.389 252.144 505.811 252.036L491.426 250.204C492.581 242.415 491.19 225.221 486.413 219.912C488.618 217.567 499.118 212.609 502.74 210.614C502.803 210.545 502.838 210.453 502.838 210.358C502.838 210.263 502.803 210.172 502.74 210.102C502.702 210.034 502.642 209.98 502.571 209.951C502.499 209.922 502.42 209.918 502.346 209.94C499.958 210.695 485.284 216.947 484.654 219.723C470.138 219.103 469.166 204.146 464.074 205.952C460.268 207.326 462.341 215.169 463.706 217.837C464.231 218.915 466.62 222.095 464.1 222.337C457.8 222.984 452.944 230.746 457.721 234.546C455.989 237.861 456.645 242.819 458.981 244.14C456.461 251.632 463.496 253.95 469.14 253.33ZM459.9 247.131C459.844 246.238 459.967 245.342 460.26 244.498C460.553 243.655 461.012 242.882 461.606 242.227C462.131 241.715 461.16 240.556 459.638 243.143C457.643 238.319 457.616 235.759 461.554 231.905C462.341 231.15 460.425 230.746 458.404 233.71C455.411 227.943 460.084 225.113 464.625 223.415C468.274 222.472 465.596 218.726 464.993 217.621C463.365 214.603 462.368 207.623 464.993 207.111C467.618 206.599 468.405 213.687 475.913 218.484C478.893 220.585 482.499 221.539 486.098 221.179C489.694 227.727 490.928 241.391 490.35 249.261H466.463C466.043 249.261 466.069 249.826 466.463 249.88C468.615 250.096 470.768 250.258 472.92 250.419C472.5 252.495 460.031 253.815 459.9 247.131ZM231.84 186.979C230.253 187.253 228.806 188.081 227.745 189.324C226.328 191.183 227.509 192.019 227.745 191.237C228.729 189.84 230.192 188.877 231.84 188.542C233.363 188.003 232.706 186.979 231.84 186.979ZM252.709 188.919C254.577 189.161 256.286 190.125 257.486 191.614C257.88 192.153 258.825 191.83 257.486 189.809C256.992 189.04 256.333 188.397 255.56 187.93C254.786 187.463 253.919 187.184 253.024 187.114C252 187.356 251.79 188.65 252.709 188.919ZM71.5051 197.301C69.3444 196.094 66.9296 195.446 64.4701 195.414C64.4701 192.207 66.5701 189.593 67.8826 186.763C70.7963 180.403 67.5151 176.549 64.9688 177.843C62.0288 179.352 58.8788 190.483 47.0926 188.623C47.0926 186.467 36.8551 179.756 34.6763 178.705C34.2563 178.49 33.9938 179.164 34.3876 179.379C38.4171 182.064 42.1646 185.171 45.5701 188.65C35.8838 196.088 36.4613 213.525 36.9601 214.145C32.1563 214.333 27.4051 213.067 22.6276 213.552C22.1551 213.552 22.1551 214.387 22.6276 214.387C25.0163 214.387 36.9863 216.058 38.1151 215.384C42.7351 219.885 56.3063 225.706 63.1313 224.305C64.1752 224.136 65.1753 223.754 66.0721 223.18C66.969 222.607 67.7442 221.853 68.3517 220.966C68.9591 220.078 69.3863 219.074 69.6079 218.013C69.8295 216.952 69.8408 215.857 69.6413 214.791C70.2286 214.577 70.7689 214.246 71.231 213.817C71.6931 213.388 72.0679 212.869 72.3338 212.29C72.5998 211.711 72.7516 211.085 72.7806 210.445C72.8095 209.806 72.715 209.168 72.5026 208.566C72.3273 208.058 72.0699 207.585 71.7413 207.165C72.5892 206.657 73.2889 205.925 73.7673 205.044C74.2456 204.164 74.4853 203.169 74.4611 202.161C74.437 201.154 74.15 200.171 73.63 199.316C73.1101 198.461 72.3763 197.765 71.5051 197.301ZM68.2501 218.699C63.9976 228.644 42.0001 218.268 38.3513 213.309C38.0363 212.851 37.9576 197.463 46.7251 189.458C57.7238 193.582 64.1551 178.678 66.1763 178.678C67.6201 178.678 68.0663 180.808 68.0663 181.939C68.0663 186.898 63.3676 190.429 63.3938 195.414C58.9313 195.873 57.4351 199.834 59.4826 201.855C54.5738 202.044 53.4188 206.194 57.7501 208.728C49.8751 209.482 55.7813 216.247 62.7638 217.244C63.2101 217.244 63.2888 216.624 62.7638 216.489C48.5363 211.342 57.5138 207.38 65.0476 211.261C67.9351 212.905 69.7463 215.007 68.2501 218.699ZM69.1951 213.309C67.7071 211.175 65.4988 209.686 63.0001 209.132C60.3751 208.377 59.1151 209.321 56.4901 206.572C54.4426 204.47 57.7501 201.397 64.7326 203.877C72.2663 206.437 73.1063 211.746 69.1163 213.39L69.1951 213.309ZM72.6601 203.85C72.1619 204.658 71.5102 205.354 70.7438 205.898C68.0156 203.524 64.6243 202.099 61.0576 201.829C60.6376 201.316 59.3776 201.128 59.5088 199.457C59.7976 194.04 75.8626 196.735 72.5813 203.931L72.6601 203.85ZM251.265 202.341C252.446 202.341 253.444 198.675 251.895 198.136C250.346 197.597 249.953 202.341 251.265 202.341ZM229.714 196.735C228.716 196.735 227.903 200.831 229.136 200.831C230.37 200.831 231.158 196.87 229.714 196.735ZM250.294 222.364C260.295 223.739 259.271 212.635 257.093 214.495C256.069 215.438 259.088 221.152 250.373 221.664C249.979 221.664 249.848 222.364 250.294 222.364Z" fill="white"/>
</svg>
