<svg width="363" height="408" viewBox="0 0 363 408" fill="none" xmlns="http://www.w3.org/2000/svg">
<path d="M308.493 294.536C312.11 291.348 315.752 287.982 315.008 283.316C314.627 280.823 313.276 278.579 311.247 277.067C309.217 275.555 306.672 274.896 304.158 275.232L289.999 212.069C291.051 213.344 291.179 213.803 291.872 213.803C292.044 213.803 292.213 213.761 292.365 213.681C292.517 213.601 292.647 213.485 292.744 213.344C296.798 207.716 300.433 201.801 303.62 195.647C309.416 186.467 299.644 181.418 294.257 190.547C293.826 189.008 293.072 187.577 292.047 186.346C291.022 185.116 289.747 184.114 288.307 183.407C286.78 182.87 285.114 182.87 283.587 183.407L247.241 21.4051C245.654 14.4518 241.365 8.4047 235.311 4.58297C229.256 0.76123 221.927 -0.524923 214.922 1.0051C117.067 22.5781 54.4298 35.8126 48.1199 37.2661C33.2173 40.7341 22.4699 70.4161 25.8044 84.7726L56.5075 221.223C56.3235 221.072 56.0922 220.989 55.8534 220.989C55.6146 220.989 55.3833 221.072 55.1993 221.223C30.8318 238.92 13.9798 267.123 5.97698 295.428C-6.28372 338.345 2.74508 387.228 18.4172 428.844C21.6894 438.131 26.4253 446.841 32.4478 454.65C33.0634 455.441 34.3459 454.472 33.8072 453.656C23.342 437.846 18.6224 424.305 13.0307 404.823C3.02723 371.214 -1.07677 335.361 7.05428 301.14C20.777 245.729 55.5328 224.793 56.8666 222.855L67.9987 272.555C57.8147 283.682 49.5392 296.397 43.5029 310.193C43.0156 311.289 44.0159 311.774 44.6059 310.575C54.1785 290.912 67.8851 273.52 84.7994 259.575C93.9052 252.206 103.729 244.811 114.964 242.796C119.587 241.933 124.361 242.384 128.738 244.097C146.231 251.186 140.537 270.03 130.995 286.274C108.526 324.524 106.32 328.502 103.19 337.095C96.8549 356.271 103.19 372.795 106.268 391.971C113.476 435.627 96.5471 450.239 93.0587 455.211C91.6736 457.226 93.2896 457.608 93.9308 457.073C99.1247 452.649 103.164 447.04 105.704 440.727L111.014 464.468C111.79 467.953 113.251 471.251 115.312 474.174C117.374 477.097 119.995 479.587 123.026 481.501C126.057 483.415 129.438 484.716 132.975 485.329C136.513 485.941 140.137 485.854 143.641 485.072L306.646 448.964C320.215 445.853 336.4 423.056 332.937 405.741C332.835 402.018 334.63 411.045 308.493 294.536ZM77.4379 262.967L33.8329 68.7076C32.4912 62.7754 33.4425 56.5586 36.4979 51.2914C39.5532 46.0242 44.4892 42.0919 50.3258 40.2751C51.3005 39.9436 213.691 3.5806 215.409 3.1981C218.581 2.49595 221.861 2.42351 225.061 2.98495C228.261 3.5464 231.318 4.73066 234.056 6.46977C236.795 8.20887 239.161 10.4686 241.018 13.1191C242.876 15.7696 244.189 18.7589 244.881 21.9151L281.381 184.682C280.372 185.493 279.602 186.558 279.149 187.767C276.123 194.576 282.022 201.869 286.588 207.836L301.798 275.691C300.138 276.216 298.608 277.085 297.31 278.241C297.13 272.147 294.616 266.639 288.871 266.282L284.254 245.627C287.306 238.487 288.563 236.217 289.563 230.582C289.854 229.032 289.766 227.435 289.307 225.927C288.848 224.418 288.031 223.041 286.925 221.911C285.819 220.781 284.456 219.932 282.951 219.436C281.446 218.939 279.843 218.808 278.277 219.056L237.237 35.4556C235.824 29.3513 232.041 24.0498 226.712 20.7063C221.384 17.3628 214.943 16.2483 208.792 17.6056L66.0749 49.0471C59.9382 50.4585 54.6098 54.2208 51.2477 59.5161C47.8856 64.8114 46.7616 71.212 48.1199 77.3266L87.8518 254.552C84.0299 257.204 80.6954 259.983 77.4379 262.967ZM122.505 240.246C110.244 238.946 99.4199 246.009 89.6216 252.996L50.095 76.8421C48.8717 71.3075 49.9043 65.5165 52.9667 60.7371C56.029 55.9578 60.8716 52.5795 66.434 51.3421C220.975 16.9936 210.433 19.1866 213.896 19.1611C218.805 19.1533 223.569 20.8163 227.395 23.8735C231.222 26.9307 233.88 31.1979 234.929 35.9656L275.969 219.566C269.146 221.376 265.247 228.797 264.349 234.866C259.809 228.618 251.371 225.941 246.394 232.01C245.264 233.924 244.724 236.127 244.842 238.344C244.961 240.561 245.733 242.695 247.061 244.479C248.983 247.186 251.11 249.743 253.423 252.129L239.905 256.005C238.956 242.694 231.825 218.775 217.692 199.319C215.242 195.568 212.026 192.371 208.253 189.935C212.855 185.715 216.713 180.759 219.667 175.272C219.786 175.067 219.834 174.827 219.802 174.592C219.769 174.357 219.659 174.139 219.489 173.973C219.319 173.807 219.098 173.701 218.861 173.673C218.624 173.645 218.384 173.696 218.179 173.819C217.615 174.176 217 174.507 216.41 174.813C217.192 173.632 217.797 172.343 218.205 170.988C218.244 170.81 218.236 170.625 218.181 170.45C218.126 170.276 218.026 170.12 217.891 169.996C217.756 169.872 217.591 169.786 217.412 169.745C217.233 169.704 217.047 169.711 216.871 169.764C214.306 170.81 212.177 168.107 211.51 165.404C209.587 157.448 211.51 154.082 206.868 144.392C210.841 137.828 213.295 130.468 214.05 122.844C214.511 121.162 214.43 119.378 213.819 117.744C213.389 117.019 212.734 116.453 211.952 116.131C211.17 115.809 210.304 115.748 209.484 115.959C203.324 117.04 197.359 119.025 191.786 121.85C192.606 115.398 193.607 109.304 193.812 103.184C198.172 101.271 210.305 95.7886 207.766 85.5121C206.457 80.1316 199.07 73.3741 193.222 75.0826C193.538 71.6862 192.667 68.2853 190.756 65.4523C188.845 62.6193 186.012 60.527 182.731 59.5276C179.036 58.7129 175.173 59.1396 171.748 60.7408C168.322 62.3419 165.528 65.0272 163.801 68.3761C161.192 65.3927 158.031 62.9343 154.49 61.1341C151.819 60.007 148.901 59.5836 146.018 59.9047C143.134 60.2258 140.382 61.2806 138.028 62.9673C135.674 64.6539 133.797 66.9154 132.579 69.5334C131.36 72.1514 130.841 75.0375 131.072 77.9131C122.684 76.0261 113.297 81.6361 113.758 90.6631C113.825 92.7227 114.406 94.7335 115.45 96.5142C116.493 98.2948 117.965 99.7894 119.735 100.863C122.125 101.853 124.608 102.605 127.148 103.107C128.557 103.587 129.83 104.396 130.861 105.465C131.891 106.534 132.65 107.833 133.073 109.253C135.671 116.339 137.729 123.61 139.229 131.004C139.229 131.259 139.665 130.494 137.382 132.917C135.586 131.19 133.637 129.628 131.559 128.25C129.277 126.389 127.199 124.731 125.07 123.15C111.398 112.593 110.911 133.529 116.913 146.916C118.84 151.422 121.433 155.617 124.608 159.36C124.454 160.1 124.352 160.865 124.249 161.604C123.121 161.222 121.684 163.262 121.402 164.409C121.353 164.564 121.342 164.727 121.369 164.887C121.397 165.047 121.462 165.198 121.56 165.327C121.658 165.457 121.785 165.562 121.932 165.632C122.078 165.703 122.239 165.739 122.402 165.735H123.839C123.489 169.302 123.369 172.888 123.48 176.471C123.659 180.449 123.48 189.807 119.581 190.139C119.403 190.134 119.228 190.183 119.079 190.279C118.931 190.376 118.815 190.515 118.748 190.679C118.681 190.842 118.666 191.022 118.705 191.195C118.744 191.367 118.835 191.523 118.965 191.643C119.978 192.501 121.088 193.237 122.274 193.836H119.914C119.755 193.832 119.598 193.874 119.461 193.955C119.324 194.036 119.213 194.154 119.141 194.295C119.068 194.437 119.037 194.595 119.052 194.753C119.066 194.911 119.125 195.062 119.222 195.188C126.429 203.781 137.177 206.739 148.617 207.938C147.693 212.477 145.667 219.693 142.486 223.467C141.339 224.617 139.992 225.55 138.511 226.221C131.611 227.879 128.251 236.421 131.739 243.408C128.923 241.711 125.775 240.633 122.505 240.246ZM229.696 292.19C225.028 300.171 221.129 301.395 212.075 302.568L155.645 310.55C149.386 311.672 126.917 314.987 128.687 308.994C130.482 304.532 140.639 292.139 143.23 288.977C141.794 299.84 146.18 304.277 156.722 302.441C213.152 292.241 210.587 293.898 211.69 291.96C213.793 292.368 215.358 290.328 216.82 288.518C219.265 285.072 221.493 281.478 223.489 277.757C225.258 274.858 226.443 271.645 226.977 268.296C232.301 267.268 237.752 267.07 243.137 267.71C243.345 267.889 243.508 268.113 243.615 268.365C243.722 268.617 243.769 268.89 243.752 269.163C243.214 270.515 244.907 266.154 229.722 292.19H229.696ZM244.599 272.274C245.249 276.163 244.327 280.15 242.034 283.367L233.339 297.978C231.51 301.831 229.134 305.404 226.285 308.586C224.412 310.104 222.105 310.996 219.693 311.136C217.589 311.442 144.974 320.469 144.974 320.469C135.125 322.178 130.61 321.846 128.61 312.641C135.073 316.466 152.233 312.36 211.741 304.634C220.847 303.461 226.234 302.415 231.261 293.439L244.599 272.274ZM164.417 262.89C164.967 263.268 165.475 263.704 165.93 264.191C164.518 265.457 163.285 266.906 162.262 268.5C162.249 268.567 162.249 268.636 162.262 268.703C162.276 268.77 162.302 268.834 162.34 268.891C162.378 268.947 162.427 268.996 162.484 269.034C162.541 269.072 162.605 269.099 162.673 269.112C162.74 269.125 162.81 269.126 162.877 269.112C162.944 269.099 163.008 269.073 163.066 269.035C163.123 268.997 163.172 268.948 163.21 268.892C163.248 268.835 163.275 268.771 163.288 268.704C164.347 267.473 165.515 266.338 166.777 265.313C167.319 266.196 167.799 267.117 168.213 268.067C168.008 268.347 167.88 268.449 167.88 268.628C167.873 268.711 167.882 268.796 167.908 268.876C167.934 268.956 167.976 269.03 168.031 269.094C168.085 269.158 168.153 269.21 168.228 269.249C168.303 269.287 168.385 269.31 168.47 269.316C169.034 269.316 169.88 267.455 173.6 264.216C173.856 264.548 174.01 264.854 174.446 264.854C174.54 264.857 174.634 264.841 174.722 264.807C174.809 264.772 174.888 264.719 174.954 264.651C175.019 264.584 175.07 264.503 175.102 264.415C175.133 264.327 175.146 264.233 175.139 264.14C175.091 263.81 174.987 263.491 174.831 263.196C175.68 262.46 176.619 261.835 177.627 261.335C178.179 262.006 178.661 262.732 179.063 263.502C177.48 265.088 176.022 266.793 174.703 268.602C174.624 268.698 174.584 268.818 174.588 268.941C174.592 269.064 174.64 269.182 174.725 269.272C174.809 269.362 174.924 269.419 175.047 269.431C175.17 269.444 175.294 269.412 175.395 269.342C175.754 269.342 176.113 268.296 179.807 264.879C179.944 265.377 180.231 265.822 180.628 266.154C177.627 269.342 175.087 272.529 176.319 276.992C176.515 277.748 176.86 278.458 177.336 279.08C177.812 279.702 178.408 280.223 179.089 280.613C179.308 281.756 179.965 282.771 180.922 283.442C181.88 284.113 183.062 284.387 184.219 284.208C185.755 284.003 187.226 283.463 188.528 282.627C191.709 284.718 194.633 281.607 196.582 279.72C199.12 277.197 201.421 274.448 203.456 271.509C204.739 269.673 204.303 270.132 204.585 270.209C205.303 270.413 205.534 269.163 208.15 266.307C208.473 266.951 208.878 267.551 209.356 268.092C209.441 268.231 209.578 268.33 209.737 268.368C209.895 268.407 210.063 268.381 210.202 268.296C210.342 268.212 210.442 268.075 210.48 267.918C210.519 267.76 210.493 267.593 210.407 267.455C210.071 266.68 209.65 265.944 209.151 265.262C209.984 264.32 210.912 263.465 211.921 262.712C212.424 263.45 212.87 264.226 213.255 265.032C211.536 266.765 210.038 268.701 208.792 270.795C208.535 271.586 209.792 271.764 209.792 271.076C211.007 269.355 212.39 267.757 213.922 266.307C214.46 267.353 214.845 268.398 215.563 268.092C215.736 267.997 215.872 267.848 215.951 267.668C216.029 267.489 216.046 267.288 215.999 267.098C215.837 266.385 215.596 265.692 215.281 265.032C217.082 263.531 218.994 262.167 221.001 260.952C214.815 268.255 211.108 277.313 210.407 286.835C210.46 287.95 210.408 289.069 210.254 290.175V290.379C209.612 291.833 207.201 291.858 206.868 291.909C205.816 291.909 209.766 291.399 158.133 300.248C152.259 301.242 146.693 301.395 145.641 295.658C144.051 284.591 150.31 270.005 164.417 262.89ZM166.007 262.202C167.46 261.461 169.003 260.912 170.599 260.57C165.674 263.4 168.008 263.808 166.11 262.202H166.007ZM171.804 261.794C173.318 263.63 172.856 261.794 169.239 266.562C168.95 265.736 168.516 264.968 167.957 264.293C169.132 263.307 170.424 262.468 171.804 261.794ZM173.241 261.054C174.259 260.703 175.232 260.232 176.139 259.652C176.678 260.213 176.703 259.652 174.318 261.513C173.625 262.023 174.138 261.998 173.241 261.054ZM183.501 261.641C183.731 262.125 183.501 262.023 183.86 262.406C183.424 262.967 182.167 264.522 181.679 264.956C181.531 264.486 181.334 264.033 181.09 263.604C181.5 263.4 181.859 263.018 183.603 261.641H183.501ZM180.269 262.278C180.085 261.92 179.871 261.579 179.627 261.258C179.419 261 179.196 260.753 178.961 260.519C179.844 260.055 180.752 259.638 181.679 259.269C182.03 259.575 182.356 259.907 182.654 260.264C181.86 260.897 181.098 261.569 180.371 262.278H180.269ZM208.176 263.936C208.865 262.727 209.474 261.475 209.997 260.187L210.972 261.564C209.925 262.262 208.998 263.123 208.227 264.114L208.176 263.936ZM213.126 261.794C214.255 261.08 214.486 260.978 215.281 260.417C216.41 260.417 217.564 260.417 218.718 260.595C213.049 263.961 215.743 265.058 213.229 261.794H213.126ZM222.617 270.693C222.465 270.473 222.235 270.318 221.973 270.261C221.71 270.204 221.436 270.249 221.206 270.387C220.744 270.744 220.744 270.846 219.411 272.682C219.128 272.376 218.846 272.121 218.59 271.815C218.488 271.681 218.338 271.591 218.171 271.563C218.005 271.534 217.833 271.57 217.692 271.662C216.923 272.172 217.846 273.294 218.41 274.212C217.949 274.926 217.487 275.666 217.102 276.38C217.016 276.496 216.965 276.635 216.958 276.78C216.95 276.925 216.985 277.068 217.059 277.193C217.133 277.318 217.242 277.419 217.373 277.483C217.503 277.547 217.65 277.571 217.795 277.553C217.795 277.553 218.179 277.553 218.256 277.374C220.283 275.334 218.975 275.436 220.821 276.711C221.043 276.848 221.307 276.902 221.565 276.864C220.334 279.108 214.563 289.461 212.203 290.481C212.265 279.758 216.27 269.428 223.463 261.437C223.467 261.524 223.492 261.61 223.537 261.685C223.582 261.761 223.645 261.824 223.72 261.87C223.976 262.38 224.233 262.89 224.464 263.426C225.35 267.55 224.567 271.856 222.283 275.411C222.283 275.079 222.104 275.054 220.847 274.11C222.54 272.121 223.258 271.509 222.719 270.693H222.617ZM223.925 258.81C223.789 258.718 223.628 258.669 223.463 258.669C223.299 258.669 223.138 258.718 223.002 258.81C219.039 258.208 215.026 258.012 211.023 258.224C218.274 242.309 219.68 224.37 214.999 207.53C214.963 207.396 214.902 207.27 214.818 207.16C214.733 207.049 214.628 206.957 214.508 206.887C214.388 206.817 214.255 206.771 214.117 206.753C213.979 206.734 213.838 206.742 213.703 206.777C213.569 206.813 213.442 206.874 213.331 206.957C213.22 207.041 213.127 207.146 213.057 207.265C212.987 207.385 212.941 207.517 212.922 207.654C212.903 207.792 212.911 207.931 212.947 208.065C215.58 218.203 216.092 228.771 214.451 239.114C212.81 249.457 209.05 259.354 203.405 268.194C201.091 271.583 198.582 274.835 195.89 277.935C194.504 279.542 193.145 281.811 189.682 280.944C189.419 280.801 189.204 280.585 189.063 280.323C188.921 280.06 188.86 279.762 188.887 279.465C189.118 277.068 190.247 276.915 190.708 273.957C190.708 273.788 190.641 273.626 190.52 273.506C190.4 273.387 190.237 273.32 190.067 273.32C189.897 273.32 189.734 273.387 189.614 273.506C189.493 273.626 189.426 273.788 189.426 273.957C188.901 275.051 188.301 276.107 187.63 277.119C187.27 277.739 187.045 278.427 186.97 279.138C186.895 279.85 186.971 280.57 187.194 281.25L186.014 281.837C183.244 283.137 181.397 282.168 180.884 280.511C179.653 276.558 184.552 273.218 184.398 272.325C184.385 272.213 184.343 272.107 184.275 272.017C184.207 271.926 184.116 271.856 184.012 271.812C183.908 271.768 183.794 271.752 183.681 271.766C183.569 271.78 183.462 271.823 183.372 271.892C181.219 273.344 179.691 275.546 179.089 278.063C176.524 274.901 179.089 270.591 181.654 268.118C196.556 253.838 198.352 231.474 191.914 212.018C191.786 211.355 190.657 211.508 190.785 212.018C194.248 227.879 195.069 243.281 187.015 257.484C180.916 257.179 174.804 257.659 168.829 258.912C161.442 261.003 164.545 262.176 164.494 257.79C165.685 247.533 164.483 237.14 160.98 227.42C160.544 226.221 159.441 226.808 159.697 227.726C160.228 229.426 160.689 231.211 161.083 233.081C160.539 235.379 159.863 237.643 159.056 239.864C158.069 242.713 156.138 245.144 153.58 246.761C151.022 248.377 147.988 249.083 144.974 248.763C145.463 248.633 145.918 248.402 146.312 248.086C146.705 247.77 147.027 247.375 147.257 246.927C147.455 247.033 147.674 247.094 147.898 247.106C149.386 247.106 151.746 244.556 152.644 243.51C153.351 242.406 153.71 241.116 153.674 239.807C153.637 238.498 153.207 237.23 152.438 236.166C151.381 233.789 150.083 231.525 148.565 229.409C148.624 229.252 148.624 229.08 148.565 228.924C147.131 227.278 145.178 226.164 143.025 225.762C147.514 221.861 149.899 213.497 150.72 207.759C170.086 209.136 192.632 203.705 207.15 191.031C208.515 192.121 209.809 193.296 211.023 194.55C219.436 202.991 231.928 224.666 236.673 248.865C236.878 249.885 237.93 255.546 238.366 256.515C233.236 257.969 229.337 259.065 225.541 260.468C225.166 259.811 224.649 259.244 224.028 258.81H223.925ZM126.84 193.785C126.583 192.689 125.019 193.428 121.453 191.031C126.994 187.64 124.583 174.278 125.301 165.378C127.866 165.378 130.431 165.098 132.996 164.766C133.024 166.825 133.534 168.849 134.487 170.677C135.44 172.506 136.809 174.088 138.485 175.298C137.305 175.298 136.125 175.068 134.971 175.043C133.817 175.017 130.174 175.043 129.841 175.833C129.803 175.913 129.783 176 129.781 176.088C129.779 176.176 129.795 176.263 129.829 176.345C129.863 176.426 129.913 176.5 129.977 176.561C130.041 176.622 130.117 176.67 130.2 176.7C133.247 176.648 136.295 176.75 139.331 177.006C142.446 177.418 145.524 178.065 148.54 178.944C148.689 178.944 148.833 178.885 148.939 178.78C149.045 178.675 149.104 178.532 149.104 178.383C149.104 178.234 149.045 178.092 148.939 177.986C148.833 177.881 148.689 177.822 148.54 177.822L148.027 177.644C151.247 177.25 154.216 175.711 156.385 173.312C158.553 170.912 159.776 167.813 159.826 164.588C160.213 164.561 160.601 164.631 160.954 164.792C161.444 167.774 162.94 170.502 165.196 172.528C167.452 174.553 170.334 175.755 173.369 175.935C173.298 175.992 173.246 176.068 173.218 176.154C173.191 176.24 173.19 176.333 173.215 176.42C173.471 176.904 174.087 176.42 175.216 175.91C178.381 175.683 181.363 174.345 183.629 172.136C189.323 169.586 192.35 168.464 196.069 166.679C196.864 166.5 196.249 165.225 195.684 165.531C177.986 171.753 189.272 171.422 187.374 160.431C197.275 160.431 200.404 157.524 207.073 150.537C209.125 158.595 207.971 168.387 213.178 171.396C213.89 171.841 214.723 172.055 215.563 172.008C214.758 173.748 213.544 175.27 212.023 176.445C211.827 176.59 211.685 176.796 211.623 177.031C211.56 177.266 211.579 177.515 211.678 177.738C211.776 177.96 211.948 178.143 212.164 178.255C212.381 178.368 212.63 178.404 212.87 178.358C213.952 178.057 215.014 177.691 216.05 177.261C212.319 183.233 207.458 188.429 201.738 192.561C172.83 212.4 132.765 207.479 121.838 195.29C123.303 195.277 124.763 195.123 126.199 194.831C126.423 194.776 126.616 194.636 126.737 194.44C126.857 194.244 126.894 194.008 126.84 193.785ZM154.516 63.7351C157.839 65.807 160.766 68.449 163.16 71.5381C163.313 71.6938 163.503 71.8072 163.714 71.8672C163.924 71.9272 164.146 71.9317 164.358 71.8802C164.571 71.8287 164.766 71.723 164.925 71.5736C165.083 71.4241 165.2 71.2361 165.263 71.0281C166.538 67.8055 168.911 65.1307 171.968 63.4713C175.025 61.8119 178.571 61.2735 181.987 61.9501C185.094 62.8613 187.712 64.9577 189.269 67.7814C190.826 70.6051 191.196 73.9267 190.298 77.0206C190.225 77.2871 190.241 77.57 190.344 77.8266C190.447 78.0832 190.631 78.2997 190.868 78.4434C191.105 78.5872 191.383 78.6506 191.659 78.6239C191.936 78.5972 192.196 78.482 192.401 78.2956C195.351 75.7456 199.609 78.7801 200.84 79.7491C202.189 80.6715 203.317 81.8791 204.141 83.2854C204.966 84.6917 205.468 86.2619 205.611 87.8836C205.611 95.3041 197.403 98.8486 191.939 101.22C191.745 101.328 191.584 101.488 191.476 101.682C191.367 101.875 191.314 102.095 191.324 102.317C191.144 109.125 190.041 116.189 189.221 123.074C186.656 124.374 185.655 124.935 185.655 124.935C185.415 124.867 185.182 124.773 184.963 124.655C185.27 122.513 187.04 110.783 186.963 108.615C186.913 108.462 186.815 108.329 186.684 108.234C186.552 108.14 186.394 108.089 186.232 108.089C186.07 108.089 185.912 108.14 185.781 108.234C185.65 108.329 185.552 108.462 185.501 108.615C185.014 110.375 183.783 123.915 183.757 124.068C180.452 122.565 176.929 121.593 173.318 121.187C173.523 119.147 173.959 88.0366 173.959 86.9401C173.959 86.5321 173.548 86.5576 173.292 86.5576C173.194 86.5574 173.1 86.5942 173.029 86.6605C172.957 86.7268 172.914 86.8176 172.907 86.9146C171.65 100.251 171.368 116.877 171.548 121.008H170.778C164.497 120.195 158.11 120.931 152.182 123.15C151.874 120.141 149.617 108.513 148.001 101.373C148.001 100.787 146.949 100.583 146.949 101.373C146.938 101.432 146.938 101.493 146.949 101.552C148.899 112.262 149.976 121.238 150.489 123.813C146.771 125.454 143.314 127.628 140.229 130.265C139.204 124.427 137.868 118.647 136.228 112.95C132.278 99.4096 127.738 101.679 122.018 99.6646C120.541 99.0435 119.231 98.0868 118.193 96.8714C117.155 95.656 116.418 94.2157 116.042 92.666C115.665 91.1163 115.659 89.5005 116.024 87.9481C116.39 86.3957 117.116 84.9501 118.144 83.7271C119.828 81.8144 122.082 80.4862 124.578 79.9358C127.074 79.3854 129.682 79.6416 132.021 80.6671C132.868 80.9986 133.586 80.1571 133.483 79.2901C132.956 76.6148 133.2 73.8459 134.188 71.3027C135.176 68.7596 136.867 66.5459 139.066 64.9171C141.265 63.2882 143.882 62.3106 146.616 62.0969C149.349 61.8833 152.088 62.4423 154.516 63.7096V63.7351ZM184.065 125.7L183.398 126.032C183.246 126.161 183.146 126.341 183.118 126.538C183.09 126.735 183.136 126.936 183.246 127.102C183.357 127.268 183.524 127.388 183.717 127.44C183.911 127.492 184.116 127.472 184.296 127.383C190.89 123.725 197.865 120.793 205.098 118.637C207.022 118.127 211.357 116.495 212.357 118.407C212.371 118.636 212.371 118.866 212.357 119.096C209.572 119.18 206.882 120.125 204.662 121.799L191.144 129.449C190.093 130.061 191.811 131.157 191.939 130.214C191.939 129.959 191.324 130.418 207.996 121.595C208.381 121.391 211.946 119.657 212.459 121.161C210.587 136.64 205.996 140.898 203.61 145.667C203.507 145.856 203.478 146.076 203.529 146.286C203.58 146.495 203.707 146.678 203.887 146.799C204.066 146.919 204.284 146.97 204.498 146.94C204.713 146.909 204.908 146.801 205.047 146.636C205.201 146.457 205.303 146.253 205.457 146.075C205.768 146.722 206.042 147.386 206.278 148.064C194.735 159.998 196.71 156.071 187.066 159.284C186.238 156.119 184.268 153.367 181.53 151.555C178.793 149.742 175.48 148.994 172.223 149.454C168.966 149.915 165.994 151.551 163.873 154.05C161.752 156.55 160.631 159.738 160.723 163.007C160.377 162.845 160.003 162.75 159.62 162.726C159.195 159.532 157.617 156.601 155.18 154.477C152.743 152.354 149.613 151.183 146.372 151.183C143.132 151.183 140.001 152.354 137.564 154.477C135.127 156.601 133.549 159.532 133.124 162.726C130.559 163.083 127.994 163.185 125.429 163.313C126.426 155.161 129.21 147.327 133.586 140.363C151.182 112.415 183.757 125.7 184.065 125.7ZM182.039 171.32C176.909 173.87 176.909 174.303 174.344 174.303C171.599 174.335 168.93 173.409 166.802 171.686C164.674 169.962 163.221 167.551 162.698 164.872C162.175 162.194 162.613 159.417 163.938 157.027C165.262 154.637 167.389 152.785 169.946 151.793C172.503 150.802 175.329 150.734 177.932 151.602C180.534 152.469 182.748 154.217 184.187 156.541C185.626 158.864 186.199 161.616 185.807 164.317C185.414 167.018 184.08 169.496 182.039 171.32ZM158.107 165.761C157.779 168.709 156.328 171.421 154.051 173.339C151.774 175.256 148.844 176.234 145.865 176.071C142.885 175.907 140.082 174.616 138.031 172.461C135.979 170.306 134.836 167.452 134.836 164.486C134.836 161.519 135.979 158.665 138.031 156.51C140.082 154.356 142.885 153.064 145.865 152.901C148.844 152.737 151.774 153.715 154.051 155.633C156.328 157.55 157.779 160.262 158.107 163.211C156.414 164.486 156.594 166.73 158.056 165.863L158.107 165.761ZM132.765 139.572C130.508 135.747 125.814 130.112 123.762 127.332C121.71 124.553 120.607 122.87 117.888 123.15C117.272 123.15 117.195 123.686 117.426 123.941C118.144 124.782 118.863 122.589 121.889 126.95C124.28 129.886 126.506 132.951 128.558 136.13C132.38 141.638 132.56 139.802 131.405 141.638C130.209 139.79 128.611 138.233 126.728 137.081C124.846 135.929 122.728 135.212 120.53 134.982C120.362 134.978 120.197 135.034 120.066 135.138C119.934 135.242 119.844 135.389 119.81 135.553C119.776 135.717 119.802 135.888 119.882 136.035C119.962 136.182 120.091 136.297 120.248 136.359C124.452 137.063 128.21 139.379 130.713 142.811L130.149 143.78C129.048 142.695 127.661 141.943 126.147 141.612C124.453 141.276 122.74 141.037 121.017 140.898C120.858 140.884 120.699 140.928 120.57 141.021C120.44 141.114 120.349 141.25 120.311 141.404C120.274 141.558 120.294 141.721 120.367 141.862C120.44 142.003 120.561 142.113 120.709 142.173C123.685 143.295 126.814 142.403 129.636 145.029C129.225 145.769 128.84 146.534 128.507 147.299C127.264 147.431 126.065 147.831 124.993 148.472C123.018 149.415 123.864 150.716 124.762 150.257C125.654 149.711 126.622 149.299 127.635 149.033C126.535 151.732 125.677 154.522 125.07 157.371C116.041 146.253 113.553 132.024 116.041 124.094C116.214 123.311 116.684 122.626 117.353 122.179C118.022 121.733 118.838 121.56 119.632 121.697C121.144 122.193 122.534 123.001 123.71 124.068C133.098 131.489 132.021 131.361 136.305 134.09C134.909 135.771 133.721 137.611 132.765 139.572ZM134.15 244.505C134.203 244.321 134.203 244.127 134.15 243.944C129.02 231.474 138.562 223.773 146.436 229.332C146.257 230.046 147.539 232.035 147.975 232.622C152.464 240.45 152.233 241.164 148.411 244.454C147.924 244.862 147.77 244.938 147.668 244.862C147.373 244.549 147.138 244.186 146.975 243.791C144.795 239.864 144.41 238.691 143.666 238.997C143.571 239.028 143.486 239.084 143.418 239.157C143.351 239.231 143.303 239.32 143.28 239.417C143.257 239.514 143.259 239.616 143.286 239.711C143.313 239.807 143.365 239.895 143.435 239.966C143.692 240.195 143.025 239.481 145.026 244.224C146.129 246.774 146.334 245.525 145.026 246.392C142.999 247.488 141.435 247.59 139.896 241.547C139.836 241.384 139.723 241.247 139.575 241.157C139.427 241.067 139.253 241.029 139.081 241.049C138.908 241.07 138.748 241.148 138.626 241.271C138.504 241.393 138.427 241.554 138.408 241.725C138.21 243.526 138.674 245.338 139.716 246.825C139.129 247.275 138.444 247.58 137.715 247.718C136.752 246.423 135.54 245.331 134.15 244.505ZM139.024 249.605C139.583 249.448 140.113 249.198 140.588 248.865C150.438 253.43 159.261 247.284 162.006 238.155C163.011 244.496 163.235 250.936 162.673 257.331C162.408 258.67 162.408 260.047 162.673 261.386C155.882 264.902 150.373 270.45 146.924 277.247C143.449 278.126 140.024 279.19 136.664 280.434C141.537 270.617 144.872 258.81 139.024 249.579V249.605ZM135.33 283.086C147.565 278.93 143.025 280.281 146.103 279.236C145.091 281.523 144.318 283.907 143.794 286.35C137.74 292.774 132.328 299.769 127.635 307.235C127.17 307.872 126.918 308.64 126.917 309.428C126.905 309.456 126.899 309.486 126.899 309.517C126.899 309.548 126.905 309.578 126.917 309.606C126.848 313.462 128.015 317.241 130.251 320.393C131.326 321.352 132.591 322.075 133.966 322.514C135.341 322.954 136.793 323.1 138.228 322.943C141.024 322.943 133.098 323.657 219.205 313.38C226.9 313.023 229.901 308.867 233.621 302.109C235.955 297.851 244.419 283.826 244.599 283.571C245.98 281.353 246.825 278.848 247.07 276.251C247.315 273.654 246.952 271.036 246.01 268.602C246.03 268.195 245.968 267.788 245.828 267.406C245.687 267.023 245.47 266.673 245.19 266.375C244.91 266.078 244.572 265.839 244.197 265.674C243.823 265.509 243.418 265.421 243.009 265.415C237.737 264.786 232.399 264.967 227.183 265.95C227.177 264.348 226.855 262.762 226.234 261.284C232.8 259.677 234.955 258.912 254.936 253.404C260.252 258.703 265.879 263.684 271.788 268.322C271.888 268.454 272.018 268.561 272.167 268.635C272.316 268.708 272.481 268.747 272.647 268.747C272.814 268.747 272.978 268.708 273.127 268.635C273.276 268.561 273.406 268.454 273.506 268.322C276.867 261.692 279.97 255.215 282.74 248.993L286.614 266.256C285.305 266.524 284.081 267.099 283.041 267.933C282.002 268.767 281.177 269.836 280.637 271.05C278.303 275.538 278.919 281.25 279.457 286.223C279.457 287.166 281.099 303.843 281.766 310.014C281.779 310.321 281.913 310.61 282.138 310.82C282.364 311.029 282.663 311.143 282.971 311.136C287.197 309.2 291.27 306.95 295.155 304.404L309.416 368.027C310.64 373.561 309.607 379.352 306.545 384.132C303.482 388.911 298.64 392.289 293.077 393.527L150.361 425.147C144.792 426.341 138.974 425.302 134.171 422.256C129.368 419.21 125.968 414.402 124.711 408.878L107.679 332.888C111.937 322.229 129.379 294.128 135.33 283.086ZM330.424 407.169C330.373 412.65 328.449 417.951 324.967 422.2C321.485 426.45 316.652 429.395 311.263 430.553L148.155 466.686C141.811 468.057 135.179 466.885 129.699 463.423C124.219 459.962 120.334 454.491 118.888 448.199C112.219 418.644 110.706 411.02 110.706 411.02C110.837 407.252 110.631 403.48 110.09 399.749C107.705 376.263 98.6761 358.949 106.063 336.993L122.505 409.566C123.856 415.668 127.583 420.99 132.87 424.369C138.157 427.747 144.575 428.907 150.72 427.595L293.539 396C299.679 394.595 305.012 390.834 308.375 385.537C311.738 380.24 312.859 373.836 311.494 367.721L297.053 303.308C300.259 301.14 303.337 298.794 306.313 296.321C332.989 414.794 330.475 402.018 330.398 407.169H330.424Z" fill="white"/>
<path d="M225.105 416.4C222.955 418.429 221.397 420.997 220.593 423.834C219.789 426.67 219.771 429.67 220.539 432.516C221.25 435.627 222.998 438.408 225.498 440.407C227.998 442.407 231.105 443.508 234.313 443.532C237.472 443.553 240.527 442.415 242.894 440.335C245.261 438.255 246.772 435.38 247.138 432.261C247.511 429.395 247.178 426.483 246.168 423.773C245.158 421.064 243.502 418.639 241.341 416.706C239.128 414.715 236.265 413.587 233.281 413.531C230.297 413.475 227.393 414.494 225.105 416.4ZM237.93 441.059C225.105 445.215 217.949 429.813 225.105 419.588C226.738 417.677 229.021 416.431 231.519 416.087C234.017 415.744 236.555 416.327 238.648 417.726C246.215 423.081 247.959 437.744 237.93 441.11V441.059ZM195.684 133.044C198.403 131.11 201.481 129.732 204.739 128.99C206.509 128.684 207.124 128.556 207.304 128.046C207.312 127.882 207.259 127.721 207.155 127.594C207.051 127.467 206.903 127.383 206.74 127.358C202.512 127.542 198.491 129.225 195.402 132.101C195.331 132.172 195.28 132.261 195.256 132.359C195.231 132.457 195.233 132.559 195.262 132.655C195.291 132.752 195.345 132.839 195.42 132.907C195.494 132.976 195.585 133.023 195.684 133.044ZM206.765 133.35C204.926 132.84 202.994 132.744 201.113 133.071C199.231 133.397 197.447 134.137 195.89 135.237C195.792 135.314 195.722 135.421 195.692 135.541C195.662 135.661 195.673 135.788 195.722 135.901C195.772 136.015 195.858 136.109 195.967 136.169C196.077 136.228 196.203 136.25 196.326 136.232C198.599 134.973 201.162 134.323 203.764 134.345C205.637 134.345 206.868 134.931 207.124 134.115C207.175 133.966 207.166 133.804 207.099 133.661C207.032 133.519 206.912 133.407 206.765 133.35ZM197.044 137.43C196.954 137.412 196.862 137.413 196.773 137.435C196.684 137.456 196.601 137.497 196.53 137.555C196.459 137.612 196.402 137.684 196.363 137.766C196.324 137.849 196.303 137.938 196.303 138.029C196.303 138.12 196.324 138.21 196.363 138.292C196.402 138.374 196.459 138.447 196.53 138.504C196.601 138.561 196.684 138.602 196.773 138.624C196.862 138.645 196.954 138.647 197.044 138.629C198.673 138.783 200.226 139.383 201.533 140.363C201.615 140.439 201.72 140.488 201.832 140.502C201.944 140.516 202.058 140.495 202.157 140.441C202.256 140.388 202.336 140.305 202.385 140.204C202.434 140.102 202.45 139.989 202.43 139.878C201.767 139.104 200.941 138.483 200.01 138.06C199.08 137.637 198.067 137.422 197.044 137.43ZM175.293 178.562C181.551 175.017 186.502 174.992 191.196 173.64C191.965 173.64 191.786 172.263 191.196 172.365C185.381 172.809 179.76 174.637 174.805 177.695C174.01 178.052 174.523 179.046 175.293 178.562ZM128.687 182.795C134.962 180.768 141.619 180.184 148.155 181.086C148.873 181.086 149.001 180.015 148.027 179.811C141.436 178.289 134.529 178.887 128.302 181.52C127.635 181.647 128.045 182.795 128.687 182.795Z" fill="white"/>
<path d="M135.74 188.226C139.379 186.239 143.295 184.804 147.36 183.967C148.201 185.442 149.445 186.651 150.947 187.454C152.449 188.257 154.148 188.622 155.85 188.506C156.287 189.883 157.126 191.099 158.261 192C159.218 192.852 160.393 193.425 161.657 193.656C162.921 193.887 164.224 193.766 165.423 193.307C166.622 192.848 167.671 192.069 168.453 191.055C169.235 190.042 169.72 188.833 169.855 187.563C171.633 187.416 173.331 186.764 174.746 185.683C176.16 184.602 177.232 183.139 177.832 181.468C190.016 181.009 191.452 181.111 196.89 180.499C197.736 180.499 197.659 179.199 196.89 179.097C190.64 179.046 184.394 179.403 178.191 180.168C178.257 179.968 178.309 179.763 178.345 179.556C178.399 179.423 178.424 179.281 178.417 179.138C178.411 178.995 178.373 178.855 178.307 178.727C178.242 178.6 178.149 178.489 178.036 178.4C177.922 178.312 177.791 178.249 177.651 178.215C177.511 178.182 177.366 178.179 177.225 178.207C177.083 178.234 176.95 178.292 176.833 178.376C176.716 178.459 176.619 178.567 176.548 178.692C176.477 178.816 176.434 178.954 176.421 179.097C176.371 179.549 176.267 179.994 176.113 180.423C175.472 180.423 174.498 180.423 174.549 181.111C174.6 181.8 175.19 181.57 175.652 181.57C175.171 182.528 174.493 183.374 173.662 184.055C172.832 184.736 171.867 185.236 170.83 185.523C167.598 186.237 165.11 184.273 163.135 179.581C166.187 175.45 164.776 173.895 163.135 174.481C162.596 174.66 163.135 174.609 160.364 174.609C157.594 174.609 157.286 177.031 159.415 178.944L160.621 179.938C160.057 183.279 158.8 186.823 155.286 186.9C154.072 186.874 152.879 186.573 151.799 186.021C150.72 185.468 149.78 184.679 149.053 183.712L150.053 183.534C150.72 183.534 151.105 182.31 149.617 182.31C144.39 182.293 139.288 183.897 135.022 186.9C134.935 186.947 134.857 187.01 134.794 187.087C134.731 187.164 134.684 187.252 134.656 187.347C134.627 187.441 134.618 187.541 134.628 187.639C134.638 187.737 134.667 187.833 134.714 187.92C134.762 188.007 134.825 188.084 134.903 188.146C134.98 188.209 135.068 188.256 135.164 188.284C135.259 188.313 135.359 188.322 135.458 188.312C135.557 188.302 135.653 188.273 135.74 188.226ZM162.057 181.545C162.521 182.891 163.289 184.113 164.303 185.116C165.317 186.12 166.55 186.879 167.905 187.333C167.905 187.716 167.905 188.098 167.752 188.455C167.442 189.245 166.945 189.949 166.302 190.506C165.66 191.064 164.891 191.458 164.062 191.656C163.233 191.854 162.368 191.85 161.541 191.643C160.714 191.436 159.949 191.034 159.313 190.47C158.531 189.823 157.9 189.013 157.466 188.098C158.713 187.464 159.784 186.535 160.585 185.392C161.386 184.249 161.891 182.928 162.057 181.545ZM136.33 150.996C137.202 150.996 137.382 149.542 139.973 147.936C141.251 147.267 142.591 146.72 143.974 146.304C145.051 145.641 144.59 143.754 142.076 144.315L140.845 144.774C138.576 145.81 136.756 147.619 135.715 149.874C135.661 149.987 135.635 150.11 135.639 150.235C135.642 150.359 135.675 150.481 135.735 150.591C135.795 150.7 135.881 150.794 135.984 150.864C136.087 150.935 136.206 150.98 136.33 150.996ZM177.473 142.275C178.12 142.262 178.767 142.331 179.397 142.479C180.78 142.85 182.114 143.38 183.372 144.06C185.937 144.06 182.269 140.209 177.678 140.107C176.767 140.018 175.855 140.262 175.113 140.796C173.805 142.122 175.677 142.708 177.473 142.275ZM153.105 293.158C153.34 293.121 153.553 293.001 153.707 292.821C153.862 292.641 153.946 292.413 153.946 292.177C153.946 291.94 153.862 291.712 153.707 291.532C153.553 291.352 153.34 291.233 153.105 291.195C152.871 291.233 152.657 291.352 152.503 291.532C152.349 291.712 152.265 291.94 152.265 292.177C152.265 292.413 152.349 292.641 152.503 292.821C152.657 293.001 152.871 293.121 153.105 293.158ZM160.364 294.535C160.599 294.498 160.812 294.378 160.966 294.198C161.12 294.018 161.205 293.79 161.205 293.554C161.205 293.317 161.12 293.089 160.966 292.909C160.812 292.729 160.599 292.61 160.364 292.572C160.005 292.572 159.261 293.005 159.415 293.745C159.465 293.961 159.585 294.156 159.756 294.299C159.928 294.441 160.141 294.524 160.364 294.535ZM168.059 290.379C168.275 290.343 168.47 290.232 168.611 290.066C168.752 289.901 168.829 289.691 168.829 289.474C168.829 289.257 168.752 289.047 168.611 288.881C168.47 288.715 168.275 288.604 168.059 288.568C167.844 288.604 167.649 288.715 167.508 288.881C167.367 289.047 167.289 289.257 167.289 289.474C167.289 289.691 167.367 289.901 167.508 290.066C167.649 290.232 167.844 290.343 168.059 290.379ZM171.702 295.3C171.933 295.3 172.155 295.209 172.318 295.046C172.482 294.884 172.574 294.663 172.574 294.433C172.574 294.203 172.482 293.983 172.318 293.82C172.155 293.658 171.933 293.566 171.702 293.566C171.47 293.566 171.249 293.658 171.085 293.82C170.921 293.983 170.83 294.203 170.83 294.433C170.83 294.663 170.921 294.884 171.085 295.046C171.249 295.209 171.47 295.3 171.702 295.3ZM181.167 288.109C181.167 287.886 181.077 287.672 180.919 287.514C180.76 287.357 180.545 287.268 180.32 287.268C180.096 287.268 179.88 287.357 179.722 287.514C179.563 287.672 179.474 287.886 179.474 288.109C179.474 288.333 179.563 288.547 179.722 288.704C179.88 288.862 180.096 288.951 180.32 288.951C180.545 288.951 180.76 288.862 180.919 288.704C181.077 288.547 181.167 288.333 181.167 288.109ZM188.015 294C188.179 293.957 188.324 293.861 188.428 293.727C188.531 293.593 188.588 293.429 188.588 293.26C188.588 293.092 188.531 292.928 188.428 292.794C188.324 292.66 188.179 292.564 188.015 292.521C187.9 292.52 187.786 292.547 187.682 292.598C187.579 292.648 187.488 292.723 187.419 292.814C187.349 292.906 187.302 293.012 187.281 293.125C187.259 293.238 187.265 293.354 187.297 293.464C187.338 293.622 187.431 293.76 187.561 293.857C187.692 293.955 187.852 294.005 188.015 294ZM203.354 291.577C203.713 291.577 204.252 291.22 204.098 290.634C203.944 290.047 203.585 289.996 203.354 290.073C203.177 290.105 203.017 290.198 202.902 290.336C202.787 290.473 202.724 290.646 202.724 290.825C202.724 291.004 202.787 291.177 202.902 291.314C203.017 291.452 203.177 291.545 203.354 291.577ZM206.637 285.406C206.868 285.406 207.09 285.315 207.254 285.153C207.417 284.99 207.509 284.769 207.509 284.539C207.509 284.309 207.417 284.089 207.254 283.926C207.09 283.764 206.868 283.672 206.637 283.672C206.406 283.672 206.184 283.764 206.02 283.926C205.857 284.089 205.765 284.309 205.765 284.539C205.765 284.769 205.857 284.99 206.02 285.153C206.184 285.315 206.406 285.406 206.637 285.406ZM195.325 288.9C195.557 288.9 195.778 288.809 195.942 288.646C196.106 288.483 196.197 288.263 196.197 288.033C196.197 287.803 196.106 287.582 195.942 287.42C195.778 287.257 195.557 287.166 195.325 287.166C195.094 287.166 194.872 287.257 194.709 287.42C194.545 287.582 194.453 287.803 194.453 288.033C194.453 288.263 194.545 288.483 194.709 288.646C194.872 288.809 195.094 288.9 195.325 288.9ZM149.386 298.513C149.525 298.513 149.661 298.482 149.786 298.422C149.911 298.362 150.02 298.275 150.106 298.167C150.192 298.059 150.253 297.934 150.284 297.799C150.315 297.665 150.315 297.526 150.284 297.391C150.268 297.223 150.198 297.065 150.084 296.939C149.971 296.814 149.82 296.727 149.654 296.693C149.487 296.659 149.314 296.679 149.16 296.749C149.006 296.82 148.878 296.938 148.796 297.085C148.714 297.213 148.664 297.358 148.651 297.509C148.637 297.66 148.66 297.812 148.718 297.952C148.776 298.092 148.867 298.216 148.983 298.314C149.099 298.411 149.238 298.48 149.386 298.513ZM192.837 386.208L152.156 394.648C149.601 395.184 147.347 396.667 145.854 398.797C144.361 400.927 143.741 403.543 144.12 406.111C144.5 408.68 145.85 411.008 147.896 412.621C149.942 414.234 152.53 415.011 155.132 414.793C156.26 414.793 152.952 415.023 196.864 406.098C198.295 405.963 199.682 405.532 200.935 404.83C202.187 404.129 203.277 403.173 204.135 402.026C204.992 400.879 205.597 399.565 205.911 398.171C206.225 396.776 206.241 395.332 205.957 393.93C205.674 392.529 205.097 391.203 204.265 390.038C203.432 388.873 202.363 387.894 201.126 387.166C199.889 386.438 198.512 385.977 197.084 385.811C195.656 385.646 194.209 385.781 192.837 386.208ZM196.403 403.752L155.85 412.192C153.908 412.466 151.934 411.991 150.331 410.866C148.729 409.74 147.62 408.049 147.23 406.138C146.84 404.226 147.2 402.239 148.234 400.582C149.269 398.926 150.902 397.724 152.798 397.224C183.244 390.823 191.555 389.038 193.838 388.63C195.794 388.388 197.77 388.882 199.379 390.014C200.988 391.146 202.113 392.836 202.533 394.75C202.901 396.738 202.463 398.79 201.314 400.457C200.165 402.125 198.4 403.272 196.403 403.65V403.752Z" fill="white"/>
<path d="M190.99 395.312C187.81 395.72 175.318 400.769 156.106 403.548C155.363 403.548 155.44 404.747 156.106 404.747C162.237 404.747 186.117 399.647 191.529 396.714C191.659 396.609 191.752 396.466 191.795 396.306C191.838 396.145 191.829 395.975 191.77 395.819C191.71 395.664 191.603 395.531 191.463 395.44C191.323 395.349 191.158 395.304 190.99 395.312ZM273.84 369.837C264.349 373.152 264.093 386.616 273.686 388.503C274.969 388.712 276.281 388.656 277.541 388.339C278.801 388.023 279.982 387.453 281.012 386.664C282.041 385.875 282.896 384.884 283.525 383.753C284.153 382.622 284.541 381.374 284.664 380.088C286.485 374.351 279.688 368.231 273.84 369.837ZM275.815 386.973C274.782 387.063 273.741 386.926 272.767 386.573C271.793 386.221 270.908 385.66 270.174 384.931C269.441 384.202 268.877 383.322 268.522 382.353C268.167 381.385 268.03 380.35 268.12 379.323C268.659 374.58 272.942 370.296 277.508 371.673C287.127 375.09 282.689 386.412 275.918 386.973H275.815Z" fill="white"/>
<path d="M273.455 376.391C272.731 376.443 272.049 376.75 271.532 377.257C270.557 378.711 271.301 379.807 272.737 379.807C272.532 381.822 272.301 384.27 274.097 384.372C274.712 384.372 277.38 383.862 278.816 383.556C278.986 383.57 279.157 383.549 279.319 383.494C279.48 383.439 279.628 383.351 279.754 383.236C279.879 383.121 279.979 382.981 280.047 382.825C280.116 382.67 280.151 382.502 280.15 382.332C280.15 381.465 280.15 382.893 279.868 379.272C280.586 379.272 280.919 378.941 280.945 378.354L280.791 376.799C280.788 376.688 280.763 376.579 280.717 376.478C280.671 376.378 280.606 376.287 280.525 376.211C280.444 376.135 280.349 376.076 280.245 376.037C280.141 375.998 280.03 375.979 279.919 375.982C279.227 375.982 278.201 376.11 278.201 376.11C278.201 376.11 279.329 375.753 279.483 374.963C279.535 374.771 279.533 374.57 279.479 374.38C279.425 374.189 279.32 374.017 279.176 373.881C279.031 373.745 278.852 373.651 278.658 373.608C278.464 373.565 278.261 373.574 278.072 373.637C277.64 373.87 277.259 374.186 276.951 374.567C276.643 374.948 276.414 375.386 276.277 375.855C274.43 372.515 271.557 374.58 273.455 376.391ZM278.149 379.323C278.149 380.496 278.329 380.981 278.431 381.873C277.482 381.873 275.097 382.587 274.199 382.714C274.17 382.571 274.17 382.424 274.199 382.281V379.731C275.503 379.489 276.824 379.352 278.149 379.323ZM252.371 372.744C244.676 371.903 239.546 379.655 241.675 386.667C242.479 388.653 243.883 390.342 245.693 391.502C247.503 392.662 249.63 393.236 251.781 393.144C263.58 392.379 264.606 373.917 252.371 372.744ZM257.501 388.707C255.925 390.359 253.754 391.321 251.465 391.384C249.176 391.446 246.956 390.602 245.292 389.039C243.945 387.682 243.085 385.922 242.845 384.031C242.606 382.14 243 380.223 243.966 378.576C244.933 376.93 246.418 375.647 248.193 374.924C249.967 374.202 251.931 374.081 253.782 374.58C255.177 375.026 256.435 375.818 257.437 376.881C258.44 377.943 259.154 379.242 259.513 380.655C259.873 382.067 259.864 383.547 259.49 384.956C259.116 386.364 258.387 387.655 257.373 388.707H257.501ZM290.872 373.586L294.847 375.371C293.642 377.436 292.539 379.502 291.564 381.465C291.449 381.651 291.412 381.875 291.462 382.088C291.513 382.301 291.646 382.485 291.834 382.6C292.021 382.715 292.246 382.751 292.46 382.701C292.674 382.651 292.859 382.518 292.975 382.332C294.181 380.522 295.54 378.558 296.848 376.263C298.208 376.951 298.669 377.105 301.209 378.15C301.75 378.491 302.399 378.618 303.03 378.507C303.157 378.469 303.273 378.403 303.37 378.312C303.466 378.221 303.54 378.11 303.585 377.986C303.63 377.861 303.645 377.729 303.628 377.598C303.612 377.467 303.565 377.342 303.491 377.232C302.902 376.493 302.85 376.595 297.848 374.682C299.105 372.515 301.542 369.353 299.824 368.817C298.567 368.435 297.259 371.367 295.796 373.917L291.513 372.183C290.513 371.622 289.948 373.203 290.872 373.586ZM195.633 352.293C190.657 352.982 182.372 355.251 167.187 358.209C145.308 362.493 146 361.906 138.716 363.87C138.558 363.912 138.418 364.005 138.319 364.134C138.22 364.263 138.166 364.421 138.166 364.584C138.166 364.747 138.22 364.905 138.319 365.034C138.418 365.163 138.558 365.256 138.716 365.298C143.435 365.298 187.066 356.654 195.992 354.129C196.21 354.056 196.394 353.907 196.51 353.709C196.625 353.512 196.665 353.279 196.621 353.055C196.577 352.83 196.453 352.629 196.271 352.489C196.089 352.349 195.863 352.279 195.633 352.293ZM218.436 333.602C226.131 332.174 234.467 331.052 242.188 329.216C243.163 329.216 243.086 327.507 242.188 327.609C227.362 329.088 136.433 347.295 135.074 349.564C133.355 352.344 155.209 345 218.436 333.602ZM261.143 335.132C257.963 333.066 254.269 334.953 252.217 337.937C248.626 344.337 249.909 350.33 252.474 357.24C252.217 357.24 140.229 379.374 140.05 379.757C139.87 380.139 140.05 380.725 140.563 380.725C147.77 380.725 244.214 361.575 253.166 359C253.907 360.919 254.763 362.793 255.731 364.61C255.832 364.778 255.974 364.918 256.145 365.016C256.316 365.114 256.509 365.168 256.706 365.171C257.937 365.171 268.71 357.801 271.224 356.016C274.866 353.466 278.611 350.661 279.175 346.173C280.15 338.268 269.685 336.432 264.478 341.073C264.191 338.735 262.994 336.602 261.143 335.132ZM77.2072 58.9155C75.6736 58.0198 73.9247 57.5536 72.1461 57.5665C70.3675 57.5794 68.6256 58.0708 67.1053 58.9886C65.5851 59.9064 64.3432 61.2164 63.5114 62.7794C62.6797 64.3424 62.2893 66.1001 62.3815 67.866C62.2982 67.9764 62.2532 68.1106 62.2532 68.2485C62.2532 68.3864 62.2982 68.5207 62.3815 68.631C63.6072 70.127 65.2124 71.2705 67.0313 71.9434C68.8502 72.6164 70.8168 72.7944 72.728 72.4591C74.6393 72.1238 76.4258 71.2873 77.9032 70.0361C79.3805 68.7848 80.495 67.1642 81.1316 65.3415C81.8242 64.7805 81.4138 64.0665 81.3112 63.735C80.6292 61.6571 79.1561 59.9272 77.2072 58.9155ZM63.5101 68.0445C63.5865 66.3641 64.1337 64.7383 65.09 63.3505C66.0463 61.9628 67.3736 60.8683 68.9222 60.1905C65.5364 62.7405 66.5881 69.906 70.6408 70.62C68.0235 70.6784 65.4793 69.7595 63.5101 68.0445ZM73.1545 70.212C74.0824 69.521 74.809 68.5973 75.2597 67.5354C75.7104 66.4734 75.8691 65.3115 75.7195 64.1685C75.6376 63.131 75.2684 62.1362 74.6526 61.2945C74.0369 60.4528 73.1988 59.7971 72.2311 59.4C73.7271 59.4069 75.1885 59.8471 76.4368 60.6669C77.685 61.4866 78.6658 62.6503 79.2592 64.0155C78.8282 65.4493 78.0585 66.7599 77.0144 67.8378C75.9703 68.9157 74.682 69.7298 73.2571 70.212H73.1545ZM90.3143 55.4985C90.2662 55.2873 90.1446 55.0999 89.971 54.9692C89.7973 54.8386 89.5828 54.7731 89.3653 54.7845C87.7493 54.7845 88.9805 56.7225 86.8003 62.664C86.754 62.8114 86.7589 62.9699 86.8142 63.1142C86.8695 63.2585 86.9719 63.3801 87.1051 63.4595C87.2382 63.5389 87.3944 63.5715 87.5484 63.5521C87.7025 63.5327 87.8455 63.4624 87.9545 63.3525C88.5201 62.3979 88.9679 61.3791 89.2883 60.318C89.75 62.6895 90.2374 64.9845 90.7247 67.1775C90.7551 67.3081 90.8109 67.4315 90.8892 67.5406C90.9675 67.6497 91.0666 67.7425 91.181 67.8135C91.2953 67.8845 91.4226 67.9325 91.5555 67.9546C91.6885 67.9768 91.8246 67.9726 91.9559 67.9425C92.0873 67.9124 92.2114 67.8568 92.3212 67.779C92.431 67.7012 92.5242 67.6026 92.5957 67.4889C92.6671 67.3753 92.7154 67.2488 92.7376 67.1166C92.7599 66.9844 92.7558 66.8491 92.7254 66.7185C92.0072 63.0465 91.1864 59.4 90.3143 55.4985ZM106.32 62.46C103.986 62.868 102.524 63.1485 100.703 63.633C102.537 61.3038 103.579 58.4551 103.678 55.4985C103.609 54.679 103.289 53.9002 102.762 53.2666C102.235 52.633 101.525 52.1749 100.728 51.954C99.9849 51.6866 99.1771 51.6517 98.4133 51.854C97.6494 52.0563 96.9661 52.4861 96.4551 53.0857C95.9442 53.6853 95.63 54.426 95.5547 55.2083C95.4795 55.9906 95.6468 56.777 96.0343 57.462C96.2138 58.2015 97.4707 57.462 97.2911 57.0285C97.0655 56.4119 97.0624 55.7365 97.2823 55.1179C97.5022 54.4993 97.9315 53.9758 98.4967 53.637C99.0738 53.4007 99.7178 53.3816 100.308 53.5835C100.898 53.7853 101.394 54.1942 101.703 54.7335C101.909 55.604 101.929 56.508 101.761 57.3866C101.593 58.2653 101.241 59.099 100.728 59.8335C98.3428 64.5255 96.6242 64.9335 97.6502 66.0045C97.762 66.1248 97.9048 66.2122 98.0631 66.2572C98.2215 66.3021 98.3892 66.3029 98.548 66.2595C101.366 65.8728 104.152 65.2848 106.884 64.5C107.092 64.3775 107.254 64.1902 107.345 63.9672C107.436 63.7442 107.45 63.4977 107.386 63.2658C107.322 63.0338 107.182 62.8293 106.99 62.6837C106.797 62.5381 106.562 62.4595 106.32 62.46ZM117.58 59.8335C117.95 58.7679 117.971 57.6131 117.639 56.5351C117.307 55.4572 116.64 54.5116 115.734 53.8343C114.827 53.157 113.728 52.7829 112.594 52.7658C111.46 52.7486 110.35 53.0894 109.424 53.739C109.258 52.9801 108.945 52.2609 108.5 51.6225C110.469 51.3783 112.39 50.8365 114.194 50.016C114.433 49.9706 114.655 49.861 114.836 49.6992C115.017 49.5374 115.15 49.3295 115.22 49.098C115.261 48.9041 115.242 48.7023 115.164 48.5199C115.086 48.3375 114.953 48.1833 114.784 48.078C114.066 47.6445 113.22 48.231 112.655 48.4605C102.395 52.362 108.09 49.353 107.885 55.677C107.889 55.8723 107.957 56.0609 108.077 56.2155C108.197 56.3701 108.363 56.4826 108.552 56.5367C108.741 56.5907 108.942 56.5834 109.127 56.516C109.311 56.4485 109.469 56.3243 109.577 56.1615C109.641 56.0982 109.685 56.0188 109.706 55.932C110.216 55.2337 110.976 54.7552 111.829 54.5941C112.682 54.4331 113.565 54.6014 114.297 55.065C114.792 55.4255 115.186 55.9069 115.439 56.4627C115.692 57.0186 115.797 57.63 115.742 58.2378C115.688 58.8456 115.477 59.4292 115.13 59.9321C114.782 60.435 114.31 60.8402 113.758 61.1085C112.45 61.5971 111.04 61.7548 109.654 61.5675C108.885 61.5675 108.526 62.358 109.039 62.817C109.763 63.3225 110.599 63.6489 111.476 63.769C112.353 63.8892 113.246 63.7997 114.081 63.508C114.916 63.2163 115.669 62.7308 116.278 62.0917C116.886 61.4526 117.333 60.6785 117.58 59.8335ZM120.274 56.034C121.899 55.8466 123.505 55.5137 125.07 55.0395C125.107 56.7709 125.392 58.4882 125.917 60.1395C126.019 60.2857 126.16 60.4011 126.324 60.4728C126.488 60.5446 126.669 60.57 126.846 60.5463C127.024 60.5226 127.191 60.4506 127.331 60.3384C127.47 60.2261 127.575 60.0779 127.635 59.91C127.784 58.0703 127.584 56.2192 127.045 54.453C127.997 54.3193 128.889 53.9115 129.61 53.28C129.705 53.1595 129.768 53.0167 129.791 52.8652C129.815 52.7138 129.799 52.5589 129.745 52.4155C129.69 52.272 129.6 52.1448 129.482 52.0461C129.364 51.9474 129.223 51.8806 129.071 51.852C125.942 51.444 126.943 53.8665 126.122 49.863C126.122 49.6534 126.038 49.4523 125.889 49.304C125.74 49.1558 125.537 49.0725 125.327 49.0725C125.116 49.0725 124.913 49.1558 124.764 49.304C124.615 49.4523 124.531 49.6534 124.531 49.863C124.531 50.271 124.531 50.0925 124.711 52.719C123.788 52.974 122.967 53.28 122.146 53.6115C121.325 53.943 122.762 50.832 123.069 46.8285C123.072 46.6958 123.026 46.5666 122.942 46.4639C122.857 46.3612 122.739 46.2916 122.608 46.2675C121.684 46.089 121.659 47.058 119.812 54.81C119.715 55.0338 119.709 55.2862 119.795 55.5144C119.881 55.7425 120.052 55.9287 120.274 56.034Z" fill="white"/>
<path d="M135.33 56.6206C140.947 56.6206 142.23 47.3641 136.792 43.4371C134.047 41.4736 131.329 41.9581 130.097 45.1456C128.558 49.4551 130.867 56.6206 135.33 56.6206ZM136.689 46.4206C138.87 49.1746 138.305 53.6371 135.817 54.5551C133.329 55.4731 131.226 51.4696 131.431 47.8741C131.765 42.9526 134.843 43.8706 136.766 46.3186L136.689 46.4206Z" fill="white"/>
<path d="M146.206 54.2999C152.49 54.2999 153.901 43.8449 148.36 40.2239C147.852 39.8369 147.262 39.5688 146.635 39.4397C146.008 39.3106 145.36 39.3237 144.739 39.4781C144.118 39.6325 143.539 39.9242 143.047 40.3314C142.555 40.7387 142.162 41.2511 141.896 41.8304C141.211 42.8385 140.804 44.0081 140.716 45.2219C139.742 49.1999 141.999 54.2999 146.206 54.2999ZM142.743 43.3349C142.888 42.9243 143.118 42.5485 143.418 42.2318C143.718 41.9152 144.082 41.6646 144.486 41.4964C144.889 41.3282 145.324 41.246 145.762 41.2552C146.199 41.2644 146.63 41.3648 147.026 41.5499C151.053 44.0999 150.258 53.5859 144.615 51.7499C143.803 51.182 143.155 50.412 142.737 49.5169C142.318 48.6219 142.143 47.6332 142.23 46.6499C142.212 45.5241 142.385 44.4033 142.743 43.3349ZM154.26 49.9394C154.747 49.9394 153.695 49.9394 157.158 49.4294C159.005 49.1489 158.723 49.1999 161.365 48.6644C162.286 48.6265 163.176 48.3255 163.93 47.7974C164.141 47.5829 164.26 47.2945 164.26 46.9942C164.26 46.6938 164.141 46.4054 163.93 46.1909C163.314 45.5789 161.775 45.8084 160.98 46.1909C158.184 46.8029 158.569 46.7009 156.825 47.1854C158.144 45.1258 159.017 42.8159 159.39 40.4024C159.723 37.8524 157.569 35.5829 155.465 36.2969C155.043 36.4176 154.668 36.6639 154.39 37.0027C154.112 37.3415 153.946 37.7566 153.912 38.1924C153.879 38.6281 153.98 39.0636 154.202 39.4404C154.425 39.8172 154.758 40.1173 155.157 40.3004C156.568 40.9124 156.645 39.2039 156.081 39.1274C155.955 39.0923 155.844 39.0146 155.77 38.9075C155.695 38.8005 155.66 38.6709 155.67 38.5409C155.67 37.6484 156.543 37.6994 157.03 38.1329C159.108 40.1474 155.696 45.9104 153.541 48.3329C153.445 48.4792 153.387 48.6472 153.373 48.8216C153.358 48.9959 153.388 49.1711 153.46 49.3309C153.531 49.4908 153.642 49.6302 153.782 49.7365C153.921 49.8429 154.086 49.9126 154.26 49.9394ZM166.29 43.1819C167.187 43.1819 166.931 42.6719 168.162 38.4389C169.957 46.0889 170.06 46.5734 170.983 47.0069C171.123 47.1144 171.294 47.1728 171.471 47.1728C171.647 47.1728 171.819 47.1144 171.958 47.0069C172.625 46.1144 172.343 45.7064 170.624 39.6884C169.188 34.7159 169.188 34.4609 168.213 34.4354C168.032 34.4448 167.859 34.5157 167.724 34.6363C167.588 34.7569 167.498 34.92 167.469 35.0984C166.982 37.4699 166.341 39.7904 165.597 42.3659C165.6 42.5606 165.67 42.7483 165.796 42.8971C165.923 43.0459 166.097 43.1465 166.29 43.1819ZM247.036 318.888L250.396 322.101C251.191 323.095 253.166 325.084 254.423 325.084C255.68 325.084 256.988 323.325 257.911 321.948C260.257 319.278 262.052 316.177 263.195 312.819C264.349 306.877 256.808 302.262 253.089 310.269C250.293 305.883 239.7 307.183 241.906 312.819C243.122 315.208 244.878 317.285 247.036 318.888ZM333.912 146.661C333.063 146.109 332.056 145.845 331.044 145.909C330.031 145.974 329.067 146.363 328.295 147.018C326.453 148.893 325.135 151.213 324.473 153.75C323.081 156.954 321.865 160.232 320.831 163.567C320.343 165.633 321.498 165.633 321.959 165.25C326.525 165.607 341.71 162.139 341.376 157.039C341.116 155.839 340.4 154.785 339.378 154.096C338.355 153.407 337.105 153.137 335.887 153.342C336.262 152.159 336.275 150.892 335.923 149.702C335.571 148.513 334.871 147.454 333.912 146.661ZM333.322 231.601C336.965 226.68 340.273 220.84 339.581 214.159C339.512 212.402 339.053 210.681 338.237 209.121C337.421 207.56 336.268 206.198 334.861 205.132C331.629 203.22 327.961 205.974 325.499 207.835C313.033 217.168 309.16 233.055 305.672 246.672C304.953 249.553 304.184 252.511 303.748 255.418C302.132 260.952 306.492 262.099 310.212 262.405C321.215 263.247 337.324 257.05 348.456 253.939C353.842 252.435 362.871 249.91 362.717 242.107C362.615 233.514 347.225 225.558 333.322 231.601ZM318.958 143.167C319.054 143.294 319.178 143.397 319.32 143.468C319.463 143.539 319.62 143.575 319.779 143.575C319.938 143.575 320.095 143.539 320.238 143.468C320.38 143.397 320.504 143.294 320.6 143.167C328.093 132.23 334.796 120.777 340.658 108.895C345.403 98.6954 339.632 85.5629 328.834 87.8834C324.422 88.9034 320.6 92.2949 317.496 97.9559C316.442 94.4051 314.066 91.3869 310.853 89.5154C300.208 83.5484 288.076 95.0234 293.95 105.606C300.777 119.057 309.171 131.664 318.958 143.167ZM145.59 162.114C145.609 162.827 145.704 163.537 145.872 164.23C146.026 165.76 146.231 167.392 147.77 167.392C147.972 167.386 148.171 167.34 148.355 167.257C148.54 167.174 148.706 167.055 148.844 166.908C148.982 166.762 149.09 166.589 149.161 166.401C149.232 166.213 149.265 166.012 149.258 165.811C149.016 164.429 148.647 163.072 148.155 161.757C148.03 161.499 147.826 161.287 147.572 161.151C147.318 161.016 147.027 160.964 146.741 161.004C146.456 161.044 146.19 161.173 145.984 161.372C145.777 161.572 145.639 161.831 145.59 162.114ZM175.011 157.983C174.734 157.775 174.39 157.676 174.045 157.704C173.7 157.733 173.377 157.886 173.138 158.136C172.035 158.646 171.856 164.613 174.292 164.613C174.664 164.624 175.027 164.501 175.315 164.267C175.603 164.033 175.795 163.703 175.857 163.338C175.857 162.19 175.703 162.318 175.703 161.553C175.703 158.85 175.498 158.365 175.011 157.983ZM256.449 379.119C255.295 377.002 252.268 377.665 251.319 379.858C251.075 379.546 250.769 379.286 250.421 379.095C250.072 378.904 249.688 378.786 249.292 378.748C248.895 378.709 248.495 378.752 248.116 378.873C247.737 378.994 247.387 379.19 247.087 379.45C246.657 379.837 246.316 380.312 246.088 380.841C245.859 381.371 245.748 381.944 245.763 382.52C245.778 383.096 245.917 383.663 246.172 384.18C246.427 384.698 246.792 385.155 247.241 385.519C248.78 386.608 250.42 387.548 252.14 388.324C252.408 388.501 252.717 388.607 253.038 388.63C253.756 388.63 254.064 387.483 254.346 386.947C256.09 383.403 257.244 381.541 256.449 379.119ZM223.925 385.978C224.361 388.528 224.746 391.384 224.925 392.226L229.799 391.104C230.158 391.104 230.184 391.282 228.901 385.06C227.216 385.203 225.549 385.51 223.925 385.978Z" fill="white"/>
<path d="M224.181 379.272C222.324 379.999 220.7 381.213 219.48 382.785C218.261 384.356 217.492 386.226 217.256 388.197C217.04 389.443 217.1 390.72 217.43 391.941C217.76 393.161 218.353 394.296 219.168 395.266C219.982 396.236 221 397.019 222.149 397.559C223.298 398.1 224.552 398.386 225.823 398.397C227.795 398.311 229.71 397.721 231.386 396.685C233.062 395.649 234.441 394.201 235.391 392.481C238.263 385.8 231.902 377.13 224.181 379.272ZM231.876 391.461V391.818C231.312 393.195 230.491 393.322 225.951 394.113L225.233 394.241C224.964 394.328 224.679 394.359 224.396 394.333C224.114 394.307 223.84 394.223 223.592 394.088C223.39 393.956 223.222 393.779 223.101 393.57C222.981 393.362 222.912 393.129 222.899 392.889C222.899 392.634 222.899 391.895 222.694 390.951C222.402 389.266 222.24 387.561 222.206 385.851C222.104 385.527 222.104 385.18 222.206 384.857C222.295 384.655 222.429 384.477 222.598 384.335C222.767 384.194 222.966 384.093 223.181 384.041C225.086 383.543 227.023 383.177 228.978 382.944C229.319 382.939 229.652 383.042 229.93 383.24C230.207 383.437 230.413 383.718 230.517 384.041C231.004 386.438 231.287 387.942 231.492 388.937C231.767 389.749 231.897 390.604 231.876 391.461Z" fill="white"/>
</svg>
