<svg width="55" height="55" viewBox="0 0 55 55" fill="none" xmlns="http://www.w3.org/2000/svg">
<path d="M27.502 0C20.0334 0 19.0961 0.0326568 16.1627 0.166146C13.2351 0.300209 11.2367 0.763698 9.48817 1.44375C7.67946 2.14615 6.14517 3.08573 4.61661 4.61484C3.08691 6.14339 2.14731 7.67766 1.44262 9.48578C0.760841 11.2349 0.296774 13.2338 0.165002 16.1603C0.0343754 19.0936 0 20.0315 0 27.5C0 34.9685 0.03323 35.903 0.166148 38.8363C0.300785 41.7639 0.764279 43.7622 1.44377 45.5108C2.14674 47.3195 3.08633 48.8538 4.61547 50.3823C6.14345 51.912 7.67774 52.8539 9.48531 53.5563C11.235 54.2363 13.2339 54.6998 16.161 54.8339C19.0944 54.9673 20.0311 55 27.4991 55C34.9683 55 35.9028 54.9673 38.8361 54.8339C41.7638 54.6998 43.7644 54.2363 45.5141 53.5563C47.3223 52.8539 48.8543 51.912 50.3823 50.3823C51.912 48.8538 52.8515 47.3195 53.5562 45.5114C54.2323 43.7622 54.6964 41.7633 54.8339 38.8369C54.9656 35.9035 55 34.9685 55 27.5C55 20.0315 54.9656 19.0942 54.8339 16.1608C54.6964 13.2332 54.2323 11.2349 53.5562 9.48635C52.8515 7.67766 51.912 6.14339 50.3823 4.61484C48.8525 3.08516 47.3228 2.14557 45.5124 1.44375C43.7593 0.763698 41.7598 0.300209 38.8321 0.166146C35.8988 0.0326568 34.9649 0 27.494 0H27.502ZM25.035 4.95573C25.7672 4.95458 26.5842 4.95573 27.502 4.95573C34.8446 4.95573 35.7149 4.98208 38.6144 5.11385C41.2957 5.23646 42.7509 5.68448 43.7203 6.06089C45.0037 6.55932 45.9186 7.15516 46.8805 8.11766C47.8431 9.08016 48.4389 9.99682 48.9385 11.2802C49.3149 12.2484 49.7635 13.7036 49.8855 16.3848C50.0173 19.2838 50.0459 20.1546 50.0459 27.4937C50.0459 34.8328 50.0173 35.7036 49.8855 38.6026C49.7629 41.2838 49.3149 42.739 48.9385 43.7072C48.44 44.9906 47.8431 45.9044 46.8805 46.8663C45.918 47.8288 45.0042 48.4246 43.7203 48.9231C42.7521 49.3012 41.2957 49.7481 38.6144 49.8707C35.7154 50.0024 34.8446 50.0311 27.502 50.0311C20.1589 50.0311 19.2886 50.0024 16.3896 49.8707C13.7083 49.7469 12.2531 49.2989 11.2831 48.9225C9.99979 48.4241 9.08312 47.8282 8.12061 46.8657C7.1581 45.9032 6.56226 44.9889 6.06267 43.705C5.68626 42.7367 5.23766 41.2815 5.11563 38.6003C4.98386 35.7013 4.9575 34.8305 4.9575 27.4868C4.9575 20.1432 4.98386 19.2769 5.11563 16.378C5.23823 13.6967 5.68626 12.2415 6.06267 11.2721C6.56111 9.9888 7.1581 9.07214 8.12061 8.10964C9.08312 7.14714 9.99979 6.5513 11.2831 6.05172C12.2525 5.67359 13.7083 5.22672 16.3896 5.10354C18.9265 4.98896 19.9096 4.95458 25.035 4.94885V4.95573Z" fill="white"/>
<path d="M42.1223 9.45432C41.4696 9.45432 40.8315 9.64789 40.2888 10.0106C39.7461 10.3732 39.3231 10.8887 39.0734 11.4917C38.8236 12.0948 38.7583 12.7584 38.8858 13.3985C39.0132 14.0387 39.3276 14.6267 39.7892 15.0882C40.2509 15.5497 40.839 15.8639 41.4792 15.9911C42.1194 16.1183 42.783 16.0527 43.386 15.8028C43.9889 15.5529 44.5043 15.1297 44.8667 14.5869C45.2292 14.044 45.4226 13.4059 45.4223 12.7532C45.4223 10.9313 43.9442 9.45432 42.1223 9.45432Z" fill="white"/>
<path fill-rule="evenodd" clip-rule="evenodd" d="M27.4429 13.3101C19.6437 13.3101 13.3203 19.6333 13.3203 27.4324C13.3203 35.2316 19.6437 41.552 27.4429 41.552C35.2421 41.552 41.5637 35.2316 41.5637 27.4324C41.5637 19.6333 35.2421 13.3101 27.4429 13.3101ZM27.5 36.5235C32.4835 36.5235 36.5235 32.4836 36.5235 27.5001C36.5235 22.5165 32.4835 18.4766 27.5 18.4766C22.5165 18.4766 18.4766 22.5165 18.4766 27.5001C18.4766 32.4836 22.5165 36.5235 27.5 36.5235Z" fill="white"/>
</svg>
