<svg width="55" height="55" viewBox="0 0 55 55" fill="none" xmlns="http://www.w3.org/2000/svg">
<path fill-rule="evenodd" clip-rule="evenodd" d="M14.8743 42.7661C16.1069 43.3407 17.4796 43.6407 18.8731 43.6402C23.5147 43.6402 27.3039 40.3777 27.475 36.3115L27.4921 0L37.7449 0C37.7458 0.771243 37.8269 1.54078 37.9872 2.29891L30.4802 2.29891V2.30017L40.7342 2.30017C40.7328 5.33916 41.9793 8.27539 44.2427 10.5636L44.2455 10.5666C46.5542 11.8993 49.2527 12.6078 52.0105 12.6055V14.6234C52.9757 14.806 53.9736 14.9033 55 14.9033V23.9653C49.8811 23.9706 44.8903 22.5524 40.7344 19.9117V38.3245C40.7344 47.5187 32.2678 55 21.8611 55C19.2696 55.0006 16.7058 54.5281 14.3305 53.6123C11.9568 52.6972 9.82264 51.359 8.0612 49.6815L8.05733 49.6791C3.19042 46.6597 0 41.6663 0 36.0255C0 26.8298 8.46646 19.3474 18.8731 19.3474C19.7241 19.3509 20.5737 19.4057 21.4164 19.5111V21.6564C21.4756 21.6553 21.5345 21.6535 21.5936 21.6518C21.6823 21.649 21.7713 21.6463 21.8611 21.6463C22.7121 21.6498 23.5618 21.7046 24.4043 21.81V31.0599C23.6003 30.8369 22.7493 30.7071 21.8611 30.7071C19.5758 30.7095 17.3848 31.5128 15.769 32.9409C14.1531 34.3689 13.2443 36.305 13.2421 38.3243C13.2423 39.9193 13.8127 41.4736 14.8721 42.765L14.8743 42.7661ZM4.23291 44.2747C5.10881 46.2912 6.41599 48.1205 8.05317 49.6752C6.38266 48.0956 5.09273 46.2584 4.23291 44.2747Z" fill="white"/>
</svg>
