<svg width="55" height="55" viewBox="0 0 55 55" fill="none" xmlns="http://www.w3.org/2000/svg">
<path fill-rule="evenodd" clip-rule="evenodd" d="M27.5 0C42.6878 0 55 12.3122 55 27.5C55 42.6878 42.6878 55 27.5 55C12.3122 55 0 42.6878 0 27.5C0 12.3122 12.3122 0 27.5 0ZM12.9894 15.2801C15.8984 14.5242 27.4885 14.5242 27.4885 14.5242C27.4885 14.5242 39.1016 14.5242 42.0105 15.3259C43.591 15.7382 44.8506 16.9978 45.2629 18.5783C46.0646 21.4873 46.0417 27.5344 46.0417 27.5344C46.0417 27.5344 46.0417 33.5586 45.2629 36.4447C44.8506 38.0481 43.591 39.2848 42.0105 39.72C39.1016 40.4759 27.4885 40.4759 27.4885 40.4759C27.4885 40.4759 15.9213 40.4759 12.9894 39.6971C11.409 39.2619 10.1494 38.0022 9.71415 36.4218C8.95827 33.5586 8.95826 27.5115 8.95826 27.5115C8.95826 27.5115 8.95827 21.4873 9.71415 18.5783C10.1494 16.9978 11.4319 15.7153 12.9894 15.2801ZM33.444 27.5115L23.8007 21.9456V33.0545L33.444 27.5115Z" fill="white"/>
</svg>
