<svg width="513" height="420" viewBox="0 0 513 420" fill="none" xmlns="http://www.w3.org/2000/svg">
<path d="M383.493 306.536C387.11 303.348 390.752 299.982 390.008 295.316C389.627 292.823 388.276 290.579 386.247 289.067C384.217 287.555 381.672 286.896 379.158 287.232L364.999 224.069C366.051 225.344 366.179 225.803 366.872 225.803C367.044 225.803 367.213 225.761 367.365 225.681C367.517 225.601 367.647 225.485 367.744 225.344C371.798 219.716 375.433 213.801 378.62 207.647C384.416 198.467 374.644 193.418 369.257 202.547C368.826 201.008 368.072 199.577 367.047 198.346C366.022 197.116 364.747 196.114 363.307 195.407C361.78 194.87 360.114 194.87 358.587 195.407L322.241 33.4051C320.654 26.4518 316.365 20.4047 310.311 16.583C304.256 12.7612 296.927 11.4751 289.922 13.0051C192.067 34.5781 129.43 47.8126 123.12 49.2661C108.217 52.7341 97.4699 82.4161 100.804 96.7726L131.507 233.223C131.324 233.072 131.092 232.989 130.853 232.989C130.615 232.989 130.383 233.072 130.199 233.223C105.832 250.92 88.9798 279.123 80.977 307.428C68.7163 350.345 77.7451 399.228 93.4172 440.844C96.6894 450.131 101.425 458.841 107.448 466.65C108.063 467.441 109.346 466.472 108.807 465.656C98.342 449.846 93.6224 436.305 88.0307 416.823C78.0272 383.214 73.9232 347.361 82.0543 313.14C95.777 257.729 130.533 236.793 131.867 234.855L142.999 284.555C132.815 295.682 124.539 308.397 118.503 322.193C118.016 323.289 119.016 323.774 119.606 322.575C129.179 302.912 142.885 285.52 159.799 271.575C168.905 264.206 178.729 256.811 189.964 254.796C194.587 253.933 199.361 254.384 203.738 256.097C221.231 263.186 215.537 282.03 205.995 298.274C183.526 336.524 181.32 340.502 178.19 349.095C171.855 368.271 178.19 384.795 181.268 403.971C188.476 447.627 171.547 462.239 168.059 467.211C166.674 469.226 168.29 469.608 168.931 469.073C174.125 464.649 178.164 459.04 180.704 452.727L186.014 476.468C186.79 479.953 188.251 483.251 190.312 486.174C192.374 489.097 194.995 491.587 198.026 493.501C201.057 495.415 204.438 496.716 207.975 497.329C211.513 497.941 215.137 497.854 218.641 497.072L381.646 460.964C395.215 457.853 411.4 435.056 407.937 417.741C407.835 414.018 409.63 423.045 383.493 306.536ZM152.438 274.967L108.833 80.7076C107.491 74.7754 108.442 68.5586 111.498 63.2914C114.553 58.0242 119.489 54.0919 125.326 52.2751C126.301 51.9436 288.691 15.5806 290.409 15.1981C293.581 14.4959 296.861 14.4235 300.061 14.985C303.261 15.5464 306.318 16.7307 309.056 18.4698C311.795 20.2089 314.161 22.4686 316.018 25.1191C317.876 27.7696 319.189 30.7589 319.881 33.9151L356.381 196.682C355.372 197.493 354.602 198.558 354.149 199.767C351.123 206.576 357.022 213.869 361.588 219.836L376.798 287.691C375.138 288.216 373.608 289.085 372.31 290.241C372.13 284.147 369.616 278.639 363.871 278.282L359.254 257.627C362.306 250.487 363.563 248.217 364.563 242.582C364.854 241.032 364.766 239.435 364.307 237.927C363.848 236.418 363.031 235.041 361.925 233.911C360.819 232.781 359.456 231.932 357.951 231.436C356.446 230.939 354.843 230.808 353.277 231.056L312.237 47.4556C310.824 41.3513 307.041 36.0498 301.712 32.7063C296.384 29.3628 289.943 28.2483 283.792 29.6056L141.075 61.0471C134.938 62.4585 129.61 66.2208 126.248 71.5161C122.886 76.8114 121.762 83.212 123.12 89.3266L162.852 266.552C159.03 269.204 155.695 271.983 152.438 274.967ZM197.505 252.246C185.244 250.946 174.42 258.009 164.622 264.996L125.095 88.8421C123.872 83.3075 124.904 77.5165 127.967 72.7371C131.029 67.9578 135.872 64.5795 141.434 63.3421C295.975 28.9936 285.433 31.1866 288.896 31.1611C293.805 31.1533 298.569 32.8163 302.395 35.8735C306.222 38.9307 308.88 43.1979 309.929 47.9656L350.969 231.566C344.146 233.376 340.247 240.797 339.349 246.866C334.809 240.618 326.371 237.941 321.394 244.01C320.264 245.924 319.724 248.127 319.842 250.344C319.961 252.561 320.733 254.695 322.061 256.479C323.983 259.186 326.11 261.743 328.423 264.129L314.905 268.005C313.956 254.694 306.825 230.775 292.692 211.319C290.242 207.568 287.026 204.371 283.253 201.935C287.855 197.715 291.713 192.759 294.667 187.272C294.786 187.067 294.834 186.827 294.802 186.592C294.769 186.357 294.659 186.139 294.489 185.973C294.319 185.807 294.098 185.701 293.861 185.673C293.624 185.645 293.384 185.696 293.179 185.819C292.615 186.176 292 186.507 291.41 186.813C292.192 185.632 292.797 184.343 293.205 182.988C293.244 182.81 293.236 182.625 293.181 182.45C293.126 182.276 293.026 182.12 292.891 181.996C292.756 181.872 292.591 181.786 292.412 181.745C292.233 181.704 292.047 181.711 291.871 181.764C289.306 182.81 287.177 180.107 286.51 177.404C284.587 169.448 286.51 166.082 281.868 156.392C285.841 149.828 288.295 142.468 289.05 134.844C289.511 133.162 289.43 131.378 288.819 129.744C288.389 129.019 287.734 128.453 286.952 128.131C286.17 127.809 285.304 127.748 284.484 127.959C278.324 129.04 272.359 131.025 266.786 133.85C267.606 127.398 268.607 121.304 268.812 115.184C273.172 113.271 285.305 107.789 282.766 97.5121C281.457 92.1316 274.07 85.3741 268.222 87.0826C268.538 83.6862 267.667 80.2853 265.756 77.4523C263.845 74.6193 261.011 72.527 257.731 71.5276C254.036 70.7129 250.173 71.1396 246.748 72.7408C243.322 74.3419 240.528 77.0272 238.801 80.3761C236.192 77.3927 233.031 74.9343 229.49 73.1341C226.819 72.007 223.901 71.5836 221.018 71.9047C218.134 72.2258 215.382 73.2806 213.028 74.9673C210.674 76.6539 208.797 78.9154 207.579 81.5334C206.36 84.1514 205.841 87.0375 206.072 89.9131C197.684 88.0261 188.297 93.6361 188.758 102.663C188.825 104.723 189.406 106.734 190.45 108.514C191.493 110.295 192.965 111.789 194.735 112.863C197.125 113.853 199.608 114.605 202.148 115.107C203.557 115.587 204.83 116.396 205.861 117.465C206.891 118.534 207.65 119.833 208.073 121.253C210.671 128.339 212.729 135.61 214.229 143.004C214.229 143.259 214.665 142.494 212.382 144.917C210.586 143.19 208.637 141.628 206.559 140.25C204.277 138.389 202.199 136.731 200.07 135.15C186.398 124.593 185.911 145.529 191.913 158.916C193.84 163.422 196.433 167.617 199.608 171.36C199.454 172.1 199.352 172.865 199.249 173.604C198.121 173.222 196.684 175.262 196.402 176.409C196.353 176.564 196.342 176.727 196.369 176.887C196.397 177.047 196.462 177.198 196.56 177.327C196.658 177.457 196.785 177.562 196.932 177.632C197.078 177.703 197.239 177.739 197.402 177.735H198.839C198.489 181.302 198.369 184.888 198.48 188.471C198.659 192.449 198.48 201.807 194.581 202.139C194.403 202.134 194.228 202.183 194.079 202.279C193.931 202.376 193.815 202.515 193.748 202.679C193.681 202.842 193.666 203.022 193.705 203.195C193.744 203.367 193.835 203.523 193.965 203.643C194.978 204.501 196.088 205.237 197.274 205.836H194.914C194.755 205.832 194.598 205.874 194.461 205.955C194.324 206.036 194.213 206.154 194.141 206.295C194.068 206.437 194.037 206.595 194.052 206.753C194.066 206.911 194.125 207.062 194.222 207.188C201.429 215.781 212.177 218.739 223.617 219.938C222.693 224.477 220.667 231.693 217.486 235.467C216.339 236.617 214.992 237.55 213.511 238.221C206.611 239.879 203.251 248.421 206.739 255.408C203.923 253.711 200.775 252.633 197.505 252.246ZM304.696 304.19C300.028 312.171 296.129 313.395 287.075 314.568L230.645 322.55C224.386 323.672 201.917 326.987 203.687 320.994C205.482 316.532 215.639 304.139 218.23 300.977C216.794 311.84 221.18 316.277 231.722 314.441C288.152 304.241 285.587 305.898 286.69 303.96C288.793 304.368 290.358 302.328 291.82 300.518C294.265 297.072 296.493 293.478 298.489 289.757C300.258 286.858 301.443 283.645 301.977 280.296C307.301 279.268 312.752 279.07 318.137 279.71C318.345 279.889 318.508 280.113 318.615 280.365C318.722 280.617 318.769 280.89 318.752 281.163C318.214 282.515 319.907 278.154 304.722 304.19H304.696ZM319.599 284.274C320.249 288.163 319.327 292.15 317.034 295.367L308.339 309.978C306.51 313.831 304.134 317.404 301.285 320.586C299.412 322.104 297.105 322.996 294.693 323.136C292.589 323.442 219.974 332.469 219.974 332.469C210.125 334.178 205.61 333.846 203.61 324.641C210.073 328.466 227.233 324.36 286.741 316.634C295.847 315.461 301.234 314.415 306.261 305.439L319.599 284.274ZM239.417 274.89C239.967 275.268 240.475 275.704 240.93 276.191C239.518 277.457 238.285 278.906 237.262 280.5C237.249 280.567 237.249 280.636 237.262 280.703C237.276 280.77 237.302 280.834 237.34 280.891C237.378 280.947 237.427 280.996 237.484 281.034C237.541 281.072 237.605 281.099 237.673 281.112C237.74 281.125 237.81 281.126 237.877 281.112C237.944 281.099 238.008 281.073 238.066 281.035C238.123 280.997 238.172 280.948 238.21 280.892C238.248 280.835 238.275 280.771 238.288 280.704C239.347 279.473 240.515 278.338 241.777 277.313C242.319 278.196 242.799 279.117 243.213 280.067C243.008 280.347 242.88 280.449 242.88 280.628C242.873 280.711 242.882 280.796 242.908 280.876C242.934 280.956 242.976 281.03 243.031 281.094C243.086 281.158 243.153 281.21 243.228 281.249C243.303 281.287 243.385 281.31 243.47 281.316C244.034 281.316 244.88 279.455 248.6 276.216C248.856 276.548 249.01 276.854 249.446 276.854C249.54 276.857 249.634 276.841 249.722 276.807C249.809 276.772 249.888 276.719 249.954 276.651C250.019 276.584 250.07 276.503 250.102 276.415C250.133 276.327 250.146 276.233 250.139 276.14C250.091 275.81 249.987 275.491 249.831 275.196C250.68 274.46 251.619 273.835 252.627 273.335C253.179 274.006 253.661 274.732 254.063 275.502C252.48 277.088 251.022 278.793 249.703 280.602C249.624 280.698 249.584 280.818 249.588 280.941C249.592 281.064 249.64 281.182 249.725 281.272C249.809 281.362 249.924 281.419 250.047 281.431C250.17 281.444 250.294 281.412 250.395 281.342C250.754 281.342 251.113 280.296 254.807 276.879C254.944 277.377 255.231 277.822 255.628 278.154C252.627 281.342 250.087 284.529 251.319 288.992C251.515 289.748 251.86 290.458 252.336 291.08C252.812 291.702 253.408 292.223 254.089 292.613C254.308 293.756 254.965 294.771 255.922 295.442C256.88 296.113 258.062 296.387 259.219 296.208C260.755 296.003 262.226 295.463 263.528 294.627C266.709 296.718 269.633 293.607 271.582 291.72C274.12 289.197 276.421 286.448 278.456 283.509C279.739 281.673 279.303 282.132 279.585 282.209C280.303 282.413 280.534 281.163 283.15 278.307C283.473 278.951 283.878 279.551 284.356 280.092C284.441 280.231 284.578 280.33 284.737 280.368C284.895 280.407 285.063 280.381 285.202 280.296C285.342 280.212 285.442 280.075 285.48 279.918C285.519 279.76 285.493 279.593 285.407 279.455C285.071 278.68 284.65 277.944 284.151 277.262C284.984 276.32 285.912 275.465 286.921 274.712C287.424 275.45 287.87 276.226 288.255 277.032C286.536 278.765 285.038 280.701 283.792 282.795C283.535 283.586 284.792 283.764 284.792 283.076C286.007 281.355 287.39 279.757 288.922 278.307C289.46 279.353 289.845 280.398 290.563 280.092C290.736 279.997 290.872 279.848 290.951 279.668C291.029 279.489 291.046 279.288 290.999 279.098C290.837 278.385 290.596 277.692 290.281 277.032C292.082 275.531 293.994 274.167 296.001 272.952C289.815 280.255 286.108 289.313 285.407 298.835C285.46 299.95 285.408 301.069 285.254 302.175V302.379C284.612 303.833 282.201 303.858 281.868 303.909C280.816 303.909 284.766 303.399 233.133 312.248C227.259 313.242 221.693 313.395 220.641 307.658C219.051 296.591 225.31 282.005 239.417 274.89ZM241.007 274.202C242.46 273.461 244.003 272.912 245.599 272.57C240.674 275.4 243.008 275.808 241.11 274.202H241.007ZM246.804 273.794C248.318 275.63 247.856 273.794 244.239 278.562C243.95 277.736 243.516 276.968 242.957 276.293C244.132 275.307 245.424 274.468 246.804 273.794ZM248.241 273.054C249.259 272.703 250.232 272.232 251.139 271.652C251.678 272.213 251.703 271.652 249.318 273.513C248.625 274.023 249.138 273.998 248.241 273.054ZM258.501 273.641C258.731 274.125 258.501 274.023 258.86 274.406C258.424 274.967 257.167 276.522 256.679 276.956C256.531 276.486 256.334 276.033 256.09 275.604C256.5 275.4 256.859 275.018 258.603 273.641H258.501ZM255.269 274.278C255.085 273.92 254.871 273.579 254.627 273.258C254.419 273 254.196 272.753 253.961 272.519C254.844 272.055 255.752 271.638 256.679 271.269C257.03 271.575 257.356 271.907 257.654 272.264C256.86 272.897 256.098 273.569 255.371 274.278H255.269ZM283.176 275.936C283.865 274.727 284.474 273.475 284.997 272.187L285.972 273.564C284.925 274.262 283.998 275.123 283.227 276.114L283.176 275.936ZM288.126 273.794C289.255 273.08 289.486 272.978 290.281 272.417C291.41 272.417 292.564 272.417 293.718 272.595C288.049 275.961 290.743 277.058 288.229 273.794H288.126ZM297.617 282.693C297.465 282.473 297.235 282.318 296.973 282.261C296.71 282.204 296.436 282.249 296.206 282.387C295.744 282.744 295.744 282.846 294.411 284.682C294.128 284.376 293.846 284.121 293.59 283.815C293.488 283.681 293.338 283.591 293.171 283.562C293.005 283.534 292.833 283.57 292.692 283.662C291.923 284.172 292.846 285.294 293.41 286.212C292.949 286.926 292.487 287.666 292.102 288.38C292.016 288.496 291.965 288.635 291.958 288.78C291.95 288.925 291.985 289.068 292.059 289.193C292.133 289.318 292.242 289.419 292.373 289.483C292.503 289.547 292.65 289.571 292.795 289.553C292.795 289.553 293.179 289.553 293.256 289.374C295.283 287.334 293.975 287.436 295.821 288.711C296.043 288.848 296.307 288.902 296.565 288.864C295.334 291.108 289.563 301.461 287.203 302.481C287.265 291.758 291.27 281.428 298.463 273.437C298.467 273.524 298.492 273.61 298.537 273.685C298.582 273.761 298.645 273.824 298.72 273.87C298.976 274.38 299.233 274.89 299.464 275.426C300.35 279.55 299.567 283.856 297.283 287.411C297.283 287.079 297.104 287.054 295.847 286.11C297.54 284.121 298.258 283.509 297.719 282.693H297.617ZM298.925 270.81C298.789 270.718 298.628 270.669 298.463 270.669C298.299 270.669 298.138 270.718 298.002 270.81C294.039 270.208 290.026 270.012 286.023 270.224C293.274 254.309 294.68 236.37 289.999 219.53C289.963 219.396 289.902 219.27 289.818 219.16C289.733 219.049 289.628 218.957 289.508 218.887C289.388 218.817 289.255 218.771 289.117 218.753C288.979 218.734 288.838 218.742 288.703 218.777C288.569 218.813 288.442 218.874 288.331 218.957C288.22 219.041 288.127 219.146 288.057 219.265C287.987 219.385 287.941 219.517 287.922 219.654C287.903 219.792 287.911 219.931 287.947 220.065C290.58 230.203 291.092 240.771 289.451 251.114C287.81 261.457 284.05 271.354 278.405 280.194C276.091 283.583 273.582 286.835 270.89 289.935C269.504 291.542 268.145 293.811 264.682 292.944C264.419 292.801 264.204 292.585 264.063 292.323C263.921 292.06 263.86 291.762 263.887 291.465C264.118 289.068 265.247 288.915 265.708 285.957C265.708 285.788 265.641 285.626 265.52 285.506C265.4 285.387 265.237 285.32 265.067 285.32C264.897 285.32 264.734 285.387 264.614 285.506C264.493 285.626 264.426 285.788 264.426 285.957C263.901 287.051 263.301 288.107 262.63 289.119C262.27 289.739 262.045 290.427 261.97 291.138C261.895 291.85 261.971 292.57 262.194 293.25L261.014 293.837C258.244 295.137 256.397 294.168 255.884 292.511C254.653 288.558 259.552 285.218 259.398 284.325C259.385 284.213 259.343 284.107 259.275 284.017C259.207 283.926 259.116 283.856 259.012 283.812C258.908 283.768 258.794 283.752 258.681 283.766C258.569 283.78 258.462 283.823 258.372 283.892C256.219 285.344 254.691 287.546 254.089 290.063C251.524 286.901 254.089 282.591 256.654 280.118C271.556 265.838 273.352 243.474 266.914 224.018C266.786 223.355 265.657 223.508 265.785 224.018C269.248 239.879 270.069 255.281 262.015 269.484C255.916 269.179 249.804 269.659 243.829 270.912C236.442 273.003 239.545 274.176 239.494 269.79C240.685 259.533 239.483 249.14 235.98 239.42C235.544 238.221 234.441 238.808 234.697 239.726C235.228 241.426 235.689 243.211 236.083 245.081C235.539 247.379 234.863 249.643 234.056 251.864C233.069 254.713 231.138 257.144 228.58 258.761C226.022 260.377 222.988 261.083 219.974 260.763C220.463 260.633 220.918 260.402 221.312 260.086C221.705 259.77 222.027 259.375 222.257 258.927C222.455 259.033 222.674 259.094 222.898 259.106C224.386 259.106 226.746 256.556 227.644 255.51C228.351 254.406 228.71 253.116 228.674 251.807C228.637 250.498 228.207 249.23 227.438 248.166C226.381 245.789 225.083 243.525 223.565 241.409C223.624 241.252 223.624 241.08 223.565 240.924C222.131 239.278 220.178 238.164 218.025 237.762C222.514 233.861 224.899 225.497 225.72 219.759C245.086 221.136 267.632 215.705 282.15 203.031C283.515 204.121 284.809 205.296 286.023 206.55C294.436 214.991 306.928 236.666 311.673 260.865C311.878 261.885 312.93 267.546 313.366 268.515C308.236 269.969 304.337 271.065 300.541 272.468C300.166 271.811 299.649 271.244 299.028 270.81H298.925ZM201.84 205.785C201.583 204.689 200.019 205.428 196.453 203.031C201.994 199.64 199.583 186.278 200.301 177.378C202.866 177.378 205.431 177.098 207.996 176.766C208.024 178.825 208.534 180.849 209.487 182.677C210.44 184.506 211.809 186.088 213.485 187.298C212.305 187.298 211.125 187.068 209.971 187.043C208.817 187.017 205.174 187.043 204.841 187.833C204.803 187.913 204.783 188 204.781 188.088C204.779 188.176 204.795 188.263 204.829 188.345C204.863 188.426 204.913 188.5 204.977 188.561C205.041 188.622 205.117 188.67 205.2 188.7C208.247 188.648 211.295 188.75 214.331 189.006C217.446 189.418 220.524 190.065 223.54 190.944C223.689 190.944 223.833 190.885 223.939 190.78C224.045 190.675 224.104 190.532 224.104 190.383C224.104 190.234 224.045 190.092 223.939 189.986C223.833 189.881 223.689 189.822 223.54 189.822L223.027 189.644C226.247 189.25 229.216 187.711 231.385 185.312C233.553 182.912 234.776 179.813 234.826 176.588C235.213 176.561 235.601 176.631 235.954 176.792C236.444 179.774 237.94 182.502 240.196 184.528C242.452 186.553 245.334 187.755 248.369 187.935C248.298 187.992 248.246 188.068 248.218 188.154C248.191 188.24 248.19 188.333 248.215 188.42C248.471 188.904 249.087 188.42 250.216 187.91C253.381 187.683 256.363 186.345 258.629 184.136C264.323 181.586 267.35 180.464 271.069 178.679C271.864 178.5 271.249 177.225 270.684 177.531C252.986 183.753 264.272 183.422 262.374 172.431C272.275 172.431 275.404 169.524 282.073 162.537C284.125 170.595 282.971 180.387 288.178 183.396C288.89 183.841 289.723 184.055 290.563 184.008C289.758 185.748 288.544 187.27 287.023 188.445C286.827 188.59 286.685 188.796 286.623 189.031C286.56 189.266 286.579 189.515 286.678 189.738C286.776 189.96 286.948 190.143 287.164 190.255C287.381 190.368 287.63 190.404 287.87 190.358C288.952 190.057 290.014 189.691 291.05 189.261C287.319 195.233 282.458 200.429 276.738 204.561C247.83 224.4 207.765 219.479 196.838 207.29C198.303 207.277 199.763 207.123 201.199 206.831C201.423 206.776 201.616 206.636 201.737 206.44C201.857 206.244 201.894 206.008 201.84 205.785ZM229.516 75.7351C232.839 77.807 235.766 80.449 238.16 83.5381C238.313 83.6938 238.503 83.8072 238.714 83.8672C238.924 83.9272 239.146 83.9316 239.358 83.8802C239.571 83.8287 239.766 83.723 239.925 83.5736C240.083 83.4241 240.2 83.2361 240.263 83.0281C241.538 79.8055 243.911 77.1307 246.968 75.4713C250.025 73.8119 253.571 73.2735 256.987 73.9501C260.094 74.8613 262.712 76.9577 264.269 79.7814C265.826 82.6051 266.196 85.9267 265.298 89.0206C265.225 89.2871 265.241 89.57 265.344 89.8266C265.447 90.0832 265.631 90.2997 265.868 90.4435C266.105 90.5872 266.383 90.6506 266.659 90.6239C266.936 90.5972 267.196 90.482 267.401 90.2956C270.351 87.7456 274.609 90.7801 275.84 91.7491C277.189 92.6715 278.317 93.8791 279.141 95.2854C279.966 96.6917 280.468 98.2619 280.611 99.8836C280.611 107.304 272.403 110.849 266.939 113.22C266.745 113.328 266.584 113.488 266.476 113.682C266.367 113.875 266.314 114.095 266.324 114.317C266.144 121.125 265.041 128.189 264.221 135.074C261.656 136.374 260.655 136.935 260.655 136.935C260.415 136.867 260.182 136.773 259.963 136.655C260.27 134.513 262.04 122.783 261.963 120.615C261.913 120.462 261.815 120.329 261.684 120.234C261.552 120.14 261.394 120.089 261.232 120.089C261.07 120.089 260.912 120.14 260.781 120.234C260.65 120.329 260.552 120.462 260.501 120.615C260.014 122.375 258.783 135.915 258.757 136.068C255.452 134.565 251.929 133.593 248.318 133.187C248.523 131.147 248.959 100.037 248.959 98.9401C248.959 98.5321 248.548 98.5576 248.292 98.5576C248.194 98.5574 248.1 98.5942 248.029 98.6605C247.957 98.7268 247.914 98.8176 247.907 98.9146C246.65 112.251 246.368 128.877 246.548 133.008H245.778C239.497 132.195 233.11 132.931 227.182 135.15C226.874 132.141 224.617 120.513 223.001 113.373C223.001 112.787 221.949 112.583 221.949 113.373C221.938 113.432 221.938 113.493 221.949 113.552C223.899 124.262 224.976 133.238 225.489 135.813C221.771 137.454 218.314 139.628 215.229 142.265C214.204 136.427 212.868 130.647 211.228 124.95C207.278 111.41 202.738 113.679 197.018 111.665C195.541 111.043 194.231 110.087 193.193 108.871C192.155 107.656 191.418 106.216 191.042 104.666C190.665 103.116 190.659 101.5 191.024 99.9481C191.39 98.3957 192.116 96.9501 193.144 95.7271C194.828 93.8144 197.082 92.4862 199.578 91.9358C202.074 91.3854 204.682 91.6416 207.021 92.6671C207.868 92.9986 208.586 92.1571 208.483 91.2901C207.956 88.6148 208.2 85.8459 209.188 83.3027C210.176 80.7596 211.867 78.5459 214.066 76.9171C216.265 75.2882 218.882 74.3106 221.616 74.0969C224.349 73.8833 227.088 74.4423 229.516 75.7096V75.7351ZM259.065 137.7L258.398 138.032C258.246 138.161 258.146 138.341 258.118 138.538C258.09 138.735 258.136 138.936 258.246 139.102C258.357 139.268 258.524 139.388 258.717 139.44C258.911 139.492 259.116 139.472 259.296 139.383C265.89 135.725 272.865 132.793 280.098 130.637C282.022 130.127 286.357 128.495 287.357 130.407C287.371 130.636 287.371 130.866 287.357 131.096C284.572 131.18 281.882 132.125 279.662 133.799L266.144 141.449C265.093 142.061 266.811 143.157 266.939 142.214C266.939 141.959 266.324 142.418 282.996 133.595C283.381 133.391 286.946 131.657 287.459 133.161C285.587 148.64 280.996 152.898 278.61 157.667C278.507 157.856 278.478 158.076 278.529 158.286C278.58 158.495 278.707 158.678 278.887 158.799C279.066 158.919 279.284 158.97 279.498 158.94C279.713 158.909 279.908 158.801 280.047 158.636C280.201 158.457 280.303 158.253 280.457 158.075C280.768 158.722 281.042 159.386 281.278 160.064C269.735 171.998 271.71 168.071 262.066 171.284C261.238 168.119 259.268 165.367 256.53 163.555C253.793 161.742 250.48 160.994 247.223 161.454C243.966 161.915 240.994 163.551 238.873 166.05C236.752 168.55 235.631 171.738 235.723 175.007C235.377 174.845 235.003 174.75 234.62 174.726C234.195 171.532 232.618 168.601 230.18 166.477C227.743 164.354 224.613 163.183 221.372 163.183C218.132 163.183 215.001 164.354 212.564 166.477C210.127 168.601 208.549 171.532 208.124 174.726C205.559 175.083 202.994 175.185 200.429 175.313C201.426 167.161 204.21 159.327 208.586 152.363C226.182 124.415 258.757 137.7 259.065 137.7ZM257.039 183.32C251.909 185.87 251.909 186.303 249.344 186.303C246.599 186.335 243.93 185.409 241.802 183.686C239.674 181.962 238.221 179.551 237.698 176.872C237.175 174.194 237.613 171.417 238.938 169.027C240.262 166.637 242.389 164.785 244.946 163.793C247.503 162.802 250.329 162.734 252.932 163.602C255.534 164.469 257.748 166.217 259.187 168.541C260.626 170.864 261.199 173.616 260.807 176.317C260.414 179.018 259.08 181.496 257.039 183.32ZM233.107 177.761C232.779 180.709 231.328 183.421 229.051 185.339C226.774 187.256 223.844 188.234 220.865 188.071C217.885 187.907 215.082 186.616 213.031 184.461C210.979 182.306 209.836 179.452 209.836 176.486C209.836 173.519 210.979 170.665 213.031 168.51C215.082 166.356 217.885 165.064 220.865 164.901C223.844 164.737 226.774 165.715 229.051 167.633C231.328 169.55 232.779 172.262 233.107 175.211C231.414 176.486 231.594 178.73 233.056 177.863L233.107 177.761ZM207.765 151.572C205.508 147.747 200.814 142.112 198.762 139.332C196.71 136.553 195.607 134.87 192.888 135.15C192.272 135.15 192.195 135.686 192.426 135.941C193.144 136.782 193.863 134.589 196.889 138.95C199.28 141.886 201.506 144.951 203.558 148.13C207.38 153.638 207.56 151.802 206.405 153.638C205.209 151.79 203.611 150.233 201.728 149.081C199.846 147.929 197.728 147.212 195.53 146.982C195.362 146.978 195.197 147.034 195.066 147.138C194.934 147.242 194.844 147.389 194.81 147.553C194.776 147.717 194.802 147.888 194.882 148.035C194.962 148.182 195.091 148.297 195.248 148.359C199.452 149.063 203.21 151.379 205.713 154.811L205.149 155.78C204.048 154.695 202.661 153.943 201.147 153.612C199.453 153.276 197.74 153.037 196.017 152.898C195.858 152.884 195.699 152.928 195.57 153.021C195.44 153.114 195.349 153.25 195.311 153.404C195.274 153.558 195.294 153.721 195.367 153.862C195.44 154.003 195.561 154.113 195.709 154.173C198.685 155.295 201.814 154.403 204.636 157.029C204.225 157.769 203.84 158.534 203.507 159.299C202.264 159.431 201.065 159.831 199.993 160.472C198.018 161.415 198.864 162.716 199.762 162.257C200.654 161.711 201.622 161.299 202.635 161.033C201.535 163.732 200.676 166.522 200.07 169.371C191.041 158.253 188.553 144.024 191.041 136.094C191.214 135.311 191.684 134.626 192.353 134.179C193.022 133.733 193.838 133.56 194.632 133.697C196.144 134.193 197.534 135.001 198.71 136.068C208.098 143.489 207.021 143.361 211.305 146.09C209.909 147.771 208.721 149.611 207.765 151.572ZM209.15 256.505C209.203 256.321 209.203 256.127 209.15 255.944C204.02 243.474 213.562 235.773 221.436 241.332C221.257 242.046 222.539 244.035 222.975 244.622C227.464 252.45 227.233 253.164 223.411 256.454C222.924 256.862 222.77 256.938 222.668 256.862C222.373 256.549 222.138 256.186 221.975 255.791C219.795 251.864 219.41 250.691 218.666 250.997C218.571 251.028 218.486 251.084 218.418 251.157C218.351 251.231 218.303 251.32 218.28 251.417C218.257 251.514 218.259 251.616 218.286 251.711C218.313 251.807 218.365 251.895 218.435 251.966C218.692 252.195 218.025 251.481 220.026 256.224C221.129 258.774 221.334 257.525 220.026 258.392C217.999 259.488 216.435 259.59 214.896 253.547C214.836 253.384 214.723 253.247 214.575 253.157C214.427 253.067 214.253 253.029 214.081 253.049C213.908 253.07 213.748 253.148 213.626 253.271C213.504 253.393 213.427 253.554 213.408 253.725C213.21 255.526 213.674 257.338 214.716 258.825C214.129 259.275 213.444 259.58 212.715 259.718C211.752 258.423 210.54 257.331 209.15 256.505ZM214.024 261.605C214.583 261.448 215.113 261.198 215.588 260.865C225.438 265.43 234.261 259.284 237.006 250.155C238.011 256.496 238.235 262.936 237.673 269.331C237.408 270.67 237.408 272.047 237.673 273.386C230.882 276.902 225.373 282.45 221.924 289.247C218.449 290.126 215.024 291.19 211.664 292.434C216.537 282.617 219.872 270.81 214.024 261.579V261.605ZM210.33 295.086C222.565 290.93 218.025 292.281 221.103 291.236C220.091 293.523 219.318 295.907 218.794 298.35C212.74 304.774 207.328 311.769 202.635 319.235C202.17 319.872 201.918 320.64 201.917 321.428C201.905 321.456 201.899 321.486 201.899 321.517C201.899 321.548 201.905 321.578 201.917 321.606C201.848 325.462 203.015 329.241 205.251 332.393C206.326 333.352 207.591 334.075 208.966 334.514C210.341 334.954 211.793 335.1 213.228 334.943C216.024 334.943 208.098 335.657 294.205 325.38C301.9 325.023 304.901 320.867 308.621 314.109C310.955 309.851 319.419 295.826 319.599 295.571C320.979 293.353 321.825 290.848 322.07 288.251C322.315 285.654 321.952 283.036 321.01 280.602C321.03 280.195 320.968 279.788 320.828 279.406C320.687 279.023 320.47 278.673 320.19 278.375C319.91 278.078 319.572 277.839 319.197 277.674C318.823 277.509 318.418 277.421 318.009 277.415C312.737 276.786 307.399 276.967 302.183 277.95C302.177 276.348 301.855 274.762 301.234 273.284C307.8 271.677 309.955 270.912 329.936 265.404C335.252 270.703 340.879 275.684 346.788 280.322C346.888 280.454 347.018 280.561 347.167 280.634C347.316 280.708 347.481 280.747 347.647 280.747C347.814 280.747 347.978 280.708 348.127 280.634C348.276 280.561 348.406 280.454 348.506 280.322C351.867 273.692 354.97 267.215 357.74 260.993L361.614 278.256C360.305 278.524 359.081 279.099 358.041 279.933C357.002 280.767 356.177 281.836 355.637 283.05C353.303 287.538 353.919 293.25 354.457 298.223C354.457 299.166 356.099 315.843 356.766 322.014C356.779 322.321 356.913 322.61 357.138 322.82C357.364 323.029 357.663 323.143 357.971 323.136C362.197 321.2 366.27 318.95 370.155 316.404L384.416 380.027C385.64 385.561 384.607 391.352 381.545 396.132C378.482 400.911 373.64 404.289 368.077 405.527L225.361 437.147C219.792 438.341 213.974 437.302 209.171 434.256C204.368 431.21 200.968 426.402 199.711 420.878L182.679 344.888C186.937 334.229 204.379 306.128 210.33 295.086ZM405.424 419.169C405.373 424.65 403.449 429.951 399.967 434.2C396.485 438.45 391.652 441.395 386.263 442.553L223.155 478.686C216.811 480.057 210.179 478.885 204.699 475.423C199.219 471.962 195.334 466.491 193.888 460.199C187.219 430.644 185.706 423.02 185.706 423.02C185.837 419.252 185.631 415.48 185.09 411.749C182.705 388.263 173.676 370.949 181.063 348.993L197.505 421.566C198.856 427.668 202.583 432.99 207.87 436.369C213.157 439.747 219.575 440.907 225.72 439.595L368.539 408C374.679 406.595 380.012 402.834 383.375 397.537C386.738 392.24 387.859 385.836 386.494 379.721L372.053 315.308C375.259 313.14 378.337 310.794 381.313 308.321C407.989 426.794 405.475 414.018 405.398 419.169H405.424Z" fill="white"/>
<path d="M300.105 428.4C297.955 430.429 296.397 432.997 295.593 435.834C294.789 438.67 294.771 441.67 295.539 444.516C296.25 447.627 297.998 450.408 300.498 452.407C302.998 454.407 306.105 455.508 309.313 455.532C312.472 455.553 315.527 454.415 317.894 452.335C320.261 450.255 321.772 447.38 322.138 444.261C322.511 441.395 322.178 438.483 321.168 435.773C320.158 433.064 318.502 430.639 316.341 428.706C314.128 426.715 311.265 425.587 308.281 425.531C305.297 425.475 302.393 426.494 300.105 428.4ZM312.93 453.059C300.105 457.215 292.949 441.813 300.105 431.588C301.738 429.677 304.021 428.431 306.519 428.087C309.017 427.744 311.555 428.327 313.648 429.726C321.215 435.081 322.959 449.744 312.93 453.11V453.059ZM270.684 145.044C273.403 143.11 276.481 141.732 279.739 140.99C281.509 140.684 282.124 140.556 282.304 140.046C282.312 139.882 282.259 139.721 282.155 139.594C282.051 139.467 281.903 139.383 281.74 139.358C277.512 139.542 273.491 141.225 270.402 144.101C270.331 144.172 270.28 144.261 270.256 144.359C270.231 144.457 270.233 144.559 270.262 144.655C270.291 144.752 270.345 144.839 270.42 144.907C270.494 144.976 270.585 145.023 270.684 145.044ZM281.765 145.35C279.926 144.84 277.994 144.744 276.113 145.071C274.231 145.397 272.447 146.137 270.89 147.237C270.792 147.314 270.722 147.421 270.692 147.541C270.662 147.661 270.673 147.788 270.722 147.901C270.772 148.015 270.858 148.109 270.967 148.169C271.077 148.228 271.203 148.25 271.326 148.232C273.599 146.973 276.162 146.323 278.764 146.345C280.637 146.345 281.868 146.931 282.124 146.115C282.175 145.966 282.166 145.804 282.099 145.661C282.032 145.519 281.912 145.407 281.765 145.35ZM272.044 149.43C271.954 149.412 271.862 149.413 271.773 149.435C271.684 149.456 271.601 149.497 271.53 149.555C271.459 149.612 271.402 149.684 271.363 149.766C271.324 149.849 271.303 149.938 271.303 150.029C271.303 150.12 271.324 150.21 271.363 150.292C271.402 150.374 271.459 150.447 271.53 150.504C271.601 150.561 271.684 150.602 271.773 150.624C271.862 150.645 271.954 150.647 272.044 150.629C273.673 150.783 275.226 151.383 276.533 152.363C276.615 152.439 276.72 152.488 276.832 152.502C276.944 152.516 277.058 152.495 277.157 152.441C277.256 152.388 277.336 152.305 277.385 152.204C277.434 152.102 277.45 151.989 277.43 151.878C276.767 151.104 275.941 150.483 275.01 150.06C274.08 149.637 273.067 149.422 272.044 149.43ZM250.293 190.562C256.551 187.017 261.502 186.992 266.196 185.64C266.965 185.64 266.786 184.263 266.196 184.365C260.381 184.809 254.76 186.637 249.805 189.695C249.01 190.052 249.523 191.046 250.293 190.562ZM203.687 194.795C209.962 192.768 216.619 192.184 223.155 193.086C223.873 193.086 224.001 192.015 223.027 191.811C216.436 190.289 209.529 190.887 203.302 193.52C202.635 193.647 203.045 194.795 203.687 194.795Z" fill="white"/>
<path d="M210.74 200.226C214.379 198.239 218.295 196.804 222.36 195.967C223.201 197.442 224.445 198.651 225.947 199.454C227.449 200.257 229.148 200.622 230.85 200.506C231.287 201.883 232.126 203.099 233.261 204C234.218 204.852 235.393 205.425 236.657 205.656C237.921 205.887 239.224 205.766 240.423 205.307C241.622 204.848 242.671 204.069 243.453 203.055C244.235 202.042 244.72 200.833 244.855 199.563C246.633 199.416 248.331 198.764 249.746 197.683C251.16 196.602 252.232 195.139 252.832 193.468C265.016 193.009 266.452 193.111 271.89 192.499C272.736 192.499 272.659 191.199 271.89 191.097C265.64 191.046 259.394 191.403 253.191 192.168C253.257 191.968 253.309 191.763 253.345 191.556C253.399 191.423 253.424 191.281 253.417 191.138C253.411 190.995 253.373 190.855 253.307 190.727C253.242 190.6 253.149 190.489 253.036 190.4C252.922 190.312 252.791 190.249 252.651 190.215C252.511 190.182 252.366 190.179 252.225 190.207C252.083 190.234 251.95 190.292 251.833 190.376C251.716 190.459 251.619 190.567 251.548 190.692C251.477 190.816 251.434 190.954 251.421 191.097C251.371 191.549 251.267 191.994 251.113 192.423C250.472 192.423 249.498 192.423 249.549 193.111C249.6 193.8 250.19 193.57 250.652 193.57C250.171 194.528 249.493 195.374 248.662 196.055C247.832 196.736 246.867 197.236 245.83 197.523C242.598 198.237 240.11 196.273 238.135 191.581C241.187 187.45 239.776 185.895 238.135 186.481C237.596 186.66 238.135 186.609 235.364 186.609C232.594 186.609 232.286 189.031 234.415 190.944L235.621 191.938C235.057 195.279 233.8 198.823 230.286 198.9C229.072 198.874 227.879 198.573 226.799 198.021C225.72 197.468 224.78 196.679 224.053 195.712L225.053 195.534C225.72 195.534 226.105 194.31 224.617 194.31C219.39 194.293 214.288 195.897 210.022 198.9C209.935 198.947 209.857 199.01 209.794 199.087C209.731 199.164 209.684 199.252 209.656 199.347C209.627 199.441 209.618 199.541 209.628 199.639C209.638 199.737 209.667 199.833 209.714 199.92C209.762 200.007 209.825 200.084 209.903 200.146C209.98 200.209 210.068 200.256 210.164 200.284C210.259 200.313 210.359 200.322 210.458 200.312C210.557 200.302 210.653 200.273 210.74 200.226ZM237.057 193.545C237.521 194.891 238.289 196.113 239.303 197.116C240.317 198.12 241.55 198.879 242.905 199.333C242.905 199.716 242.905 200.098 242.752 200.455C242.442 201.245 241.945 201.949 241.302 202.506C240.66 203.064 239.891 203.458 239.062 203.656C238.233 203.854 237.368 203.85 236.541 203.643C235.714 203.436 234.949 203.034 234.313 202.47C233.531 201.823 232.9 201.013 232.466 200.098C233.713 199.464 234.784 198.535 235.585 197.392C236.386 196.249 236.891 194.928 237.057 193.545ZM211.33 162.996C212.202 162.996 212.382 161.542 214.973 159.936C216.251 159.267 217.591 158.72 218.974 158.304C220.051 157.641 219.59 155.754 217.076 156.315L215.845 156.774C213.576 157.81 211.756 159.619 210.715 161.874C210.661 161.987 210.635 162.11 210.639 162.235C210.642 162.359 210.675 162.481 210.735 162.591C210.795 162.7 210.881 162.794 210.984 162.864C211.087 162.935 211.206 162.98 211.33 162.996ZM252.473 154.275C253.12 154.262 253.767 154.331 254.397 154.479C255.78 154.85 257.114 155.38 258.372 156.06C260.937 156.06 257.269 152.209 252.678 152.107C251.767 152.018 250.855 152.262 250.113 152.796C248.805 154.122 250.677 154.708 252.473 154.275ZM228.105 305.158C228.34 305.121 228.553 305.001 228.707 304.821C228.862 304.641 228.946 304.413 228.946 304.177C228.946 303.94 228.862 303.712 228.707 303.532C228.553 303.352 228.34 303.233 228.105 303.195C227.871 303.233 227.657 303.352 227.503 303.532C227.349 303.712 227.265 303.94 227.265 304.177C227.265 304.413 227.349 304.641 227.503 304.821C227.657 305.001 227.871 305.121 228.105 305.158ZM235.364 306.535C235.599 306.498 235.812 306.378 235.966 306.198C236.12 306.018 236.205 305.79 236.205 305.554C236.205 305.317 236.12 305.089 235.966 304.909C235.812 304.729 235.599 304.61 235.364 304.572C235.005 304.572 234.261 305.005 234.415 305.745C234.465 305.961 234.585 306.156 234.756 306.299C234.928 306.441 235.141 306.524 235.364 306.535ZM243.059 302.379C243.275 302.343 243.47 302.232 243.611 302.066C243.752 301.901 243.829 301.691 243.829 301.474C243.829 301.257 243.752 301.047 243.611 300.881C243.47 300.715 243.275 300.604 243.059 300.568C242.844 300.604 242.649 300.715 242.508 300.881C242.367 301.047 242.289 301.257 242.289 301.474C242.289 301.691 242.367 301.901 242.508 302.066C242.649 302.232 242.844 302.343 243.059 302.379ZM246.702 307.3C246.933 307.3 247.155 307.209 247.318 307.046C247.482 306.884 247.574 306.663 247.574 306.433C247.574 306.203 247.482 305.983 247.318 305.82C247.155 305.658 246.933 305.566 246.702 305.566C246.47 305.566 246.249 305.658 246.085 305.82C245.921 305.983 245.83 306.203 245.83 306.433C245.83 306.663 245.921 306.884 246.085 307.046C246.249 307.209 246.47 307.3 246.702 307.3ZM256.167 300.109C256.167 299.886 256.077 299.672 255.919 299.514C255.76 299.357 255.545 299.268 255.32 299.268C255.096 299.268 254.88 299.357 254.722 299.514C254.563 299.672 254.474 299.886 254.474 300.109C254.474 300.333 254.563 300.547 254.722 300.704C254.88 300.862 255.096 300.951 255.32 300.951C255.545 300.951 255.76 300.862 255.919 300.704C256.077 300.547 256.167 300.333 256.167 300.109ZM263.015 306C263.179 305.957 263.324 305.861 263.428 305.727C263.531 305.593 263.588 305.429 263.588 305.26C263.588 305.092 263.531 304.928 263.428 304.794C263.324 304.66 263.179 304.564 263.015 304.521C262.9 304.52 262.786 304.547 262.682 304.598C262.579 304.648 262.488 304.723 262.419 304.814C262.349 304.906 262.302 305.012 262.281 305.125C262.259 305.238 262.265 305.354 262.297 305.464C262.338 305.622 262.431 305.76 262.561 305.857C262.692 305.955 262.852 306.005 263.015 306ZM278.354 303.577C278.713 303.577 279.252 303.22 279.098 302.634C278.944 302.047 278.585 301.996 278.354 302.073C278.177 302.105 278.017 302.198 277.902 302.336C277.787 302.473 277.724 302.646 277.724 302.825C277.724 303.004 277.787 303.177 277.902 303.314C278.017 303.452 278.177 303.545 278.354 303.577ZM281.637 297.406C281.868 297.406 282.09 297.315 282.254 297.152C282.417 296.99 282.509 296.769 282.509 296.539C282.509 296.309 282.417 296.089 282.254 295.926C282.09 295.764 281.868 295.672 281.637 295.672C281.406 295.672 281.184 295.764 281.02 295.926C280.857 296.089 280.765 296.309 280.765 296.539C280.765 296.769 280.857 296.99 281.02 297.152C281.184 297.315 281.406 297.406 281.637 297.406ZM270.325 300.9C270.557 300.9 270.778 300.809 270.942 300.646C271.106 300.483 271.197 300.263 271.197 300.033C271.197 299.803 271.106 299.582 270.942 299.42C270.778 299.257 270.557 299.166 270.325 299.166C270.094 299.166 269.872 299.257 269.709 299.42C269.545 299.582 269.453 299.803 269.453 300.033C269.453 300.263 269.545 300.483 269.709 300.646C269.872 300.809 270.094 300.9 270.325 300.9ZM224.386 310.513C224.525 310.513 224.661 310.482 224.786 310.422C224.911 310.362 225.02 310.275 225.106 310.167C225.192 310.059 225.253 309.934 225.284 309.799C225.315 309.665 225.315 309.526 225.284 309.391C225.268 309.223 225.198 309.065 225.084 308.939C224.971 308.814 224.82 308.727 224.654 308.693C224.487 308.659 224.314 308.679 224.16 308.749C224.006 308.82 223.878 308.938 223.796 309.085C223.714 309.213 223.664 309.358 223.651 309.509C223.637 309.66 223.66 309.812 223.718 309.952C223.776 310.092 223.867 310.216 223.983 310.314C224.099 310.411 224.238 310.48 224.386 310.513ZM267.837 398.208L227.156 406.648C224.601 407.184 222.347 408.667 220.854 410.797C219.361 412.927 218.741 415.543 219.12 418.111C219.5 420.68 220.85 423.008 222.896 424.621C224.942 426.234 227.53 427.011 230.132 426.793C231.26 426.793 227.952 427.023 271.864 418.098C273.295 417.964 274.682 417.532 275.935 416.83C277.187 416.129 278.277 415.173 279.135 414.026C279.992 412.879 280.597 411.565 280.911 410.171C281.225 408.776 281.241 407.332 280.957 405.93C280.674 404.529 280.097 403.203 279.265 402.038C278.432 400.873 277.363 399.894 276.126 399.166C274.889 398.438 273.512 397.977 272.084 397.811C270.656 397.646 269.209 397.781 267.837 398.208ZM271.403 415.752L230.85 424.192C228.908 424.466 226.934 423.991 225.331 422.866C223.729 421.74 222.62 420.049 222.23 418.138C221.84 416.226 222.2 414.239 223.234 412.582C224.269 410.926 225.902 409.724 227.798 409.224C258.244 402.823 266.555 401.038 268.838 400.63C270.794 400.388 272.77 400.882 274.379 402.014C275.988 403.146 277.113 404.836 277.533 406.75C277.901 408.738 277.463 410.79 276.314 412.457C275.165 414.125 273.4 415.272 271.403 415.65V415.752Z" fill="white"/>
<path d="M265.99 407.312C262.81 407.72 250.318 412.769 231.106 415.548C230.363 415.548 230.44 416.747 231.106 416.747C237.237 416.747 261.117 411.647 266.529 408.714C266.659 408.609 266.752 408.466 266.795 408.306C266.838 408.145 266.829 407.975 266.77 407.819C266.71 407.664 266.603 407.531 266.463 407.44C266.323 407.349 266.158 407.304 265.99 407.312ZM348.84 381.837C339.349 385.152 339.093 398.616 348.686 400.503C349.969 400.712 351.281 400.656 352.541 400.339C353.801 400.023 354.982 399.453 356.012 398.664C357.041 397.875 357.896 396.884 358.525 395.753C359.153 394.622 359.541 393.374 359.664 392.088C361.485 386.351 354.688 380.231 348.84 381.837ZM350.815 398.973C349.782 399.063 348.741 398.926 347.767 398.573C346.793 398.221 345.908 397.66 345.174 396.931C344.441 396.202 343.877 395.322 343.522 394.353C343.167 393.385 343.03 392.35 343.12 391.323C343.659 386.58 347.942 382.296 352.508 383.673C362.127 387.09 357.689 398.412 350.918 398.973H350.815Z" fill="white"/>
<path d="M348.455 388.391C347.731 388.443 347.049 388.75 346.532 389.258C345.557 390.711 346.301 391.807 347.737 391.807C347.532 393.822 347.301 396.27 349.097 396.372C349.712 396.372 352.38 395.862 353.816 395.556C353.986 395.57 354.157 395.549 354.319 395.494C354.48 395.439 354.628 395.351 354.754 395.236C354.879 395.121 354.979 394.981 355.048 394.825C355.116 394.67 355.151 394.502 355.15 394.332C355.15 393.465 355.15 394.893 354.868 391.272C355.586 391.272 355.919 390.941 355.945 390.354L355.791 388.799C355.788 388.688 355.763 388.579 355.717 388.478C355.671 388.378 355.606 388.287 355.525 388.211C355.444 388.135 355.349 388.076 355.245 388.037C355.141 387.998 355.03 387.979 354.919 387.982C354.227 387.982 353.201 388.11 353.201 388.11C353.201 388.11 354.329 387.753 354.483 386.963C354.535 386.771 354.533 386.57 354.479 386.38C354.425 386.189 354.32 386.017 354.176 385.881C354.031 385.745 353.852 385.651 353.658 385.608C353.464 385.565 353.261 385.574 353.072 385.637C352.64 385.87 352.259 386.186 351.951 386.567C351.643 386.948 351.414 387.386 351.277 387.855C349.43 384.515 346.557 386.58 348.455 388.391ZM353.149 391.323C353.149 392.496 353.329 392.981 353.431 393.873C352.482 393.873 350.097 394.587 349.199 394.715C349.17 394.571 349.17 394.424 349.199 394.281V391.731C350.503 391.489 351.824 391.352 353.149 391.323ZM327.371 384.744C319.676 383.903 314.546 391.655 316.675 398.667C317.479 400.653 318.883 402.342 320.693 403.502C322.503 404.662 324.63 405.236 326.781 405.144C338.58 404.379 339.606 385.917 327.371 384.744ZM332.501 400.707C330.925 402.359 328.754 403.321 326.465 403.384C324.176 403.446 321.956 402.602 320.292 401.039C318.945 399.682 318.085 397.922 317.845 396.031C317.606 394.14 318 392.223 318.966 390.576C319.933 388.93 321.418 387.647 323.193 386.924C324.967 386.202 326.931 386.081 328.782 386.58C330.177 387.026 331.435 387.818 332.437 388.881C333.44 389.943 334.154 391.242 334.513 392.655C334.873 394.067 334.864 395.547 334.49 396.956C334.116 398.364 333.387 399.655 332.373 400.707H332.501ZM365.872 385.586L369.847 387.371C368.642 389.436 367.539 391.502 366.564 393.465C366.449 393.651 366.412 393.875 366.462 394.088C366.513 394.301 366.646 394.485 366.834 394.6C367.021 394.715 367.246 394.751 367.46 394.701C367.674 394.651 367.859 394.518 367.975 394.332C369.181 392.522 370.54 390.558 371.848 388.263C373.208 388.952 373.669 389.105 376.209 390.15C376.75 390.491 377.399 390.618 378.03 390.507C378.157 390.469 378.273 390.403 378.37 390.312C378.466 390.221 378.54 390.11 378.585 389.986C378.63 389.861 378.645 389.729 378.628 389.598C378.612 389.467 378.565 389.342 378.491 389.232C377.902 388.493 377.85 388.595 372.848 386.682C374.105 384.514 376.542 381.353 374.824 380.817C373.567 380.435 372.259 383.367 370.796 385.917L366.513 384.183C365.513 383.622 364.948 385.203 365.872 385.586ZM270.633 364.293C265.657 364.982 257.372 367.251 242.187 370.209C220.308 374.493 221 373.906 213.716 375.87C213.558 375.912 213.418 376.005 213.319 376.134C213.22 376.263 213.166 376.421 213.166 376.584C213.166 376.747 213.22 376.905 213.319 377.034C213.418 377.163 213.558 377.256 213.716 377.298C218.435 377.298 262.066 368.654 270.992 366.129C271.21 366.056 271.394 365.907 271.51 365.709C271.625 365.512 271.665 365.279 271.621 365.055C271.577 364.83 271.453 364.629 271.271 364.489C271.089 364.349 270.863 364.279 270.633 364.293ZM293.436 345.602C301.131 344.174 309.467 343.052 317.188 341.216C318.163 341.216 318.086 339.507 317.188 339.609C302.362 341.088 211.433 359.295 210.074 361.564C208.355 364.344 230.209 357 293.436 345.602ZM336.143 347.132C332.963 345.066 329.269 346.953 327.217 349.936C323.626 356.337 324.909 362.33 327.474 369.24C327.217 369.24 215.229 391.374 215.05 391.757C214.87 392.139 215.05 392.725 215.563 392.725C222.77 392.725 319.214 373.575 328.166 371C328.907 372.919 329.763 374.793 330.731 376.61C330.832 376.778 330.974 376.918 331.145 377.016C331.316 377.114 331.509 377.168 331.706 377.171C332.937 377.171 343.71 369.801 346.224 368.016C349.866 365.466 353.611 362.661 354.175 358.173C355.15 350.268 344.685 348.432 339.478 353.073C339.191 350.735 337.994 348.602 336.143 347.132ZM152.207 70.9155C150.674 70.0198 148.925 69.5536 147.146 69.5665C145.368 69.5794 143.626 70.0708 142.105 70.9886C140.585 71.9064 139.343 73.2164 138.511 74.7794C137.68 76.3424 137.289 78.1001 137.381 79.866C137.298 79.9764 137.253 80.1106 137.253 80.2485C137.253 80.3864 137.298 80.5207 137.381 80.631C138.607 82.127 140.212 83.2705 142.031 83.9434C143.85 84.6164 145.817 84.7944 147.728 84.4591C149.639 84.1238 151.426 83.2873 152.903 82.0361C154.38 80.7848 155.495 79.1642 156.132 77.3415C156.824 76.7805 156.414 76.0665 156.311 75.735C155.629 73.6571 154.156 71.9272 152.207 70.9155ZM138.51 80.0445C138.587 78.3641 139.134 76.7383 140.09 75.3505C141.046 73.9628 142.374 72.8683 143.922 72.1905C140.536 74.7405 141.588 81.906 145.641 82.62C143.024 82.6784 140.479 81.7595 138.51 80.0445ZM148.154 82.212C149.082 81.521 149.809 80.5973 150.26 79.5354C150.71 78.4734 150.869 77.3115 150.719 76.1685C150.638 75.131 150.268 74.1362 149.653 73.2945C149.037 72.4528 148.199 71.7971 147.231 71.4C148.727 71.4069 150.189 71.8471 151.437 72.6669C152.685 73.4866 153.666 74.6503 154.259 76.0155C153.828 77.4493 153.059 78.7599 152.014 79.8378C150.97 80.9157 149.682 81.7298 148.257 82.212H148.154ZM165.314 67.4985C165.266 67.2873 165.145 67.0999 164.971 66.9692C164.797 66.8386 164.583 66.7731 164.365 66.7845C162.749 66.7845 163.981 68.7225 161.8 74.664C161.754 74.8114 161.759 74.9699 161.814 75.1142C161.869 75.2585 161.972 75.3801 162.105 75.4595C162.238 75.5389 162.394 75.5715 162.548 75.5521C162.702 75.5327 162.846 75.4624 162.955 75.3525C163.52 74.3979 163.968 73.3791 164.288 72.318C164.75 74.6895 165.237 76.9845 165.725 79.1775C165.755 79.3081 165.811 79.4315 165.889 79.5406C165.968 79.6497 166.067 79.7425 166.181 79.8135C166.295 79.8845 166.423 79.9325 166.556 79.9546C166.689 79.9768 166.825 79.9726 166.956 79.9425C167.087 79.9124 167.211 79.8568 167.321 79.779C167.431 79.7012 167.524 79.6026 167.596 79.4889C167.667 79.3753 167.715 79.2488 167.738 79.1166C167.76 78.9844 167.756 78.8491 167.725 78.7185C167.007 75.0465 166.186 71.4 165.314 67.4985ZM181.32 74.46C178.986 74.868 177.524 75.1485 175.703 75.633C177.537 73.3038 178.579 70.4551 178.678 67.4985C178.609 66.679 178.289 65.9002 177.762 65.2666C177.235 64.633 176.525 64.1749 175.728 63.954C174.985 63.6866 174.177 63.6517 173.413 63.854C172.649 64.0563 171.966 64.4861 171.455 65.0857C170.944 65.6853 170.63 66.426 170.555 67.2083C170.479 67.9906 170.647 68.777 171.034 69.462C171.214 70.2015 172.471 69.462 172.291 69.0285C172.066 68.4119 172.062 67.7365 172.282 67.1179C172.502 66.4993 172.931 65.9758 173.497 65.637C174.074 65.4007 174.718 65.3816 175.308 65.5835C175.898 65.7853 176.394 66.1942 176.703 66.7335C176.909 67.604 176.929 68.508 176.761 69.3866C176.593 70.2653 176.241 71.099 175.728 71.8335C173.343 76.5255 171.624 76.9335 172.65 78.0045C172.762 78.1248 172.905 78.2122 173.063 78.2572C173.221 78.3021 173.389 78.3029 173.548 78.2595C176.366 77.8728 179.152 77.2848 181.884 76.5C182.092 76.3775 182.254 76.1902 182.345 75.9672C182.436 75.7442 182.45 75.4977 182.386 75.2658C182.322 75.0338 182.182 74.8293 181.99 74.6837C181.797 74.5381 181.562 74.4595 181.32 74.46ZM192.58 71.8335C192.95 70.7679 192.971 69.6131 192.639 68.5351C192.307 67.4572 191.64 66.5116 190.734 65.8343C189.827 65.157 188.728 64.7829 187.594 64.7658C186.46 64.7486 185.35 65.0894 184.424 65.739C184.258 64.9801 183.945 64.2609 183.5 63.6225C185.469 63.3783 187.39 62.8365 189.194 62.016C189.433 61.9706 189.655 61.861 189.836 61.6992C190.017 61.5374 190.15 61.3295 190.22 61.098C190.261 60.9041 190.242 60.7023 190.164 60.5199C190.086 60.3375 189.953 60.1833 189.784 60.078C189.066 59.6445 188.22 60.231 187.655 60.4605C177.395 64.362 183.09 61.353 182.885 67.677C182.889 67.8723 182.957 68.0609 183.077 68.2155C183.197 68.3701 183.363 68.4826 183.552 68.5367C183.741 68.5907 183.942 68.5834 184.127 68.516C184.311 68.4485 184.469 68.3243 184.577 68.1615C184.641 68.0982 184.685 68.0188 184.706 67.932C185.216 67.2337 185.976 66.7552 186.829 66.5941C187.682 66.4331 188.565 66.6014 189.297 67.065C189.792 67.4255 190.186 67.9069 190.439 68.4627C190.692 69.0186 190.797 69.63 190.742 70.2378C190.688 70.8456 190.477 71.4292 190.13 71.9321C189.782 72.435 189.31 72.8402 188.758 73.1085C187.45 73.5971 186.04 73.7548 184.654 73.5675C183.885 73.5675 183.526 74.358 184.039 74.817C184.763 75.3225 185.599 75.6489 186.476 75.769C187.353 75.8892 188.246 75.7997 189.081 75.508C189.916 75.2163 190.669 74.7308 191.278 74.0917C191.886 73.4526 192.333 72.6785 192.58 71.8335ZM195.274 68.034C196.899 67.8466 198.505 67.5137 200.07 67.0395C200.107 68.7709 200.392 70.4882 200.917 72.1395C201.019 72.2857 201.16 72.4011 201.324 72.4728C201.488 72.5446 201.669 72.57 201.846 72.5463C202.024 72.5226 202.191 72.4506 202.331 72.3384C202.47 72.2261 202.575 72.0779 202.635 71.91C202.784 70.0703 202.584 68.2192 202.045 66.453C202.997 66.3193 203.889 65.9115 204.61 65.28C204.705 65.1595 204.768 65.0167 204.791 64.8652C204.815 64.7138 204.799 64.5589 204.745 64.4155C204.69 64.272 204.6 64.1448 204.482 64.0461C204.364 63.9474 204.223 63.8806 204.071 63.852C200.942 63.444 201.943 65.8665 201.122 61.863C201.122 61.6534 201.038 61.4523 200.889 61.304C200.74 61.1558 200.537 61.0725 200.327 61.0725C200.116 61.0725 199.913 61.1558 199.764 61.304C199.615 61.4523 199.531 61.6534 199.531 61.863C199.531 62.271 199.531 62.0925 199.711 64.719C198.788 64.974 197.967 65.28 197.146 65.6115C196.325 65.943 197.762 62.832 198.069 58.8285C198.072 58.6958 198.026 58.5666 197.942 58.4639C197.857 58.3612 197.739 58.2916 197.608 58.2675C196.684 58.089 196.659 59.058 194.812 66.81C194.715 67.0338 194.709 67.2862 194.795 67.5144C194.881 67.7425 195.052 67.9287 195.274 68.034Z" fill="white"/>
<path d="M210.33 68.6206C215.947 68.6206 217.23 59.3641 211.792 55.4371C209.047 53.4736 206.329 53.9581 205.097 57.1456C203.558 61.4551 205.867 68.6206 210.33 68.6206ZM211.689 58.4206C213.87 61.1746 213.305 65.6371 210.817 66.5551C208.329 67.4731 206.226 63.4696 206.431 59.8741C206.765 54.9526 209.843 55.8706 211.766 58.3186L211.689 58.4206Z" fill="white"/>
<path d="M221.206 66.2999C227.49 66.2999 228.901 55.8449 223.36 52.2239C222.852 51.8369 222.262 51.5688 221.635 51.4397C221.008 51.3106 220.36 51.3237 219.739 51.4781C219.118 51.6325 218.539 51.9242 218.047 52.3314C217.555 52.7387 217.162 53.2511 216.896 53.8304C216.211 54.8385 215.804 56.0081 215.716 57.2219C214.742 61.1999 216.999 66.2999 221.206 66.2999ZM217.743 55.3349C217.888 54.9243 218.118 54.5485 218.418 54.2318C218.718 53.9152 219.082 53.6646 219.486 53.4964C219.889 53.3282 220.324 53.246 220.762 53.2552C221.199 53.2644 221.63 53.3648 222.026 53.5499C226.053 56.0999 225.258 65.5859 219.615 63.7499C218.803 63.182 218.155 62.412 217.737 61.5169C217.318 60.6219 217.143 59.6332 217.23 58.6499C217.212 57.5241 217.385 56.4033 217.743 55.3349ZM229.26 61.9394C229.747 61.9394 228.695 61.9394 232.158 61.4294C234.005 61.1489 233.723 61.1999 236.365 60.6644C237.286 60.6265 238.176 60.3255 238.93 59.7974C239.141 59.5829 239.26 59.2945 239.26 58.9942C239.26 58.6938 239.141 58.4054 238.93 58.1909C238.314 57.5789 236.775 57.8084 235.98 58.1909C233.184 58.8029 233.569 58.7009 231.825 59.1854C233.144 57.1258 234.017 54.8159 234.39 52.4024C234.723 49.8524 232.569 47.5829 230.465 48.2969C230.043 48.4176 229.668 48.6639 229.39 49.0027C229.112 49.3415 228.946 49.7566 228.912 50.1924C228.879 50.6281 228.98 51.0636 229.202 51.4404C229.425 51.8172 229.758 52.1173 230.157 52.3004C231.568 52.9124 231.645 51.2039 231.081 51.1274C230.955 51.0923 230.844 51.0146 230.77 50.9075C230.695 50.8005 230.66 50.6709 230.67 50.5409C230.67 49.6484 231.543 49.6994 232.03 50.1329C234.108 52.1474 230.696 57.9104 228.541 60.3329C228.445 60.4792 228.387 60.6472 228.373 60.8216C228.358 60.9959 228.388 61.1711 228.46 61.3309C228.531 61.4908 228.642 61.6302 228.782 61.7365C228.921 61.8429 229.086 61.9126 229.26 61.9394ZM241.29 55.1819C242.187 55.1819 241.931 54.6719 243.162 50.4389C244.957 58.0889 245.06 58.5734 245.983 59.0069C246.123 59.1144 246.294 59.1728 246.471 59.1728C246.647 59.1728 246.819 59.1144 246.958 59.0069C247.625 58.1144 247.343 57.7064 245.624 51.6884C244.188 46.7159 244.188 46.4609 243.213 46.4354C243.032 46.4448 242.859 46.5157 242.724 46.6363C242.588 46.7569 242.498 46.92 242.469 47.0984C241.982 49.4699 241.341 51.7904 240.597 54.3659C240.6 54.5606 240.67 54.7483 240.796 54.8971C240.923 55.0459 241.097 55.1465 241.29 55.1819ZM322.036 330.888L325.396 334.101C326.191 335.095 328.166 337.084 329.423 337.084C330.68 337.084 331.988 335.325 332.911 333.948C335.257 331.278 337.052 328.177 338.195 324.819C339.349 318.877 331.808 314.262 328.089 322.269C325.293 317.883 314.7 319.183 316.906 324.819C318.122 327.208 319.878 329.285 322.036 330.888ZM408.912 158.661C408.063 158.109 407.056 157.845 406.044 157.909C405.031 157.974 404.067 158.363 403.295 159.018C401.453 160.893 400.135 163.213 399.473 165.75C398.081 168.954 396.865 172.232 395.831 175.567C395.343 177.633 396.498 177.633 396.959 177.25C401.525 177.607 416.71 174.139 416.376 169.039C416.116 167.839 415.4 166.785 414.378 166.096C413.355 165.407 412.105 165.137 410.887 165.342C411.262 164.159 411.275 162.892 410.923 161.702C410.571 160.513 409.871 159.454 408.912 158.661ZM408.322 243.601C411.965 238.68 415.273 232.84 414.581 226.159C414.512 224.402 414.053 222.681 413.237 221.121C412.421 219.56 411.268 218.198 409.861 217.132C406.629 215.22 402.961 217.974 400.499 219.835C388.033 229.168 384.16 245.055 380.672 258.672C379.953 261.553 379.184 264.511 378.748 267.418C377.132 272.952 381.492 274.099 385.212 274.405C396.215 275.247 412.324 269.05 423.456 265.939C428.842 264.435 437.871 261.91 437.717 254.107C437.615 245.514 422.225 237.558 408.322 243.601ZM393.958 155.167C394.054 155.294 394.178 155.397 394.32 155.468C394.463 155.539 394.62 155.575 394.779 155.575C394.938 155.575 395.095 155.539 395.238 155.468C395.38 155.397 395.504 155.294 395.6 155.167C403.093 144.23 409.796 132.777 415.658 120.895C420.403 110.695 414.632 97.5629 403.834 99.8834C399.422 100.903 395.6 104.295 392.496 109.956C391.442 106.405 389.066 103.387 385.853 101.515C375.208 95.5484 363.076 107.023 368.95 117.606C375.777 131.057 384.171 143.664 393.958 155.167ZM220.59 174.114C220.609 174.827 220.704 175.537 220.872 176.23C221.026 177.76 221.231 179.392 222.77 179.392C222.972 179.386 223.171 179.34 223.355 179.257C223.54 179.174 223.706 179.055 223.844 178.908C223.982 178.762 224.09 178.589 224.161 178.401C224.232 178.213 224.265 178.012 224.258 177.811C224.016 176.429 223.647 175.072 223.155 173.757C223.03 173.499 222.826 173.287 222.572 173.151C222.318 173.016 222.027 172.964 221.741 173.004C221.456 173.044 221.19 173.173 220.984 173.372C220.777 173.572 220.639 173.831 220.59 174.114ZM250.011 169.983C249.734 169.775 249.39 169.676 249.045 169.704C248.7 169.733 248.377 169.886 248.138 170.136C247.035 170.646 246.856 176.613 249.292 176.613C249.664 176.624 250.027 176.501 250.315 176.267C250.603 176.033 250.795 175.703 250.857 175.338C250.857 174.19 250.703 174.318 250.703 173.553C250.703 170.85 250.498 170.365 250.011 169.983ZM331.449 391.119C330.295 389.002 327.268 389.665 326.319 391.858C326.075 391.546 325.769 391.286 325.421 391.095C325.072 390.904 324.688 390.786 324.292 390.748C323.895 390.709 323.495 390.752 323.116 390.873C322.737 390.994 322.387 391.19 322.087 391.45C321.657 391.837 321.316 392.312 321.088 392.841C320.859 393.371 320.748 393.944 320.763 394.52C320.778 395.096 320.917 395.663 321.172 396.18C321.427 396.698 321.792 397.155 322.241 397.519C323.78 398.608 325.42 399.548 327.14 400.324C327.408 400.501 327.717 400.607 328.038 400.63C328.756 400.63 329.064 399.483 329.346 398.947C331.09 395.403 332.244 393.541 331.449 391.119ZM298.925 397.978C299.361 400.528 299.746 403.384 299.925 404.226L304.799 403.104C305.158 403.104 305.184 403.282 303.901 397.06C302.216 397.203 300.549 397.51 298.925 397.978Z" fill="white"/>
<path d="M299.181 391.272C297.324 391.999 295.7 393.213 294.48 394.785C293.261 396.356 292.492 398.226 292.256 400.197C292.04 401.443 292.1 402.72 292.43 403.941C292.76 405.161 293.353 406.296 294.168 407.266C294.982 408.236 296 409.019 297.149 409.559C298.298 410.1 299.552 410.386 300.823 410.397C302.795 410.311 304.71 409.721 306.386 408.685C308.062 407.649 309.441 406.201 310.391 404.481C313.263 397.8 306.902 389.13 299.181 391.272ZM306.876 403.461V403.818C306.312 405.195 305.491 405.322 300.951 406.113L300.233 406.241C299.964 406.328 299.679 406.359 299.396 406.333C299.114 406.307 298.84 406.223 298.592 406.088C298.39 405.956 298.222 405.779 298.101 405.57C297.981 405.362 297.912 405.129 297.899 404.889C297.899 404.634 297.899 403.895 297.694 402.951C297.402 401.266 297.24 399.561 297.206 397.851C297.104 397.527 297.104 397.18 297.206 396.857C297.295 396.655 297.429 396.477 297.598 396.335C297.767 396.194 297.966 396.093 298.181 396.041C300.086 395.543 302.023 395.177 303.978 394.944C304.319 394.939 304.652 395.042 304.93 395.24C305.207 395.437 305.413 395.718 305.517 396.041C306.004 398.438 306.287 399.942 306.492 400.937C306.767 401.749 306.897 402.604 306.876 403.461Z" fill="white"/>
</svg>
