<svg width="404" height="479" viewBox="0 0 404 479" fill="none" xmlns="http://www.w3.org/2000/svg">
<path d="M125.37 120.467C126.973 117.324 128.826 114.323 130.909 111.492C132.484 118.903 143.614 124.293 149.126 122.623C149.809 126.369 149.73 130.303 150.045 134.049C150.056 134.138 150.095 134.221 150.157 134.284C150.219 134.348 150.299 134.388 150.386 134.4C150.493 134.409 150.599 134.379 150.686 134.315C150.772 134.25 150.834 134.156 150.859 134.049C150.859 133.241 151.41 121.356 149.809 121.194C155.426 108.501 169.47 119.011 169.26 112.867C169.542 113.189 169.891 113.441 170.282 113.605C170.672 113.769 171.094 113.841 171.515 113.815C171.936 113.79 172.346 113.667 172.715 113.456C173.083 113.245 173.401 112.951 173.644 112.597C177.555 108.312 178.211 101.655 192.019 104.728C190.811 105.455 193.147 107.234 193.646 107.773L198.896 114.187C198.96 114.237 199.039 114.265 199.119 114.265C199.2 114.265 199.278 114.237 199.342 114.187C199.432 114.136 199.498 114.051 199.527 113.95C199.557 113.85 199.547 113.741 199.5 113.648C197.826 110.54 195.732 107.691 193.279 105.186C199.369 102.491 200.655 90.579 199.526 84.5152C202.965 84.1379 207.69 84.2996 211.339 84.2996C211.837 84.2996 211.942 83.4911 211.339 83.4911C209.632 83.3564 198.739 82.0358 197.925 83.7606C192.491 80.2571 187.766 74.6785 181.256 73.2501C179.707 70.3126 169.05 57.8078 165.139 60.7723C163.222 62.2545 166.031 64.9226 167.081 66.0006C154.586 61.3113 154.219 67.5098 161.201 70.5282C163.961 71.6344 166.6 73.0345 169.076 74.7054C166.595 75.7036 164.509 77.5234 163.149 79.8764C161.789 82.2294 161.233 84.9811 161.569 87.6953C160.44 84.2996 152.197 82.7365 146.685 85.0003C146.841 80.3328 147.342 75.6842 148.181 71.0941C148.575 66.8091 143.824 67.7523 141.435 74.4898C140.726 71.175 138.18 70.07 137.104 73.0615C135.437 79.5442 135.437 86.36 137.104 92.8428C133.907 98.0045 131.904 103.849 131.25 109.929C129.806 109.363 125.291 119.038 124.871 120.116C124.849 120.157 124.834 120.202 124.829 120.248C124.823 120.295 124.827 120.342 124.839 120.387C124.851 120.432 124.872 120.474 124.9 120.511C124.928 120.547 124.963 120.578 125.002 120.601C125.042 120.624 125.086 120.639 125.131 120.645C125.176 120.65 125.222 120.647 125.266 120.634C125.31 120.622 125.351 120.601 125.387 120.572C125.422 120.543 125.452 120.507 125.475 120.467H125.37ZM165.742 61.985C166.11 61.0148 168.21 61.985 168.787 62.1737C172.938 64.7954 176.514 68.2735 179.287 72.3877C174.536 69.0729 170.861 68.5608 167.37 64.6261C166.819 64.0871 165.375 62.8205 165.742 61.985ZM164.325 70.4473C162.435 69.558 158.76 68.6147 158.156 66.1892C157.71 64.5453 165.532 66.6474 166.215 66.8899C170.288 68.4505 174.165 70.5042 177.765 73.0076C175.253 73.0614 172.764 73.516 170.389 74.3551C168.579 72.7277 166.533 71.4001 164.325 70.4204V70.4473ZM162.75 85.2698C163.354 78.155 168.866 75.2444 175.507 74.3281C187.215 72.765 194.04 84.8117 198.135 85.4854C198.686 91.4414 198.502 99.715 193.567 103.811C182.779 100.524 177.66 104 173.775 110.603C169.89 117.206 167.554 108.42 172.856 102.518C175.049 100.617 176.89 98.3257 178.29 95.7534C180.127 91.1988 178.552 82.6557 173.04 81.3621C168.472 80.2571 166.372 83.4372 164.745 87.1024C163.931 89.4471 162.409 89.1776 162.75 85.2698ZM161.831 88.1804C162.461 90.0939 164.614 89.9591 165.506 88.1804C166.635 85.9975 166.95 83.7876 169.601 82.9252C176.767 80.5805 179.707 91.2258 176.662 96.4002C174.457 100.2 168.236 103.407 168.551 110.791C165.375 105.725 156.266 107.153 152.486 105.105C146.029 101.494 146.659 88.2343 158.051 90.2017C159.784 90.4442 161.936 90.5251 161.805 88.1804H161.831ZM142.485 75.6756C144.191 70.4204 147.735 67.4289 147.131 71.9835C146.974 73.5735 145.215 85.0542 145.766 85.6741C143.722 86.7796 141.847 88.187 140.201 89.8513C140.474 85.0587 141.231 80.3081 142.459 75.6756H142.485ZM137.419 79.8529C137.419 79.1522 138.469 69.6658 140.044 73.8969C140.211 75.0805 140.456 76.2511 140.779 77.4004C140.227 79.5834 138.626 89.5279 139.23 90.8754L137.944 92.196C137.453 88.1021 137.269 83.9756 137.392 79.8529H137.419ZM138.364 93.3279C142.406 88.5847 147.184 84.5691 153.641 84.9734C157.92 85.2429 159.862 86.6712 160.492 87.6684C161.359 89.3393 159.232 89.2315 158.261 88.9889C145.766 85.9166 143.745 101.763 152.04 105.887C155.137 107.423 159.679 107.531 162.986 108.393C166.294 109.255 169.444 112.166 167.869 113.486C166.294 114.807 163.879 113.19 159.731 113.19C154.954 113.406 149.231 116.559 148.575 121.275C144.427 122.623 132.641 118.014 131.959 111.142C133.087 105.779 134.872 97.5051 138.337 93.4357L138.364 93.3279ZM63.2623 381.316C64.3911 378.243 63.6298 373.608 60.1911 372.449C61.661 362.531 43.5223 363.987 43.9161 368.865C38.6957 369.073 33.5591 370.279 28.7698 372.422C28.864 372.236 28.8838 372.019 28.825 371.818C28.7662 371.616 28.6334 371.447 28.4548 371.344H28.0611L13.5448 372.961C13.4381 372.975 13.3404 373.03 13.2721 373.115C13.2037 373.2 13.1698 373.309 13.1773 373.419C13.1838 373.476 13.2012 373.531 13.2285 373.581C13.2559 373.631 13.2926 373.674 13.3366 373.709C13.3806 373.745 13.4309 373.77 13.4847 373.785C13.5384 373.8 13.5946 373.804 13.6498 373.797L27.6411 372.853C28.0348 382.609 32.8911 394.225 38.1411 402.31C34.2458 406.338 29.9627 409.949 25.3573 413.09C24.9898 413.359 25.3573 414.033 25.7511 413.871C27.7461 412.901 41.0286 403.927 39.7948 402.067C48.5098 401.178 52.106 401.339 58.5635 410.637C61.976 415.623 67.0948 409.667 59.7973 398.59C58.2223 396.192 59.1673 396.461 58.8786 395.896C61.345 394.309 63.4491 392.195 65.0473 389.697C65.7655 388.309 65.9803 386.705 65.6534 385.17C65.3264 383.635 64.479 382.269 63.2623 381.316ZM63.4986 389.589C61.9235 392.042 57.0673 394.979 57.4873 395.896C56.2798 397.998 61.2411 401.905 62.1861 407.349C62.3698 408.292 62.4486 411.284 60.8998 411.149C58.0123 410.907 54.8098 396.623 39.0598 401.016C33.8418 392.699 30.3727 383.354 28.8748 373.581C41.5798 370.185 37.9836 370.077 51.6336 369.646C51.7426 369.62 51.8382 369.553 51.9015 369.458C51.9647 369.364 51.9908 369.248 51.9748 369.134C51.9638 369.045 51.9244 368.962 51.8626 368.899C51.8008 368.836 51.7202 368.795 51.6336 368.784C49.4412 368.595 47.2372 368.595 45.0448 368.784C50.4785 363.609 63.0786 366.439 57.1723 376.06C56.3848 377.381 58.8523 377.246 59.9811 373.365C65.6511 377.623 60.7685 383.283 60.1123 384.738C59.7185 385.574 61.241 385.681 62.8948 382.205C63.7889 383.187 64.3347 384.45 64.4442 385.79C64.5538 387.129 64.2206 388.468 63.4986 389.589ZM380.992 308.416C384.802 303.746 387.155 298.008 387.745 291.947C388.335 285.886 387.134 279.783 384.3 274.432C378.551 263.652 367.395 255.324 370.177 241.499C371.122 236.81 372.986 232.363 373.879 227.674C376.005 216.193 373.879 203.419 366.187 194.39C359.284 186.494 347.97 183.88 345.896 173.962C344.61 167.791 346.815 161.592 344.741 153.561C343.211 147.465 340.036 141.936 335.582 137.61C331.128 133.284 325.575 130.337 319.562 129.106C313.548 127.876 307.319 128.413 301.59 130.656C295.86 132.899 290.864 136.756 287.175 141.784C311.456 149.384 318.071 177.304 308.175 200.858C303.292 212.555 292.766 223.981 280.061 233.576L280.219 231.878C291.979 222.661 302.977 207.353 306.101 199.915C317.257 172.965 305.944 143.59 275.914 140.625C257.696 138.766 235.489 144.344 224.017 160.056C220.605 164.745 215.512 181.616 222.285 183.53C221.077 190.536 218.531 206.545 218.006 212.986C216.877 227.566 221.812 242.793 237.562 244.949C237.597 248.109 237.44 251.268 237.09 254.408C196.114 263.302 169.89 291.788 158.839 308.146C153.479 298.942 147.33 290.247 140.464 282.167C141.592 280.415 141.697 273.812 141.802 271.387C144.427 273.111 159.259 279.31 162.645 279.148C163.163 279.178 163.671 278.996 164.06 278.643C164.448 278.29 164.685 277.793 164.719 277.262C164.746 277.038 164.746 276.812 164.719 276.588C163.536 274.087 161.724 271.956 159.469 270.416C159.864 269.571 159.965 268.613 159.755 267.7C159.544 266.788 159.036 265.977 158.314 265.404C154.301 262.468 150.129 259.769 145.819 257.319C145.425 257.076 144.952 257.723 145.346 257.992L156.345 265.916C157.657 266.805 158.707 267.775 158.182 269.5C153.386 265.559 148.334 261.957 143.062 258.72C138.705 256.025 138.075 256.941 137.261 253.034C136.762 250.581 136.684 245.164 132.72 246.943C131.88 245.488 123.716 245.38 123.165 248.506C115.925 245.155 108.46 242.344 100.826 240.098C100.275 240.098 99.9335 240.879 100.301 241.256C105.866 247.239 113.032 251.47 119.647 256.052C119.08 256.238 118.579 256.594 118.209 257.074C117.84 257.554 117.619 258.137 117.574 258.747C112.665 256.295 104.002 263.221 111.72 279.795C112.801 282.145 114.139 284.36 115.71 286.398C109.016 312.162 110.46 342.022 114.712 368.191C118.492 391.314 125.212 418.426 147.341 430.014C156.844 434.973 170.362 436.267 178.29 427.589L183.067 437.991C179.996 445.699 176.505 470.331 176.295 478.282C176.295 478.821 177.004 478.821 177.082 478.282C178.546 464.684 180.994 451.216 184.406 437.991C224.542 448.044 283.421 449.472 330.855 432.979C336.979 435.35 343.346 436.996 349.834 437.884C352.879 441.818 360.622 461.438 361.672 466.531C361.708 466.645 361.786 466.739 361.889 466.795C361.992 466.85 362.112 466.862 362.224 466.828C362.316 466.794 362.396 466.732 362.452 466.65C362.508 466.568 362.539 466.47 362.539 466.37C360.419 456.474 356.88 446.956 352.039 438.126C386.164 441.495 410.182 418.264 410.812 383.822C411.311 356.872 397.031 329.086 381.019 308.524L380.992 308.416ZM155.295 274.89C155.925 273.569 156.581 272.195 157.211 270.982C157.736 270.282 159.495 270.74 157.211 274.647C155.715 276.992 155.032 275.537 155.295 274.89ZM113.846 250.635L106.365 245.245L107.284 243.763L115.631 246.943C114.975 248.142 114.38 249.374 113.846 250.635ZM289.065 251.632C281.888 265.301 270.927 276.48 257.565 283.757C254.04 278.194 250.849 272.416 248.01 266.455C255.386 265.781 278.145 257.292 279.877 250.958C282.948 251.018 286.015 251.233 289.065 251.605V251.632ZM220.972 227.916C217.114 215.519 221.655 197.031 223.256 183.718C230.527 184.877 245.017 175.903 248.929 168.006C252.866 176.9 263.419 183.314 272.764 184.176C271.267 191.022 273.472 203.985 280.639 201.37C282.555 200.67 284.839 198.675 286.86 200.077C287.666 200.864 288.244 201.864 288.531 202.968C288.819 204.071 288.803 205.234 288.487 206.329C286.466 216.328 277.62 214.684 277.804 245.973L278.014 251.201C268.737 258.373 257.946 263.202 246.514 265.296C243.232 261.963 240.414 258.181 238.14 254.058C238.35 253.141 240.424 244.005 238.35 243.601C237.772 242.361 225.75 243.332 220.972 227.916ZM226.774 258.72C228.034 258.316 237.274 255.782 237.562 255.405C239.489 259.484 242.163 263.144 245.437 266.185C240.663 269.546 236.384 273.594 232.732 278.205C229.74 272.081 227.728 265.501 226.774 258.72ZM131.539 247.94C130.53 248.957 129.891 250.298 129.727 251.74C127.864 250.824 125.974 249.961 124.057 249.045C125.141 248.291 126.378 247.799 127.674 247.608C128.97 247.416 130.292 247.53 131.539 247.94ZM127.627 263.194C130.252 272.06 125.869 272.977 123.48 268.772C122.96 265.319 121.335 262.142 118.86 259.744C120.514 253.842 126 257.992 127.627 263.059V263.194ZM111.3 274.459C110.171 270.659 109.252 265.646 111.772 262.197C117.022 255.028 121.747 264.541 122.272 269.904C122.614 273.974 120.487 273.435 119.122 271.683C117.757 269.931 116.497 267.425 114.581 267.021C112.665 266.616 116.182 270.039 116.287 270.147C116.97 270.955 117.442 271.899 118.151 272.842C120.566 275.806 123.9 274.836 123.716 270.659C125.002 272.195 126.866 273.354 128.415 271.899C128.179 276.076 129.202 274.243 129.202 274.189C129.36 267.694 132.274 264.838 131.827 259.097C131.256 256.673 131.062 254.172 131.25 251.686C131.591 249.961 132.956 247.59 134.951 248.183C136.316 251.551 135.24 253.788 138.022 258.963C140.805 264.137 140.647 266.293 140.306 272.438C140.122 275.133 139.702 277.828 139.466 280.523C136.841 284.915 121.275 287.799 116.786 286.128C114.628 282.364 112.792 278.414 111.3 274.324V274.459ZM116.707 287.152C121.957 289.147 135.319 287.476 139.781 283.002C143.587 288.122 147.499 293.108 151.069 298.39C140.096 307.607 122.43 307.742 113.636 306.961C114.319 300.196 115.5 293.755 116.707 287.018V287.152ZM403.751 409.128C392.201 434.03 367.185 440.956 342.405 435.108C323.164 430.58 299.775 417.321 284.287 404.412C295.417 394.063 300.195 375.953 299.171 363.987C319.331 360.861 336.184 359.297 356.449 358.139C356.546 358.139 356.639 358.099 356.708 358.028C356.777 357.957 356.816 357.861 356.816 357.761C356.816 357.661 356.777 357.565 356.708 357.494C356.639 357.424 356.546 357.384 356.449 357.384C346.526 357.6 336.604 358.354 326.734 359.27C327.259 357.68 319.121 351.778 312.637 337.872C312.454 337.441 311.64 337.603 311.797 338.142C314.85 346.148 319.551 353.382 325.579 359.351C309.368 360.68 293.254 363.047 277.331 366.439C273.184 359.27 264.889 352.425 256.699 351.266C254.809 342.373 251.16 323.05 248.824 314.911C248.535 313.914 238.324 315.935 236.906 316.097C237.274 318.145 238.035 321.945 235.174 322.484C228.979 323.67 202.65 327.874 196.061 327.874C193.436 327.874 193.279 324.235 193.174 322.484C191.835 322.672 183.592 323.454 183.33 324.532C182.7 327.227 199.264 405.624 200.786 412.631C200.996 413.656 207.086 412.847 208.11 412.793C228.001 411.902 247.831 409.914 267.514 406.837C267.676 406.817 267.825 406.732 267.928 406.602C268.03 406.471 268.08 406.304 268.065 406.136C268.076 406.083 268.076 406.028 268.065 405.975C268.59 405.409 265.44 391.961 265.046 390.182C266.175 390.344 267.461 390.613 268.669 390.721C287.306 414.976 317.205 427.912 329.044 432.494C278.25 446.885 234.754 447.37 183.75 436.752C176.164 417.725 168.525 396.165 167.212 375.656C165.244 345.095 179.025 313.429 198.424 290.764C198.739 290.386 198.214 289.82 197.872 290.198C178.999 310.787 164.929 343.047 165.349 371.506C165.611 388.808 171.544 409.586 177.791 425.999C171.045 433.922 159.259 433.599 150.491 429.799C128.074 420.124 120.619 393.847 116.707 371.533C112.763 350.598 111.676 329.201 113.479 307.958C126 310.114 141.619 307.419 151.935 299.63C157.498 308.01 162.48 316.782 166.845 325.879C167.206 326.84 167.691 327.747 168.289 328.574C168.395 328.677 168.536 328.734 168.682 328.734C168.828 328.734 168.969 328.677 169.076 328.574C169.146 328.51 169.201 328.431 169.237 328.343C169.274 328.254 169.29 328.158 169.286 328.062C168.945 325.367 160.729 311.084 159.6 309.197C175.947 285.834 199.004 268.306 225.54 259.07C225.067 261.011 230.396 281.196 232.732 279.498C237.014 274.967 241.649 270.803 246.592 267.048C249.329 273.467 252.858 279.5 257.092 284.996C258.825 287.341 284.602 267.775 290.482 251.713C322.954 256.375 354.034 278.663 375.217 303.565C398.055 330.542 420 373.877 403.751 408.993V409.128ZM252.157 377.543C246.907 373.931 239.347 369.458 237.274 362.747C236.407 360.052 241.736 363.151 242.839 363.286C245.494 366.403 248.56 369.124 251.947 371.371C252.367 371.641 252.761 370.967 252.367 370.67C248.246 367.76 240.765 360.726 240.476 355.228C240.319 351.536 245.254 356.683 246.724 357.626C248.194 358.57 257.407 365.927 259.507 363.475C260.531 362.316 258.772 359.836 258.3 358.705C257.854 356.441 257.381 354.204 256.882 351.967C267.382 354.662 269.797 359.082 276.229 367.032C278.512 374.362 272.37 387.406 268.721 389.535C261.319 387.918 253.496 387.137 247.222 382.367C244.44 380.265 239.347 376.438 238.691 372.665C238.14 369.727 244.282 373.554 245.122 374.174C247.268 375.658 249.494 377.017 251.79 378.243C251.88 378.293 251.986 378.304 252.085 378.274C252.183 378.244 252.266 378.174 252.315 378.082C252.364 377.989 252.374 377.88 252.345 377.779C252.315 377.677 252.248 377.593 252.157 377.543ZM273.157 385.897C276.686 380.464 278.238 373.928 277.541 367.436L298.121 363.933C297.885 379.618 293.685 391.799 282.949 403.307C278.15 399.211 273.65 394.762 269.482 389.993C271.043 388.958 272.339 387.553 273.262 385.897H273.157Z" fill="#BD9FC1"/>
<path d="M234.727 314.264C233.205 310.329 228.427 312.027 225.409 312.485C223.125 312.836 220.395 314.237 219.476 312.189C217.822 308.416 215.775 305.182 211.076 306.071C204.461 307.23 207.375 314.857 204.986 315.504C200.707 316.662 193.804 314.533 194.722 323.05C194.722 323.669 195.011 325.96 195.956 325.987C202.02 325.987 228.086 321.837 234.754 320.597C236.486 320.274 235.095 315.207 234.754 314.21L234.727 314.264ZM211.102 315.126C207.874 312.62 211.102 308.416 213.386 310.599C216.72 313.725 213.439 316.878 211.234 315.126H211.102ZM242.104 214.118C242.917 213.956 242.786 212.501 241.946 212.609C237.379 213.121 237.956 211.8 238.534 206.248C238.855 202.669 239.478 199.125 240.397 195.657C240.393 195.563 240.359 195.473 240.301 195.401C240.242 195.328 240.162 195.278 240.073 195.256C239.984 195.235 239.89 195.244 239.807 195.282C239.723 195.321 239.654 195.386 239.61 195.468C238.038 200.449 237.06 205.607 236.696 210.83C236.565 214.118 239.531 214.603 242.104 214.118ZM430.159 90.1747L417.296 94.4867C413.989 87.857 406.954 77.9933 400.339 74.1394L408.844 62.3892C409.054 62.0928 408.686 61.6077 408.397 61.8772C407.321 62.9013 399.157 71.8756 398.816 73.8969C380.179 84.0031 373.406 100.308 383.066 102.14C381.937 105.267 384.851 107.989 387.686 108.231C387.056 112.516 395.194 118.095 401.179 106.965C403.646 107.261 404.775 112.193 406.219 114.834C409.211 120.224 414.094 122.057 415.144 118.715C416.351 114.376 407.977 103.003 416.771 96.0767C417.9 96.6427 429.03 91.7378 430.526 90.6867C430.867 90.5789 430.5 90.0669 430.159 90.1747ZM386.977 106.911H386.767C385.826 106.645 385.023 106.011 384.532 105.144C384.041 104.277 383.901 103.247 384.142 102.275C388.237 102.275 390.862 99.3916 393.356 96.3732C394.17 95.6186 397.005 94.9987 397.215 96.7235C397.661 101.386 391.676 108.204 386.977 106.911ZM392.857 112.301C391.786 112.267 390.761 111.845 389.964 111.11C389.167 110.375 388.648 109.375 388.5 108.285C392.149 108.069 394.59 105.132 396.69 102.383C397.766 101.251 401.467 100.254 401.021 103.407C400.575 106.56 396.532 112.759 392.857 112.193V112.301ZM412.099 110.98C412.44 112.22 415.485 119.523 412.624 119.065C406.324 118.203 406.009 106.506 401.599 106.021C403.567 101.628 401.336 98.7987 397.714 100.631C398.947 97.532 398.764 93.4087 394.222 94.7292C397.819 86.4556 387.371 90.1477 384.562 94.3789C384.169 94.9718 384.982 95.6455 385.402 95.0526C388.736 90.2825 397.766 87.9917 391.965 96.4271C383.696 108.339 368.34 96.4271 393.514 78.8826L399.551 74.8401C406.221 80.4819 411.78 87.3787 415.931 95.1604C411.259 98.7987 410.576 105.348 412.125 110.872L412.099 110.98ZM511.507 372.18C505.824 372.502 500.163 373.15 494.55 374.12C493.815 374.389 493.946 375.845 494.025 376.438C484.916 373.446 488.644 357.573 484.286 356.171C483.592 356.001 482.863 356.051 482.197 356.316C481.531 356.581 480.96 357.047 480.559 357.653C477.802 361.319 477.934 366.574 478.091 371.128C473.287 369.458 463.654 371.371 465.701 379.052C463.26 379.914 463.076 386.625 464.284 389.266C463.389 392.461 463.762 395.889 465.321 398.802C466.88 401.716 469.499 403.878 472.605 404.816L473.392 405.005C478.171 406.272 483.113 406.763 488.04 406.46C487.147 409.155 501.165 414.545 503.396 415.111C503.499 415.143 503.61 415.134 503.706 415.085C503.802 415.036 503.876 414.951 503.913 414.847C503.95 414.743 503.947 414.629 503.905 414.528C503.862 414.427 503.784 414.346 503.685 414.302C498.702 412.043 493.839 409.515 489.116 406.729C495.154 398.833 496.991 385.169 495.469 375.602C500.719 374.821 506.284 374.416 511.586 373.177C512.006 372.907 511.875 372.18 511.507 372.18ZM488.512 405.247C480.795 403.522 464.887 407.026 465.202 390.559C466.462 391.907 467.092 390.991 466.567 390.559C464.52 388.942 464.284 382.124 466.147 380.184C467.092 382.259 467.512 380.965 467.381 380.615C463.864 372.287 473.156 370.967 478.039 372.53C477.75 375.44 475.072 374.524 473.34 373.689C473.245 373.649 473.139 373.646 473.043 373.681C472.946 373.716 472.865 373.786 472.815 373.877C472.765 373.953 472.739 374.042 472.739 374.133C472.739 374.225 472.765 374.314 472.815 374.389C475.151 376.518 478.957 376.249 479.194 372.476C479.377 369.431 478.669 359.432 482.554 357.653C486.439 355.875 484.47 365.253 486.99 371.344C488.014 373.823 491.767 378.594 494.104 378.135C495.337 388.673 493.132 395.734 488.512 405.247ZM469.14 253.33C470.767 253.195 474.206 252.602 474.39 250.446C479.535 250.77 484.68 250.904 489.825 250.851C490.324 252.764 503.842 253.168 505.811 252.845C506.205 252.845 506.389 252.144 505.811 252.036L491.426 250.204C492.581 242.415 491.19 225.221 486.412 219.912C488.617 217.567 499.117 212.609 502.74 210.614C502.803 210.545 502.837 210.453 502.837 210.358C502.837 210.263 502.803 210.172 502.74 210.102C502.702 210.034 502.642 209.98 502.57 209.951C502.499 209.922 502.42 209.918 502.346 209.94C499.957 210.695 485.284 216.947 484.654 219.723C470.137 219.103 469.166 204.146 464.074 205.952C460.267 207.326 462.341 215.169 463.706 217.837C464.231 218.915 466.62 222.095 464.1 222.337C457.8 222.984 452.944 230.746 457.721 234.546C455.989 237.861 456.645 242.819 458.981 244.14C456.461 251.632 463.496 253.95 469.14 253.33ZM459.9 247.131C459.844 246.238 459.966 245.342 460.26 244.498C460.553 243.655 461.011 242.882 461.606 242.227C462.131 241.715 461.16 240.556 459.637 243.143C457.642 238.319 457.616 235.759 461.554 231.905C462.341 231.15 460.425 230.746 458.404 233.71C455.411 227.943 460.084 225.113 464.625 223.415C468.274 222.472 465.596 218.726 464.992 217.621C463.365 214.603 462.367 207.623 464.992 207.111C467.617 206.599 468.405 213.687 475.912 218.484C478.892 220.585 482.499 221.539 486.097 221.179C489.694 227.727 490.927 241.391 490.35 249.261H466.462C466.042 249.261 466.069 249.826 466.462 249.88C468.615 250.096 470.767 250.258 472.92 250.419C472.5 252.495 460.031 253.815 459.9 247.131ZM231.84 186.979C230.252 187.253 228.806 188.081 227.745 189.324C226.327 191.183 227.509 192.019 227.745 191.237C228.729 189.84 230.192 188.877 231.84 188.542C233.362 188.003 232.706 186.979 231.84 186.979ZM252.709 188.919C254.577 189.161 256.285 190.125 257.486 191.614C257.88 192.153 258.825 191.83 257.486 189.809C256.992 189.04 256.333 188.397 255.559 187.93C254.786 187.463 253.918 187.184 253.024 187.114C252 187.356 251.79 188.65 252.709 188.919ZM71.5048 197.301C69.3442 196.094 66.9294 195.446 64.4698 195.414C64.4698 192.207 66.5698 189.593 67.8823 186.763C70.7961 180.403 67.5148 176.549 64.9686 177.843C62.0286 179.352 58.8786 190.483 47.0923 188.623C47.0923 186.467 36.8548 179.756 34.6761 178.705C34.2561 178.49 33.9936 179.164 34.3873 179.379C38.4168 182.064 42.1644 185.171 45.5698 188.65C35.8836 196.088 36.4611 213.525 36.9598 214.145C32.1561 214.333 27.4048 213.067 22.6273 213.552C22.1548 213.552 22.1548 214.387 22.6273 214.387C25.0161 214.387 36.9861 216.058 38.1148 215.384C42.7348 219.885 56.3061 225.706 63.1311 224.305C64.1749 224.136 65.175 223.754 66.0719 223.18C66.9688 222.607 67.744 221.853 68.3514 220.966C68.9589 220.078 69.3861 219.074 69.6077 218.013C69.8292 216.952 69.8406 215.857 69.6411 214.791C70.2284 214.577 70.7686 214.246 71.2307 213.817C71.6928 213.388 72.0677 212.869 72.3336 212.29C72.5995 211.711 72.7514 211.085 72.7803 210.445C72.8093 209.806 72.7148 209.168 72.5023 208.566C72.327 208.058 72.0697 207.585 71.7411 207.165C72.589 206.657 73.2886 205.925 73.767 205.044C74.2454 204.164 74.485 203.169 74.4609 202.161C74.4368 201.154 74.1498 200.171 73.6298 199.316C73.1099 198.461 72.376 197.765 71.5048 197.301ZM68.2498 218.699C63.9973 228.644 41.9998 218.268 38.3511 213.309C38.0361 212.851 37.9573 197.463 46.7248 189.458C57.7236 193.582 64.1548 178.678 66.1761 178.678C67.6198 178.678 68.0661 180.808 68.0661 181.939C68.0661 186.898 63.3673 190.429 63.3936 195.414C58.9311 195.873 57.4348 199.834 59.4823 201.855C54.5736 202.044 53.4186 206.194 57.7498 208.728C49.8748 209.482 55.7811 216.247 62.7636 217.244C63.2098 217.244 63.2886 216.624 62.7636 216.489C48.5361 211.342 57.5136 207.38 65.0473 211.261C67.9348 212.905 69.7461 215.007 68.2498 218.699ZM69.1948 213.309C67.7069 211.175 65.4985 209.686 62.9998 209.132C60.3748 208.377 59.1148 209.321 56.4898 206.572C54.4423 204.47 57.7498 201.397 64.7323 203.877C72.2661 206.437 73.1061 211.746 69.1161 213.39L69.1948 213.309ZM72.6598 203.85C72.1616 204.658 71.5099 205.354 70.7436 205.898C68.0154 203.524 64.6241 202.099 61.0573 201.829C60.6373 201.316 59.3773 201.128 59.5086 199.457C59.7973 194.04 75.8623 196.735 72.5811 203.931L72.6598 203.85ZM251.265 202.341C252.446 202.341 253.444 198.675 251.895 198.136C250.346 197.597 249.952 202.341 251.265 202.341ZM229.714 196.735C228.716 196.735 227.902 200.831 229.136 200.831C230.37 200.831 231.157 196.87 229.714 196.735ZM250.294 222.364C260.295 223.739 259.271 212.635 257.092 214.495C256.069 215.438 259.087 221.152 250.372 221.664C249.979 221.664 249.847 222.364 250.294 222.364Z" fill="#BD9FC1"/>
</svg>
