<svg width="467" height="468" viewBox="0 0 467 468" fill="none" xmlns="http://www.w3.org/2000/svg">
<path d="M337.493 306.536C341.11 303.348 344.752 299.982 344.008 295.316C343.627 292.823 342.276 290.579 340.247 289.067C338.217 287.555 335.672 286.896 333.158 287.232L318.999 224.069C320.051 225.344 320.179 225.803 320.872 225.803C321.044 225.803 321.213 225.761 321.365 225.681C321.518 225.601 321.647 225.485 321.744 225.344C325.798 219.716 329.433 213.801 332.62 207.647C338.417 198.467 328.644 193.418 323.257 202.547C322.826 201.008 322.072 199.577 321.047 198.346C320.022 197.116 318.747 196.114 317.307 195.407C315.78 194.87 314.114 194.87 312.587 195.407L276.241 33.4051C274.654 26.4518 270.365 20.4047 264.311 16.583C258.256 12.7612 250.927 11.4751 243.922 13.0051C146.067 34.5781 83.4298 47.8126 77.1199 49.2661C62.2173 52.7341 51.47 82.4161 54.8045 96.7726L85.5075 233.223C85.3235 233.072 85.0922 232.989 84.8534 232.989C84.6146 232.989 84.3833 233.072 84.1993 233.223C59.8318 250.92 42.9798 279.123 34.977 307.428C22.7163 350.345 31.7451 399.228 47.4172 440.844C50.6894 450.131 55.4253 458.841 61.4478 466.65C62.0634 467.441 63.3459 466.472 62.8072 465.656C52.342 449.846 47.6225 436.305 42.0308 416.823C32.0273 383.214 27.9233 347.361 36.0543 313.14C49.7771 257.729 84.5328 236.793 85.8666 234.855L96.9987 284.555C86.8147 295.682 78.5392 308.397 72.503 322.193C72.0156 323.289 73.016 323.774 73.6059 322.575C83.1785 302.912 96.8851 285.52 113.799 271.575C122.905 264.206 132.729 256.811 143.964 254.796C148.587 253.933 153.361 254.384 157.738 256.097C175.231 263.186 169.537 282.03 159.995 298.274C137.526 336.524 135.32 340.502 132.19 349.095C125.855 368.271 132.19 384.795 135.268 403.971C142.476 447.627 125.547 462.239 122.059 467.211C120.674 469.226 122.29 469.608 122.931 469.073C128.125 464.649 132.164 459.04 134.704 452.727L140.014 476.468C140.79 479.953 142.251 483.251 144.312 486.174C146.374 489.097 148.995 491.587 152.026 493.501C155.057 495.415 158.438 496.716 161.975 497.329C165.513 497.941 169.137 497.854 172.641 497.072L335.646 460.964C349.215 457.853 365.4 435.056 361.938 417.741C361.835 414.018 363.63 423.045 337.493 306.536ZM106.438 274.967L62.8329 80.7076C61.4912 74.7754 62.4425 68.5586 65.4979 63.2914C68.5532 58.0242 73.4892 54.0919 79.3259 52.2751C80.3005 51.9436 242.691 15.5806 244.409 15.1981C247.581 14.4959 250.861 14.4235 254.061 14.985C257.261 15.5464 260.318 16.7307 263.056 18.4698C265.795 20.2089 268.161 22.4686 270.018 25.1191C271.876 27.7696 273.189 30.7589 273.881 33.9151L310.381 196.682C309.372 197.493 308.602 198.558 308.15 199.767C305.123 206.576 311.022 213.869 315.588 219.836L330.798 287.691C329.138 288.216 327.608 289.085 326.31 290.241C326.13 284.147 323.616 278.639 317.871 278.282L313.254 257.627C316.306 250.487 317.563 248.217 318.563 242.582C318.854 241.032 318.766 239.435 318.307 237.927C317.848 236.418 317.031 235.041 315.925 233.911C314.819 232.781 313.456 231.932 311.951 231.436C310.446 230.939 308.843 230.808 307.277 231.056L266.237 47.4556C264.824 41.3513 261.041 36.0498 255.712 32.7063C250.384 29.3628 243.943 28.2483 237.792 29.6056L95.075 61.0471C88.9382 62.4585 83.6098 66.2208 80.2477 71.5161C76.8856 76.8114 75.7616 83.212 77.1199 89.3266L116.852 266.552C113.03 269.204 109.695 271.983 106.438 274.967ZM151.505 252.246C139.244 250.946 128.42 258.009 118.622 264.996L79.095 88.8421C77.8717 83.3075 78.9043 77.5165 81.9667 72.7371C85.029 67.9578 89.8716 64.5795 95.434 63.3421C249.975 28.9936 239.433 31.1866 242.896 31.1611C247.805 31.1533 252.569 32.8163 256.395 35.8735C260.222 38.9307 262.88 43.1979 263.929 47.9656L304.969 231.566C298.146 233.376 294.247 240.797 293.349 246.866C288.809 240.618 280.371 237.941 275.394 244.01C274.264 245.924 273.724 248.127 273.842 250.344C273.961 252.561 274.733 254.695 276.061 256.479C277.983 259.186 280.11 261.743 282.423 264.129L268.905 268.005C267.956 254.694 260.825 230.775 246.692 211.319C244.242 207.568 241.026 204.371 237.253 201.935C241.855 197.715 245.713 192.759 248.667 187.272C248.786 187.067 248.834 186.827 248.802 186.592C248.769 186.357 248.659 186.139 248.489 185.973C248.319 185.807 248.098 185.701 247.861 185.673C247.624 185.645 247.384 185.696 247.179 185.819C246.615 186.176 246 186.507 245.41 186.813C246.192 185.632 246.797 184.343 247.205 182.988C247.244 182.81 247.236 182.625 247.181 182.45C247.126 182.276 247.026 182.12 246.891 181.996C246.756 181.872 246.591 181.786 246.412 181.745C246.233 181.704 246.047 181.711 245.871 181.764C243.306 182.81 241.177 180.107 240.51 177.404C238.587 169.448 240.51 166.082 235.868 156.392C239.841 149.828 242.295 142.468 243.05 134.844C243.511 133.162 243.43 131.378 242.819 129.744C242.389 129.019 241.734 128.453 240.952 128.131C240.17 127.809 239.304 127.748 238.484 127.959C232.324 129.04 226.359 131.025 220.786 133.85C221.606 127.398 222.607 121.304 222.812 115.184C227.172 113.271 239.305 107.789 236.766 97.5121C235.457 92.1316 228.07 85.3741 222.222 87.0826C222.538 83.6862 221.667 80.2853 219.756 77.4523C217.845 74.6193 215.012 72.527 211.731 71.5276C208.036 70.7129 204.173 71.1396 200.748 72.7408C197.322 74.3419 194.528 77.0272 192.801 80.3761C190.192 77.3927 187.031 74.9343 183.49 73.1341C180.819 72.007 177.901 71.5836 175.018 71.9047C172.134 72.2258 169.382 73.2806 167.028 74.9673C164.674 76.6539 162.797 78.9154 161.579 81.5334C160.36 84.1514 159.841 87.0375 160.072 89.9131C151.684 88.0261 142.297 93.6361 142.758 102.663C142.825 104.723 143.406 106.734 144.45 108.514C145.493 110.295 146.966 111.789 148.735 112.863C151.125 113.853 153.608 114.605 156.148 115.107C157.557 115.587 158.83 116.396 159.861 117.465C160.891 118.534 161.65 119.833 162.073 121.253C164.671 128.339 166.729 135.61 168.229 143.004C168.229 143.259 168.665 142.494 166.382 144.917C164.586 143.19 162.637 141.628 160.559 140.25C158.277 138.389 156.199 136.731 154.07 135.15C140.398 124.593 139.911 145.529 145.913 158.916C147.84 163.422 150.433 167.617 153.608 171.36C153.454 172.1 153.352 172.865 153.249 173.604C152.121 173.222 150.684 175.262 150.402 176.409C150.353 176.564 150.342 176.727 150.369 176.887C150.397 177.047 150.462 177.198 150.56 177.327C150.658 177.457 150.785 177.562 150.932 177.632C151.078 177.703 151.239 177.739 151.402 177.735H152.839C152.489 181.302 152.369 184.888 152.48 188.471C152.659 192.449 152.48 201.807 148.581 202.139C148.403 202.134 148.228 202.183 148.079 202.279C147.931 202.376 147.815 202.515 147.748 202.679C147.681 202.842 147.666 203.022 147.705 203.195C147.744 203.367 147.835 203.523 147.965 203.643C148.978 204.501 150.088 205.237 151.274 205.836H148.914C148.755 205.832 148.598 205.874 148.461 205.955C148.324 206.036 148.213 206.154 148.141 206.295C148.068 206.437 148.037 206.595 148.052 206.753C148.066 206.911 148.125 207.062 148.222 207.188C155.429 215.781 166.177 218.739 177.617 219.938C176.693 224.477 174.667 231.693 171.486 235.467C170.339 236.617 168.992 237.55 167.511 238.221C160.611 239.879 157.251 248.421 160.739 255.408C157.923 253.711 154.775 252.633 151.505 252.246ZM258.696 304.19C254.028 312.171 250.129 313.395 241.075 314.568L184.645 322.55C178.386 323.672 155.917 326.987 157.687 320.994C159.482 316.532 169.639 304.139 172.23 300.977C170.794 311.84 175.18 316.277 185.722 314.441C242.152 304.241 239.587 305.898 240.69 303.96C242.793 304.368 244.358 302.328 245.82 300.518C248.265 297.072 250.493 293.478 252.489 289.757C254.258 286.858 255.443 283.645 255.977 280.296C261.301 279.268 266.752 279.07 272.137 279.71C272.345 279.889 272.508 280.113 272.615 280.365C272.722 280.617 272.769 280.89 272.752 281.163C272.214 282.515 273.907 278.154 258.722 304.19H258.696ZM273.599 284.274C274.249 288.163 273.327 292.15 271.034 295.367L262.339 309.978C260.51 313.831 258.134 317.404 255.285 320.586C253.412 322.104 251.105 322.996 248.693 323.136C246.589 323.442 173.974 332.469 173.974 332.469C164.125 334.178 159.61 333.846 157.61 324.641C164.073 328.466 181.233 324.36 240.741 316.634C249.847 315.461 255.234 314.415 260.261 305.439L273.599 284.274ZM193.417 274.89C193.967 275.268 194.475 275.704 194.93 276.191C193.518 277.457 192.285 278.906 191.262 280.5C191.249 280.567 191.249 280.636 191.262 280.703C191.276 280.77 191.302 280.834 191.34 280.891C191.378 280.947 191.427 280.996 191.484 281.034C191.541 281.072 191.605 281.099 191.673 281.112C191.74 281.125 191.81 281.126 191.877 281.112C191.944 281.099 192.008 281.073 192.066 281.035C192.123 280.997 192.172 280.948 192.21 280.892C192.248 280.835 192.275 280.771 192.288 280.704C193.347 279.473 194.515 278.338 195.777 277.313C196.319 278.196 196.799 279.117 197.213 280.067C197.008 280.347 196.88 280.449 196.88 280.628C196.873 280.711 196.883 280.796 196.908 280.876C196.934 280.956 196.976 281.03 197.031 281.094C197.086 281.158 197.153 281.21 197.228 281.249C197.303 281.287 197.385 281.31 197.47 281.316C198.034 281.316 198.88 279.455 202.6 276.216C202.856 276.548 203.01 276.854 203.446 276.854C203.54 276.857 203.634 276.841 203.722 276.807C203.809 276.772 203.888 276.719 203.954 276.651C204.019 276.584 204.07 276.503 204.102 276.415C204.133 276.327 204.146 276.233 204.139 276.14C204.091 275.81 203.987 275.491 203.831 275.196C204.68 274.46 205.619 273.835 206.627 273.335C207.179 274.006 207.661 274.732 208.063 275.502C206.48 277.088 205.022 278.793 203.703 280.602C203.624 280.698 203.584 280.818 203.588 280.941C203.592 281.064 203.641 281.182 203.725 281.272C203.809 281.362 203.924 281.419 204.047 281.431C204.17 281.444 204.294 281.412 204.395 281.342C204.754 281.342 205.113 280.296 208.807 276.879C208.945 277.377 209.231 277.822 209.628 278.154C206.627 281.342 204.087 284.529 205.319 288.992C205.515 289.748 205.861 290.458 206.336 291.08C206.812 291.702 207.408 292.223 208.089 292.613C208.308 293.756 208.965 294.771 209.922 295.442C210.88 296.113 212.062 296.387 213.219 296.208C214.755 296.003 216.226 295.463 217.528 294.627C220.709 296.718 223.633 293.607 225.582 291.72C228.12 289.197 230.421 286.448 232.456 283.509C233.739 281.673 233.303 282.132 233.585 282.209C234.303 282.413 234.534 281.163 237.15 278.307C237.473 278.951 237.878 279.551 238.356 280.092C238.441 280.231 238.578 280.33 238.737 280.368C238.895 280.407 239.063 280.381 239.202 280.296C239.342 280.212 239.442 280.075 239.48 279.918C239.519 279.76 239.493 279.593 239.407 279.455C239.071 278.68 238.65 277.944 238.151 277.262C238.984 276.32 239.912 275.465 240.921 274.712C241.424 275.45 241.87 276.226 242.255 277.032C240.536 278.765 239.038 280.701 237.792 282.795C237.535 283.586 238.792 283.764 238.792 283.076C240.007 281.355 241.39 279.757 242.922 278.307C243.46 279.353 243.845 280.398 244.563 280.092C244.736 279.997 244.872 279.848 244.951 279.668C245.029 279.489 245.046 279.288 244.999 279.098C244.837 278.385 244.596 277.692 244.281 277.032C246.082 275.531 247.994 274.167 250.001 272.952C243.815 280.255 240.108 289.313 239.407 298.835C239.46 299.95 239.408 301.069 239.254 302.175V302.379C238.612 303.833 236.201 303.858 235.868 303.909C234.816 303.909 238.766 303.399 187.133 312.248C181.259 313.242 175.693 313.395 174.641 307.658C173.051 296.591 179.31 282.005 193.417 274.89ZM195.007 274.202C196.46 273.461 198.003 272.912 199.599 272.57C194.674 275.4 197.008 275.808 195.11 274.202H195.007ZM200.804 273.794C202.318 275.63 201.856 273.794 198.239 278.562C197.95 277.736 197.516 276.968 196.957 276.293C198.132 275.307 199.424 274.468 200.804 273.794ZM202.241 273.054C203.259 272.703 204.232 272.232 205.139 271.652C205.678 272.213 205.703 271.652 203.318 273.513C202.625 274.023 203.138 273.998 202.241 273.054ZM212.501 273.641C212.731 274.125 212.501 274.023 212.86 274.406C212.424 274.967 211.167 276.522 210.68 276.956C210.531 276.486 210.334 276.033 210.09 275.604C210.5 275.4 210.859 275.018 212.603 273.641H212.501ZM209.269 274.278C209.085 273.92 208.871 273.579 208.627 273.258C208.419 273 208.196 272.753 207.961 272.519C208.844 272.055 209.752 271.638 210.68 271.269C211.03 271.575 211.356 271.907 211.654 272.264C210.86 272.897 210.098 273.569 209.371 274.278H209.269ZM237.176 275.936C237.865 274.727 238.474 273.475 238.997 272.187L239.972 273.564C238.925 274.262 237.998 275.123 237.227 276.114L237.176 275.936ZM242.126 273.794C243.255 273.08 243.486 272.978 244.281 272.417C245.41 272.417 246.564 272.417 247.718 272.595C242.049 275.961 244.743 277.058 242.229 273.794H242.126ZM251.617 282.693C251.465 282.473 251.235 282.318 250.973 282.261C250.71 282.204 250.436 282.249 250.206 282.387C249.744 282.744 249.744 282.846 248.411 284.682C248.128 284.376 247.846 284.121 247.59 283.815C247.488 283.681 247.338 283.591 247.171 283.562C247.005 283.534 246.833 283.57 246.692 283.662C245.923 284.172 246.846 285.294 247.41 286.212C246.949 286.926 246.487 287.666 246.102 288.38C246.016 288.496 245.965 288.635 245.958 288.78C245.95 288.925 245.985 289.068 246.059 289.193C246.133 289.318 246.242 289.419 246.373 289.483C246.503 289.547 246.65 289.571 246.795 289.553C246.795 289.553 247.179 289.553 247.256 289.374C249.283 287.334 247.975 287.436 249.821 288.711C250.043 288.848 250.307 288.902 250.565 288.864C249.334 291.108 243.563 301.461 241.203 302.481C241.265 291.758 245.27 281.428 252.463 273.437C252.467 273.524 252.492 273.61 252.537 273.685C252.582 273.761 252.645 273.824 252.72 273.87C252.976 274.38 253.233 274.89 253.464 275.426C254.35 279.55 253.567 283.856 251.283 287.411C251.283 287.079 251.104 287.054 249.847 286.11C251.54 284.121 252.258 283.509 251.719 282.693H251.617ZM252.925 270.81C252.789 270.718 252.628 270.669 252.463 270.669C252.299 270.669 252.138 270.718 252.002 270.81C248.039 270.208 244.026 270.012 240.023 270.224C247.274 254.309 248.68 236.37 243.999 219.53C243.963 219.396 243.902 219.27 243.818 219.16C243.733 219.049 243.628 218.957 243.508 218.887C243.388 218.817 243.255 218.771 243.117 218.753C242.979 218.734 242.838 218.742 242.704 218.777C242.569 218.813 242.442 218.874 242.331 218.957C242.22 219.041 242.127 219.146 242.057 219.265C241.987 219.385 241.941 219.517 241.922 219.654C241.903 219.792 241.911 219.931 241.947 220.065C244.58 230.203 245.092 240.771 243.451 251.114C241.81 261.457 238.05 271.354 232.405 280.194C230.091 283.583 227.582 286.835 224.89 289.935C223.505 291.542 222.145 293.811 218.682 292.944C218.419 292.801 218.204 292.585 218.063 292.323C217.921 292.06 217.86 291.762 217.887 291.465C218.118 289.068 219.247 288.915 219.708 285.957C219.708 285.788 219.641 285.626 219.52 285.506C219.4 285.387 219.237 285.32 219.067 285.32C218.897 285.32 218.734 285.387 218.614 285.506C218.493 285.626 218.426 285.788 218.426 285.957C217.901 287.051 217.301 288.107 216.63 289.119C216.27 289.739 216.045 290.427 215.97 291.138C215.895 291.85 215.971 292.57 216.194 293.25L215.014 293.837C212.244 295.137 210.397 294.168 209.884 292.511C208.653 288.558 213.552 285.218 213.398 284.325C213.385 284.213 213.343 284.107 213.275 284.017C213.207 283.926 213.116 283.856 213.012 283.812C212.908 283.768 212.794 283.752 212.681 283.766C212.569 283.78 212.462 283.823 212.372 283.892C210.219 285.344 208.691 287.546 208.089 290.063C205.524 286.901 208.089 282.591 210.654 280.118C225.556 265.838 227.352 243.474 220.914 224.018C220.786 223.355 219.657 223.508 219.785 224.018C223.248 239.879 224.069 255.281 216.015 269.484C209.916 269.179 203.804 269.659 197.829 270.912C190.442 273.003 193.545 274.176 193.494 269.79C194.686 259.533 193.483 249.14 189.98 239.42C189.544 238.221 188.441 238.808 188.697 239.726C189.228 241.426 189.689 243.211 190.083 245.081C189.539 247.379 188.863 249.643 188.056 251.864C187.069 254.713 185.138 257.144 182.58 258.761C180.022 260.377 176.988 261.083 173.974 260.763C174.463 260.633 174.918 260.402 175.312 260.086C175.705 259.77 176.027 259.375 176.257 258.927C176.455 259.033 176.674 259.094 176.898 259.106C178.386 259.106 180.746 256.556 181.644 255.51C182.351 254.406 182.71 253.116 182.674 251.807C182.637 250.498 182.207 249.23 181.438 248.166C180.381 245.789 179.083 243.525 177.565 241.409C177.624 241.252 177.624 241.08 177.565 240.924C176.131 239.278 174.178 238.164 172.025 237.762C176.514 233.861 178.899 225.497 179.72 219.759C199.086 221.136 221.632 215.705 236.15 203.031C237.515 204.121 238.809 205.296 240.023 206.55C248.436 214.991 260.928 236.666 265.673 260.865C265.878 261.885 266.93 267.546 267.366 268.515C262.236 269.969 258.337 271.065 254.541 272.468C254.166 271.811 253.649 271.244 253.028 270.81H252.925ZM155.84 205.785C155.583 204.689 154.019 205.428 150.453 203.031C155.994 199.64 153.583 186.278 154.301 177.378C156.866 177.378 159.431 177.098 161.996 176.766C162.024 178.825 162.534 180.849 163.487 182.677C164.44 184.506 165.809 186.088 167.485 187.298C166.305 187.298 165.125 187.068 163.971 187.043C162.817 187.017 159.174 187.043 158.841 187.833C158.803 187.913 158.783 188 158.781 188.088C158.779 188.176 158.796 188.263 158.829 188.345C158.863 188.426 158.913 188.5 158.977 188.561C159.041 188.622 159.117 188.67 159.2 188.7C162.247 188.648 165.295 188.75 168.331 189.006C171.446 189.418 174.524 190.065 177.54 190.944C177.689 190.944 177.833 190.885 177.939 190.78C178.045 190.675 178.104 190.532 178.104 190.383C178.104 190.234 178.045 190.092 177.939 189.986C177.833 189.881 177.689 189.822 177.54 189.822L177.027 189.644C180.247 189.25 183.216 187.711 185.385 185.312C187.553 182.912 188.776 179.813 188.826 176.588C189.213 176.561 189.601 176.631 189.954 176.792C190.444 179.774 191.94 182.502 194.196 184.528C196.452 186.553 199.335 187.755 202.369 187.935C202.298 187.992 202.246 188.068 202.218 188.154C202.191 188.24 202.19 188.333 202.215 188.42C202.471 188.904 203.087 188.42 204.216 187.91C207.381 187.683 210.363 186.345 212.629 184.136C218.323 181.586 221.35 180.464 225.069 178.679C225.864 178.5 225.249 177.225 224.684 177.531C206.986 183.753 218.272 183.422 216.374 172.431C226.275 172.431 229.404 169.524 236.073 162.537C238.125 170.595 236.971 180.387 242.178 183.396C242.89 183.841 243.723 184.055 244.563 184.008C243.758 185.748 242.544 187.27 241.023 188.445C240.827 188.59 240.685 188.796 240.623 189.031C240.56 189.266 240.579 189.515 240.678 189.738C240.776 189.96 240.948 190.143 241.164 190.255C241.381 190.368 241.63 190.404 241.87 190.358C242.952 190.057 244.014 189.691 245.051 189.261C241.319 195.233 236.458 200.429 230.738 204.561C201.83 224.4 161.765 219.479 150.838 207.29C152.303 207.277 153.763 207.123 155.199 206.831C155.423 206.776 155.616 206.636 155.737 206.44C155.857 206.244 155.894 206.008 155.84 205.785ZM183.516 75.7351C186.839 77.807 189.766 80.449 192.16 83.5381C192.313 83.6938 192.503 83.8072 192.714 83.8672C192.924 83.9272 193.146 83.9316 193.358 83.8802C193.571 83.8287 193.766 83.723 193.925 83.5736C194.083 83.4241 194.2 83.2361 194.263 83.0281C195.538 79.8055 197.911 77.1307 200.968 75.4713C204.025 73.8119 207.571 73.2735 210.987 73.9501C214.094 74.8613 216.712 76.9577 218.269 79.7814C219.826 82.6051 220.196 85.9267 219.298 89.0206C219.225 89.2871 219.241 89.57 219.344 89.8266C219.447 90.0832 219.631 90.2997 219.868 90.4435C220.105 90.5872 220.383 90.6506 220.659 90.6239C220.936 90.5972 221.196 90.482 221.401 90.2956C224.351 87.7456 228.609 90.7801 229.84 91.7491C231.189 92.6715 232.317 93.8791 233.141 95.2854C233.966 96.6917 234.468 98.2619 234.611 99.8836C234.611 107.304 226.403 110.849 220.939 113.22C220.745 113.328 220.584 113.488 220.476 113.682C220.367 113.875 220.314 114.095 220.324 114.317C220.144 121.125 219.041 128.189 218.221 135.074C215.656 136.374 214.655 136.935 214.655 136.935C214.415 136.867 214.182 136.773 213.963 136.655C214.27 134.513 216.04 122.783 215.963 120.615C215.913 120.462 215.815 120.329 215.684 120.234C215.552 120.14 215.394 120.089 215.232 120.089C215.07 120.089 214.912 120.14 214.781 120.234C214.65 120.329 214.552 120.462 214.501 120.615C214.014 122.375 212.783 135.915 212.757 136.068C209.452 134.565 205.929 133.593 202.318 133.187C202.523 131.147 202.959 100.037 202.959 98.9401C202.959 98.5321 202.548 98.5576 202.292 98.5576C202.194 98.5574 202.1 98.5942 202.029 98.6605C201.957 98.7268 201.914 98.8176 201.907 98.9146C200.65 112.251 200.368 128.877 200.548 133.008H199.778C193.497 132.195 187.11 132.931 181.182 135.15C180.874 132.141 178.617 120.513 177.001 113.373C177.001 112.787 175.949 112.583 175.949 113.373C175.938 113.432 175.938 113.493 175.949 113.552C177.899 124.262 178.976 133.238 179.489 135.813C175.771 137.454 172.314 139.628 169.229 142.265C168.204 136.427 166.868 130.647 165.228 124.95C161.278 111.41 156.738 113.679 151.018 111.665C149.541 111.043 148.231 110.087 147.193 108.871C146.155 107.656 145.418 106.216 145.042 104.666C144.665 103.116 144.659 101.5 145.024 99.9481C145.39 98.3957 146.116 96.9501 147.144 95.7271C148.828 93.8144 151.082 92.4862 153.578 91.9358C156.074 91.3854 158.682 91.6416 161.021 92.6671C161.868 92.9986 162.586 92.1571 162.483 91.2901C161.956 88.6148 162.201 85.8459 163.188 83.3027C164.176 80.7596 165.867 78.5459 168.066 76.9171C170.265 75.2882 172.882 74.3106 175.616 74.0969C178.349 73.8833 181.088 74.4423 183.516 75.7096V75.7351ZM213.065 137.7L212.398 138.032C212.246 138.161 212.146 138.341 212.118 138.538C212.09 138.735 212.136 138.936 212.246 139.102C212.357 139.268 212.524 139.388 212.717 139.44C212.911 139.492 213.116 139.472 213.296 139.383C219.89 135.725 226.865 132.793 234.098 130.637C236.022 130.127 240.357 128.495 241.357 130.407C241.371 130.636 241.371 130.866 241.357 131.096C238.572 131.18 235.882 132.125 233.662 133.799L220.144 141.449C219.093 142.061 220.811 143.157 220.939 142.214C220.939 141.959 220.324 142.418 236.996 133.595C237.381 133.391 240.947 131.657 241.46 133.161C239.587 148.64 234.996 152.898 232.61 157.667C232.507 157.856 232.478 158.076 232.529 158.286C232.58 158.495 232.707 158.678 232.887 158.799C233.066 158.919 233.284 158.97 233.498 158.94C233.713 158.909 233.908 158.801 234.047 158.636C234.201 158.457 234.303 158.253 234.457 158.075C234.768 158.722 235.042 159.386 235.278 160.064C223.735 171.998 225.71 168.071 216.066 171.284C215.238 168.119 213.268 165.367 210.53 163.555C207.793 161.742 204.48 160.994 201.223 161.454C197.966 161.915 194.994 163.551 192.873 166.05C190.752 168.55 189.631 171.738 189.723 175.007C189.377 174.845 189.003 174.75 188.62 174.726C188.195 171.532 186.618 168.601 184.18 166.477C181.743 164.354 178.613 163.183 175.372 163.183C172.132 163.183 169.001 164.354 166.564 166.477C164.127 168.601 162.549 171.532 162.124 174.726C159.559 175.083 156.994 175.185 154.429 175.313C155.426 167.161 158.21 159.327 162.586 152.363C180.182 124.415 212.757 137.7 213.065 137.7ZM211.039 183.32C205.909 185.87 205.909 186.303 203.344 186.303C200.599 186.335 197.93 185.409 195.802 183.686C193.674 181.962 192.221 179.551 191.698 176.872C191.175 174.194 191.613 171.417 192.938 169.027C194.262 166.637 196.389 164.785 198.946 163.793C201.503 162.802 204.329 162.734 206.932 163.602C209.534 164.469 211.748 166.217 213.187 168.541C214.626 170.864 215.199 173.616 214.807 176.317C214.414 179.018 213.081 181.496 211.039 183.32ZM187.107 177.761C186.779 180.709 185.328 183.421 183.051 185.339C180.774 187.256 177.844 188.234 174.865 188.071C171.885 187.907 169.082 186.616 167.031 184.461C164.979 182.306 163.836 179.452 163.836 176.486C163.836 173.519 164.979 170.665 167.031 168.51C169.082 166.356 171.885 165.064 174.865 164.901C177.844 164.737 180.774 165.715 183.051 167.633C185.328 169.55 186.779 172.262 187.107 175.211C185.414 176.486 185.594 178.73 187.056 177.863L187.107 177.761ZM161.765 151.572C159.508 147.747 154.814 142.112 152.762 139.332C150.71 136.553 149.607 134.87 146.888 135.15C146.272 135.15 146.195 135.686 146.426 135.941C147.144 136.782 147.863 134.589 150.889 138.95C153.28 141.886 155.506 144.951 157.558 148.13C161.38 153.638 161.56 151.802 160.406 153.638C159.209 151.79 157.611 150.233 155.728 149.081C153.846 147.929 151.728 147.212 149.53 146.982C149.362 146.978 149.197 147.034 149.066 147.138C148.934 147.242 148.844 147.389 148.81 147.553C148.777 147.717 148.802 147.888 148.882 148.035C148.962 148.182 149.091 148.297 149.248 148.359C153.452 149.063 157.21 151.379 159.713 154.811L159.149 155.78C158.048 154.695 156.661 153.943 155.147 153.612C153.453 153.276 151.74 153.037 150.017 152.898C149.858 152.884 149.699 152.928 149.57 153.021C149.44 153.114 149.349 153.25 149.311 153.404C149.274 153.558 149.294 153.721 149.367 153.862C149.44 154.003 149.561 154.113 149.709 154.173C152.685 155.295 155.814 154.403 158.636 157.029C158.225 157.769 157.84 158.534 157.507 159.299C156.264 159.431 155.065 159.831 153.993 160.472C152.018 161.415 152.864 162.716 153.762 162.257C154.654 161.711 155.622 161.299 156.635 161.033C155.535 163.732 154.677 166.522 154.07 169.371C145.041 158.253 142.553 144.024 145.041 136.094C145.214 135.311 145.684 134.626 146.353 134.179C147.022 133.733 147.838 133.56 148.632 133.697C150.144 134.193 151.534 135.001 152.71 136.068C162.098 143.489 161.021 143.361 165.305 146.09C163.91 147.771 162.721 149.611 161.765 151.572ZM163.15 256.505C163.203 256.321 163.203 256.127 163.15 255.944C158.02 243.474 167.562 235.773 175.436 241.332C175.257 242.046 176.539 244.035 176.975 244.622C181.464 252.45 181.233 253.164 177.411 256.454C176.924 256.862 176.77 256.938 176.668 256.862C176.373 256.549 176.138 256.186 175.975 255.791C173.795 251.864 173.41 250.691 172.666 250.997C172.571 251.028 172.486 251.084 172.418 251.157C172.351 251.231 172.303 251.32 172.28 251.417C172.257 251.514 172.259 251.616 172.286 251.711C172.313 251.807 172.365 251.895 172.435 251.966C172.692 252.195 172.025 251.481 174.026 256.224C175.129 258.774 175.334 257.525 174.026 258.392C171.999 259.488 170.435 259.59 168.896 253.547C168.836 253.384 168.723 253.247 168.575 253.157C168.427 253.067 168.253 253.029 168.081 253.049C167.908 253.07 167.748 253.148 167.626 253.271C167.504 253.393 167.427 253.554 167.408 253.725C167.21 255.526 167.674 257.338 168.716 258.825C168.129 259.275 167.444 259.58 166.715 259.718C165.752 258.423 164.54 257.331 163.15 256.505ZM168.024 261.605C168.583 261.448 169.113 261.198 169.588 260.865C179.438 265.43 188.261 259.284 191.006 250.155C192.011 256.496 192.235 262.936 191.673 269.331C191.408 270.67 191.408 272.047 191.673 273.386C184.882 276.902 179.373 282.45 175.924 289.247C172.449 290.126 169.024 291.19 165.664 292.434C170.537 282.617 173.872 270.81 168.024 261.579V261.605ZM164.33 295.086C176.565 290.93 172.025 292.281 175.103 291.236C174.091 293.523 173.318 295.907 172.794 298.35C166.74 304.774 161.328 311.769 156.635 319.235C156.17 319.872 155.918 320.64 155.917 321.428C155.905 321.456 155.899 321.486 155.899 321.517C155.899 321.548 155.905 321.578 155.917 321.606C155.848 325.462 157.016 329.241 159.251 332.393C160.326 333.352 161.591 334.075 162.966 334.514C164.341 334.954 165.793 335.1 167.228 334.943C170.024 334.943 162.098 335.657 248.205 325.38C255.9 325.023 258.901 320.867 262.621 314.109C264.955 309.851 273.419 295.826 273.599 295.571C274.98 293.353 275.825 290.848 276.07 288.251C276.315 285.654 275.952 283.036 275.01 280.602C275.03 280.195 274.968 279.788 274.828 279.406C274.687 279.023 274.47 278.673 274.19 278.375C273.91 278.078 273.572 277.839 273.197 277.674C272.823 277.509 272.418 277.421 272.009 277.415C266.737 276.786 261.399 276.967 256.183 277.95C256.177 276.348 255.855 274.762 255.234 273.284C261.8 271.677 263.955 270.912 283.936 265.404C289.252 270.703 294.879 275.684 300.788 280.322C300.888 280.454 301.018 280.561 301.167 280.634C301.316 280.708 301.481 280.747 301.647 280.747C301.814 280.747 301.978 280.708 302.127 280.634C302.276 280.561 302.406 280.454 302.506 280.322C305.867 273.692 308.97 267.215 311.741 260.993L315.614 278.256C314.305 278.524 313.081 279.099 312.041 279.933C311.002 280.767 310.177 281.836 309.637 283.05C307.303 287.538 307.919 293.25 308.457 298.223C308.457 299.166 310.099 315.843 310.766 322.014C310.779 322.321 310.913 322.61 311.138 322.82C311.364 323.029 311.663 323.143 311.971 323.136C316.197 321.2 320.27 318.95 324.155 316.404L338.416 380.027C339.64 385.561 338.607 391.352 335.545 396.132C332.482 400.911 327.64 404.289 322.077 405.527L179.361 437.147C173.792 438.341 167.974 437.302 163.171 434.256C158.368 431.21 154.968 426.402 153.711 420.878L136.679 344.888C140.937 334.229 158.379 306.128 164.33 295.086ZM359.424 419.169C359.373 424.65 357.449 429.951 353.967 434.2C350.485 438.45 345.652 441.395 340.263 442.553L177.155 478.686C170.811 480.057 164.179 478.885 158.699 475.423C153.219 471.962 149.334 466.491 147.888 460.199C141.219 430.644 139.706 423.02 139.706 423.02C139.837 419.252 139.631 415.48 139.09 411.749C136.705 388.263 127.676 370.949 135.063 348.993L151.505 421.566C152.856 427.668 156.583 432.99 161.87 436.369C167.157 439.747 173.575 440.907 179.72 439.595L322.539 408C328.679 406.595 334.012 402.834 337.375 397.537C340.738 392.24 341.859 385.836 340.494 379.721L326.053 315.308C329.259 313.14 332.337 310.794 335.313 308.321C361.989 426.794 359.475 414.018 359.398 419.169H359.424Z" fill="white"/>
<path d="M254.105 428.4C251.955 430.429 250.397 432.997 249.593 435.834C248.789 438.67 248.771 441.67 249.539 444.516C250.25 447.627 251.998 450.408 254.498 452.407C256.998 454.407 260.105 455.508 263.313 455.532C266.472 455.553 269.528 454.415 271.894 452.335C274.261 450.255 275.772 447.38 276.138 444.261C276.511 441.395 276.178 438.483 275.168 435.773C274.158 433.064 272.502 430.639 270.341 428.706C268.128 426.715 265.265 425.587 262.281 425.531C259.297 425.475 256.393 426.494 254.105 428.4ZM266.93 453.059C254.105 457.215 246.949 441.813 254.105 431.588C255.738 429.677 258.021 428.431 260.519 428.087C263.017 427.744 265.555 428.327 267.648 429.726C275.215 435.081 276.959 449.744 266.93 453.11V453.059ZM224.684 145.044C227.403 143.11 230.481 141.732 233.739 140.99C235.509 140.684 236.124 140.556 236.304 140.046C236.312 139.882 236.259 139.721 236.155 139.594C236.051 139.467 235.903 139.383 235.74 139.358C231.512 139.542 227.491 141.225 224.402 144.101C224.331 144.172 224.28 144.261 224.256 144.359C224.231 144.457 224.233 144.559 224.262 144.655C224.291 144.752 224.345 144.839 224.42 144.907C224.494 144.976 224.585 145.023 224.684 145.044ZM235.765 145.35C233.926 144.84 231.994 144.744 230.113 145.071C228.231 145.397 226.447 146.137 224.89 147.237C224.792 147.314 224.723 147.421 224.692 147.541C224.662 147.661 224.673 147.788 224.722 147.901C224.772 148.015 224.858 148.109 224.968 148.169C225.077 148.228 225.203 148.25 225.326 148.232C227.599 146.973 230.162 146.323 232.764 146.345C234.637 146.345 235.868 146.931 236.124 146.115C236.175 145.966 236.166 145.804 236.099 145.661C236.032 145.519 235.913 145.407 235.765 145.35ZM226.044 149.43C225.954 149.412 225.862 149.413 225.773 149.435C225.684 149.456 225.601 149.497 225.53 149.555C225.459 149.612 225.402 149.684 225.363 149.766C225.324 149.849 225.303 149.938 225.303 150.029C225.303 150.12 225.324 150.21 225.363 150.292C225.402 150.374 225.459 150.447 225.53 150.504C225.601 150.561 225.684 150.602 225.773 150.624C225.862 150.645 225.954 150.647 226.044 150.629C227.673 150.783 229.226 151.383 230.533 152.363C230.615 152.439 230.72 152.488 230.832 152.502C230.944 152.516 231.058 152.495 231.157 152.441C231.256 152.388 231.336 152.305 231.385 152.204C231.434 152.102 231.45 151.989 231.43 151.878C230.767 151.104 229.941 150.483 229.01 150.06C228.08 149.637 227.067 149.422 226.044 149.43ZM204.293 190.562C210.551 187.017 215.502 186.992 220.196 185.64C220.965 185.64 220.786 184.263 220.196 184.365C214.381 184.809 208.76 186.637 203.805 189.695C203.01 190.052 203.523 191.046 204.293 190.562ZM157.687 194.795C163.963 192.768 170.619 192.184 177.155 193.086C177.873 193.086 178.001 192.015 177.027 191.811C170.436 190.289 163.529 190.887 157.302 193.52C156.635 193.647 157.045 194.795 157.687 194.795Z" fill="white"/>
<path d="M164.74 200.226C168.379 198.239 172.295 196.804 176.36 195.967C177.201 197.442 178.445 198.651 179.947 199.454C181.449 200.257 183.149 200.622 184.85 200.506C185.287 201.883 186.126 203.099 187.261 204C188.218 204.852 189.393 205.425 190.657 205.656C191.921 205.887 193.224 205.766 194.423 205.307C195.622 204.848 196.671 204.069 197.453 203.055C198.235 202.042 198.72 200.833 198.855 199.563C200.633 199.416 202.331 198.764 203.746 197.683C205.16 196.602 206.232 195.139 206.832 193.468C219.016 193.009 220.452 193.111 225.89 192.499C226.736 192.499 226.66 191.199 225.89 191.097C219.64 191.046 213.394 191.403 207.191 192.168C207.258 191.968 207.309 191.763 207.345 191.556C207.399 191.423 207.424 191.281 207.417 191.138C207.411 190.995 207.373 190.855 207.308 190.727C207.242 190.6 207.149 190.489 207.036 190.4C206.923 190.312 206.791 190.249 206.651 190.215C206.511 190.182 206.366 190.179 206.225 190.207C206.083 190.234 205.95 190.292 205.833 190.376C205.716 190.459 205.619 190.567 205.548 190.692C205.477 190.816 205.434 190.954 205.421 191.097C205.371 191.549 205.267 191.994 205.114 192.423C204.472 192.423 203.498 192.423 203.549 193.111C203.6 193.8 204.19 193.57 204.652 193.57C204.171 194.528 203.493 195.374 202.663 196.055C201.832 196.736 200.867 197.236 199.83 197.523C196.598 198.237 194.11 196.273 192.135 191.581C195.187 187.45 193.776 185.895 192.135 186.481C191.596 186.66 192.135 186.609 189.364 186.609C186.594 186.609 186.286 189.031 188.415 190.944L189.621 191.938C189.057 195.279 187.8 198.823 184.286 198.9C183.072 198.874 181.879 198.573 180.8 198.021C179.72 197.468 178.78 196.679 178.053 195.712L179.053 195.534C179.72 195.534 180.105 194.31 178.617 194.31C173.39 194.293 168.288 195.897 164.022 198.9C163.935 198.947 163.857 199.01 163.794 199.087C163.731 199.164 163.684 199.252 163.656 199.347C163.627 199.441 163.618 199.541 163.628 199.639C163.638 199.737 163.667 199.833 163.714 199.92C163.762 200.007 163.826 200.084 163.903 200.146C163.98 200.209 164.068 200.256 164.164 200.284C164.259 200.313 164.359 200.322 164.458 200.312C164.557 200.302 164.653 200.273 164.74 200.226ZM191.057 193.545C191.521 194.891 192.289 196.113 193.303 197.116C194.317 198.12 195.55 198.879 196.906 199.333C196.906 199.716 196.906 200.098 196.752 200.455C196.442 201.245 195.945 201.949 195.302 202.506C194.66 203.064 193.891 203.458 193.062 203.656C192.233 203.854 191.368 203.85 190.541 203.643C189.714 203.436 188.949 203.034 188.313 202.47C187.531 201.823 186.9 201.013 186.466 200.098C187.713 199.464 188.784 198.535 189.585 197.392C190.386 196.249 190.891 194.928 191.057 193.545ZM165.33 162.996C166.202 162.996 166.382 161.542 168.973 159.936C170.251 159.267 171.591 158.72 172.974 158.304C174.051 157.641 173.59 155.754 171.076 156.315L169.845 156.774C167.576 157.81 165.757 159.619 164.715 161.874C164.661 161.987 164.635 162.11 164.639 162.235C164.642 162.359 164.675 162.481 164.735 162.591C164.795 162.7 164.881 162.794 164.984 162.864C165.087 162.935 165.206 162.98 165.33 162.996ZM206.473 154.275C207.12 154.262 207.767 154.331 208.397 154.479C209.78 154.85 211.114 155.38 212.372 156.06C214.937 156.06 211.27 152.209 206.678 152.107C205.767 152.018 204.855 152.262 204.113 152.796C202.805 154.122 204.677 154.708 206.473 154.275ZM182.105 305.158C182.34 305.121 182.553 305.001 182.708 304.821C182.862 304.641 182.946 304.413 182.946 304.177C182.946 303.94 182.862 303.712 182.708 303.532C182.553 303.352 182.34 303.233 182.105 303.195C181.871 303.233 181.657 303.352 181.503 303.532C181.349 303.712 181.265 303.94 181.265 304.177C181.265 304.413 181.349 304.641 181.503 304.821C181.657 305.001 181.871 305.121 182.105 305.158ZM189.364 306.535C189.599 306.498 189.812 306.378 189.966 306.198C190.121 306.018 190.205 305.79 190.205 305.554C190.205 305.317 190.121 305.089 189.966 304.909C189.812 304.729 189.599 304.61 189.364 304.572C189.005 304.572 188.261 305.005 188.415 305.745C188.465 305.961 188.585 306.156 188.756 306.299C188.928 306.441 189.141 306.524 189.364 306.535ZM197.059 302.379C197.275 302.343 197.47 302.232 197.611 302.066C197.752 301.901 197.829 301.691 197.829 301.474C197.829 301.257 197.752 301.047 197.611 300.881C197.47 300.715 197.275 300.604 197.059 300.568C196.844 300.604 196.649 300.715 196.508 300.881C196.367 301.047 196.289 301.257 196.289 301.474C196.289 301.691 196.367 301.901 196.508 302.066C196.649 302.232 196.844 302.343 197.059 302.379ZM200.702 307.3C200.933 307.3 201.155 307.209 201.318 307.046C201.482 306.884 201.574 306.663 201.574 306.433C201.574 306.203 201.482 305.983 201.318 305.82C201.155 305.658 200.933 305.566 200.702 305.566C200.47 305.566 200.249 305.658 200.085 305.82C199.922 305.983 199.83 306.203 199.83 306.433C199.83 306.663 199.922 306.884 200.085 307.046C200.249 307.209 200.47 307.3 200.702 307.3ZM210.167 300.109C210.167 299.886 210.077 299.672 209.919 299.514C209.76 299.357 209.545 299.268 209.32 299.268C209.096 299.268 208.88 299.357 208.722 299.514C208.563 299.672 208.474 299.886 208.474 300.109C208.474 300.333 208.563 300.547 208.722 300.704C208.88 300.862 209.096 300.951 209.32 300.951C209.545 300.951 209.76 300.862 209.919 300.704C210.077 300.547 210.167 300.333 210.167 300.109ZM217.015 306C217.179 305.957 217.324 305.861 217.428 305.727C217.531 305.593 217.588 305.429 217.588 305.26C217.588 305.092 217.531 304.928 217.428 304.794C217.324 304.66 217.179 304.564 217.015 304.521C216.9 304.52 216.786 304.547 216.682 304.598C216.579 304.648 216.488 304.723 216.419 304.814C216.349 304.906 216.302 305.012 216.281 305.125C216.259 305.238 216.265 305.354 216.297 305.464C216.338 305.622 216.431 305.76 216.561 305.857C216.692 305.955 216.852 306.005 217.015 306ZM232.354 303.577C232.713 303.577 233.252 303.22 233.098 302.634C232.944 302.047 232.585 301.996 232.354 302.073C232.177 302.105 232.017 302.198 231.902 302.336C231.787 302.473 231.724 302.646 231.724 302.825C231.724 303.004 231.787 303.177 231.902 303.314C232.017 303.452 232.177 303.545 232.354 303.577ZM235.637 297.406C235.868 297.406 236.09 297.315 236.254 297.152C236.417 296.99 236.509 296.769 236.509 296.539C236.509 296.309 236.417 296.089 236.254 295.926C236.09 295.764 235.868 295.672 235.637 295.672C235.406 295.672 235.184 295.764 235.02 295.926C234.857 296.089 234.765 296.309 234.765 296.539C234.765 296.769 234.857 296.99 235.02 297.152C235.184 297.315 235.406 297.406 235.637 297.406ZM224.325 300.9C224.557 300.9 224.778 300.809 224.942 300.646C225.106 300.483 225.197 300.263 225.197 300.033C225.197 299.803 225.106 299.582 224.942 299.42C224.778 299.257 224.557 299.166 224.325 299.166C224.094 299.166 223.872 299.257 223.709 299.42C223.545 299.582 223.453 299.803 223.453 300.033C223.453 300.263 223.545 300.483 223.709 300.646C223.872 300.809 224.094 300.9 224.325 300.9ZM178.386 310.513C178.525 310.513 178.661 310.482 178.786 310.422C178.911 310.362 179.02 310.275 179.106 310.167C179.193 310.059 179.253 309.934 179.284 309.799C179.315 309.665 179.315 309.526 179.284 309.391C179.268 309.223 179.198 309.065 179.084 308.939C178.971 308.814 178.82 308.727 178.654 308.693C178.487 308.659 178.314 308.679 178.16 308.749C178.006 308.82 177.878 308.938 177.796 309.085C177.714 309.213 177.664 309.358 177.651 309.509C177.637 309.66 177.66 309.812 177.718 309.952C177.776 310.092 177.867 310.216 177.983 310.314C178.1 310.411 178.238 310.48 178.386 310.513ZM221.837 398.208L181.156 406.648C178.601 407.184 176.347 408.667 174.854 410.797C173.361 412.927 172.741 415.543 173.12 418.111C173.5 420.68 174.85 423.008 176.896 424.621C178.942 426.234 181.53 427.011 184.132 426.793C185.26 426.793 181.952 427.023 225.864 418.098C227.296 417.964 228.682 417.532 229.935 416.83C231.187 416.129 232.278 415.173 233.135 414.026C233.992 412.879 234.597 411.565 234.911 410.171C235.225 408.776 235.241 407.332 234.957 405.93C234.674 404.529 234.097 403.203 233.265 402.038C232.433 400.873 231.363 399.894 230.126 399.166C228.889 398.438 227.512 397.977 226.084 397.811C224.656 397.646 223.209 397.781 221.837 398.208ZM225.403 415.752L184.85 424.192C182.908 424.466 180.934 423.991 179.331 422.866C177.729 421.74 176.62 420.049 176.23 418.138C175.84 416.226 176.2 414.239 177.235 412.582C178.269 410.926 179.902 409.724 181.798 409.224C212.244 402.823 220.555 401.038 222.838 400.63C224.794 400.388 226.77 400.882 228.379 402.014C229.988 403.146 231.113 404.836 231.533 406.75C231.901 408.738 231.463 410.79 230.314 412.457C229.165 414.125 227.4 415.272 225.403 415.65V415.752Z" fill="white"/>
<path d="M219.99 407.312C216.81 407.72 204.318 412.769 185.106 415.548C184.363 415.548 184.44 416.747 185.106 416.747C191.237 416.747 215.117 411.647 220.529 408.714C220.659 408.609 220.752 408.466 220.795 408.306C220.838 408.145 220.829 407.975 220.77 407.819C220.71 407.664 220.603 407.531 220.463 407.44C220.323 407.349 220.158 407.304 219.99 407.312ZM302.84 381.837C293.349 385.152 293.093 398.616 302.686 400.503C303.969 400.712 305.281 400.656 306.541 400.339C307.801 400.023 308.982 399.453 310.012 398.664C311.041 397.875 311.896 396.884 312.525 395.753C313.153 394.622 313.541 393.374 313.664 392.088C315.485 386.351 308.688 380.231 302.84 381.837ZM304.815 398.973C303.782 399.063 302.741 398.926 301.767 398.573C300.793 398.221 299.908 397.66 299.174 396.931C298.441 396.202 297.877 395.322 297.522 394.353C297.167 393.385 297.03 392.35 297.12 391.323C297.659 386.58 301.942 382.296 306.508 383.673C316.127 387.09 311.689 398.412 304.918 398.973H304.815Z" fill="white"/>
<path d="M302.455 388.391C301.731 388.443 301.049 388.75 300.532 389.258C299.557 390.711 300.301 391.807 301.737 391.807C301.532 393.822 301.301 396.27 303.097 396.372C303.712 396.372 306.38 395.862 307.816 395.556C307.986 395.57 308.158 395.549 308.319 395.494C308.48 395.439 308.629 395.351 308.754 395.236C308.879 395.121 308.979 394.981 309.048 394.825C309.116 394.67 309.151 394.502 309.15 394.332C309.15 393.465 309.15 394.893 308.868 391.272C309.586 391.272 309.92 390.941 309.945 390.354L309.791 388.799C309.788 388.688 309.763 388.579 309.717 388.478C309.672 388.378 309.606 388.287 309.525 388.211C309.444 388.135 309.349 388.076 309.245 388.037C309.141 387.998 309.03 387.979 308.919 387.982C308.227 387.982 307.201 388.11 307.201 388.11C307.201 388.11 308.329 387.753 308.483 386.963C308.535 386.771 308.534 386.57 308.479 386.38C308.425 386.189 308.32 386.017 308.176 385.881C308.031 385.745 307.852 385.651 307.658 385.608C307.464 385.565 307.261 385.574 307.072 385.637C306.64 385.87 306.259 386.186 305.951 386.567C305.643 386.948 305.414 387.386 305.277 387.855C303.43 384.515 300.557 386.58 302.455 388.391ZM307.149 391.323C307.149 392.496 307.329 392.981 307.431 393.873C306.482 393.873 304.097 394.587 303.199 394.715C303.17 394.571 303.17 394.424 303.199 394.281V391.731C304.503 391.489 305.824 391.352 307.149 391.323ZM281.371 384.744C273.676 383.903 268.546 391.655 270.675 398.667C271.479 400.653 272.883 402.342 274.693 403.502C276.503 404.662 278.63 405.236 280.781 405.144C292.58 404.379 293.606 385.917 281.371 384.744ZM286.501 400.707C284.925 402.359 282.754 403.321 280.465 403.384C278.176 403.446 275.956 402.602 274.292 401.039C272.945 399.682 272.085 397.922 271.845 396.031C271.606 394.14 272 392.223 272.966 390.576C273.933 388.93 275.418 387.647 277.193 386.924C278.967 386.202 280.931 386.081 282.782 386.58C284.177 387.026 285.435 387.818 286.437 388.881C287.44 389.943 288.154 391.242 288.514 392.655C288.873 394.067 288.865 395.547 288.49 396.956C288.116 398.364 287.387 399.655 286.373 400.707H286.501ZM319.872 385.586L323.848 387.371C322.642 389.436 321.539 391.502 320.564 393.465C320.449 393.651 320.412 393.875 320.463 394.088C320.513 394.301 320.647 394.485 320.834 394.6C321.021 394.715 321.246 394.751 321.46 394.701C321.674 394.651 321.859 394.518 321.975 394.332C323.181 392.522 324.54 390.558 325.848 388.263C327.208 388.952 327.669 389.105 330.209 390.15C330.75 390.491 331.399 390.618 332.03 390.507C332.157 390.469 332.273 390.403 332.37 390.312C332.466 390.221 332.54 390.11 332.585 389.986C332.63 389.861 332.645 389.729 332.628 389.598C332.612 389.467 332.565 389.342 332.492 389.232C331.902 388.493 331.85 388.595 326.849 386.682C328.105 384.514 330.542 381.353 328.824 380.817C327.567 380.435 326.259 383.367 324.797 385.917L320.513 384.183C319.513 383.622 318.948 385.203 319.872 385.586ZM224.633 364.293C219.657 364.982 211.372 367.251 196.187 370.209C174.308 374.493 175.001 373.906 167.716 375.87C167.558 375.912 167.419 376.005 167.319 376.134C167.22 376.263 167.166 376.421 167.166 376.584C167.166 376.747 167.22 376.905 167.319 377.034C167.419 377.163 167.558 377.256 167.716 377.298C172.436 377.298 216.066 368.654 224.992 366.129C225.21 366.056 225.394 365.907 225.51 365.709C225.625 365.512 225.665 365.279 225.621 365.055C225.577 364.83 225.453 364.629 225.271 364.489C225.089 364.349 224.863 364.279 224.633 364.293ZM247.436 345.602C255.131 344.174 263.467 343.052 271.188 341.216C272.163 341.216 272.086 339.507 271.188 339.609C256.362 341.088 165.433 359.295 164.074 361.564C162.355 364.344 184.209 357 247.436 345.602ZM290.143 347.132C286.963 345.066 283.269 346.953 281.217 349.936C277.626 356.337 278.909 362.33 281.474 369.24C281.217 369.24 169.229 391.374 169.05 391.757C168.87 392.139 169.05 392.725 169.563 392.725C176.77 392.725 273.214 373.575 282.166 371C282.907 372.919 283.763 374.793 284.731 376.61C284.832 376.778 284.974 376.918 285.145 377.016C285.316 377.114 285.509 377.168 285.706 377.171C286.937 377.171 297.71 369.801 300.224 368.016C303.866 365.466 307.611 362.661 308.175 358.173C309.15 350.268 298.685 348.432 293.478 353.073C293.191 350.735 291.994 348.602 290.143 347.132ZM106.207 70.9155C104.674 70.0198 102.925 69.5536 101.146 69.5665C99.3676 69.5794 97.6257 70.0708 96.1054 70.9886C94.5851 71.9064 93.3432 73.2164 92.5115 74.7794C91.6798 76.3424 91.2893 78.1001 91.3816 79.866C91.2983 79.9764 91.2533 80.1106 91.2533 80.2485C91.2533 80.3864 91.2983 80.5207 91.3816 80.631C92.6073 82.127 94.2124 83.2705 96.0313 83.9434C97.8502 84.6164 99.8169 84.7944 101.728 84.4591C103.639 84.1238 105.426 83.2873 106.903 82.0361C108.381 80.7848 109.495 79.1642 110.132 77.3415C110.824 76.7805 110.414 76.0665 110.311 75.735C109.629 73.6571 108.156 71.9272 106.207 70.9155ZM92.5102 80.0445C92.5866 78.3641 93.1338 76.7383 94.0901 75.3505C95.0464 73.9628 96.3737 72.8683 97.9223 72.1905C94.5365 74.7405 95.5881 81.906 99.6408 82.62C97.0236 82.6784 94.4794 81.7595 92.5102 80.0445ZM102.155 82.212C103.082 81.521 103.809 80.5973 104.26 79.5354C104.71 78.4734 104.869 77.3115 104.72 76.1685C104.638 75.131 104.268 74.1362 103.653 73.2945C103.037 72.4528 102.199 71.7971 101.231 71.4C102.727 71.4069 104.189 71.8471 105.437 72.6669C106.685 73.4866 107.666 74.6503 108.259 76.0155C107.828 77.4493 107.059 78.7599 106.014 79.8378C104.97 80.9157 103.682 81.7298 102.257 82.212H102.155ZM119.314 67.4985C119.266 67.2873 119.145 67.0999 118.971 66.9692C118.797 66.8386 118.583 66.7731 118.365 66.7845C116.749 66.7845 117.981 68.7225 115.8 74.664C115.754 74.8114 115.759 74.9699 115.814 75.1142C115.87 75.2585 115.972 75.3801 116.105 75.4595C116.238 75.5389 116.394 75.5715 116.548 75.5521C116.703 75.5327 116.846 75.4624 116.955 75.3525C117.52 74.3979 117.968 73.3791 118.288 72.318C118.75 74.6895 119.237 76.9845 119.725 79.1775C119.755 79.3081 119.811 79.4315 119.889 79.5406C119.968 79.6497 120.067 79.7425 120.181 79.8135C120.295 79.8845 120.423 79.9325 120.556 79.9546C120.689 79.9768 120.825 79.9726 120.956 79.9425C121.087 79.9124 121.211 79.8568 121.321 79.779C121.431 79.7012 121.524 79.6026 121.596 79.4889C121.667 79.3753 121.715 79.2488 121.738 79.1166C121.76 78.9844 121.756 78.8491 121.725 78.7185C121.007 75.0465 120.186 71.4 119.314 67.4985ZM135.32 74.46C132.986 74.868 131.524 75.1485 129.703 75.633C131.537 73.3038 132.579 70.4551 132.678 67.4985C132.609 66.679 132.289 65.9002 131.762 65.2666C131.235 64.633 130.525 64.1749 129.728 63.954C128.985 63.6866 128.177 63.6517 127.413 63.854C126.649 64.0563 125.966 64.4861 125.455 65.0857C124.944 65.6853 124.63 66.426 124.555 67.2083C124.48 67.9906 124.647 68.777 125.034 69.462C125.214 70.2015 126.471 69.462 126.291 69.0285C126.066 68.4119 126.062 67.7365 126.282 67.1179C126.502 66.4993 126.932 65.9758 127.497 65.637C128.074 65.4007 128.718 65.3816 129.308 65.5835C129.898 65.7853 130.394 66.1942 130.703 66.7335C130.909 67.604 130.929 68.508 130.761 69.3866C130.594 70.2653 130.242 71.099 129.728 71.8335C127.343 76.5255 125.624 76.9335 126.65 78.0045C126.762 78.1248 126.905 78.2122 127.063 78.2572C127.222 78.3021 127.389 78.3029 127.548 78.2595C130.366 77.8728 133.152 77.2848 135.884 76.5C136.093 76.3775 136.254 76.1902 136.345 75.9672C136.436 75.7442 136.45 75.4977 136.386 75.2658C136.322 75.0338 136.183 74.8293 135.99 74.6837C135.797 74.5381 135.562 74.4595 135.32 74.46ZM146.58 71.8335C146.95 70.7679 146.971 69.6131 146.639 68.5351C146.307 67.4572 145.64 66.5116 144.734 65.8343C143.827 65.157 142.728 64.7829 141.594 64.7658C140.46 64.7486 139.35 65.0894 138.424 65.739C138.259 64.9801 137.945 64.2609 137.5 63.6225C139.47 63.3783 141.39 62.8365 143.195 62.016C143.434 61.9706 143.655 61.861 143.836 61.6992C144.017 61.5374 144.15 61.3295 144.221 61.098C144.262 60.9041 144.242 60.7023 144.164 60.5199C144.086 60.3375 143.953 60.1833 143.784 60.078C143.066 59.6445 142.22 60.231 141.656 60.4605C131.396 64.362 137.09 61.353 136.885 67.677C136.889 67.8723 136.957 68.0609 137.077 68.2155C137.197 68.3701 137.364 68.4826 137.552 68.5367C137.741 68.5907 137.942 68.5834 138.127 68.516C138.311 68.4485 138.469 68.3243 138.578 68.1615C138.641 68.0982 138.685 68.0188 138.706 67.932C139.216 67.2337 139.976 66.7552 140.829 66.5941C141.682 66.4331 142.565 66.6014 143.297 67.065C143.792 67.4255 144.186 67.9069 144.439 68.4627C144.692 69.0186 144.797 69.63 144.742 70.2378C144.688 70.8456 144.477 71.4292 144.13 71.9321C143.782 72.435 143.31 72.8402 142.758 73.1085C141.45 73.5971 140.04 73.7548 138.654 73.5675C137.885 73.5675 137.526 74.358 138.039 74.817C138.764 75.3225 139.599 75.6489 140.476 75.769C141.353 75.8892 142.246 75.7997 143.081 75.508C143.916 75.2163 144.669 74.7308 145.278 74.0917C145.887 73.4526 146.333 72.6785 146.58 71.8335ZM149.274 68.034C150.899 67.8466 152.505 67.5137 154.07 67.0395C154.107 68.7709 154.392 70.4882 154.917 72.1395C155.019 72.2857 155.16 72.4011 155.324 72.4728C155.488 72.5446 155.669 72.57 155.846 72.5463C156.024 72.5226 156.192 72.4506 156.331 72.3384C156.47 72.2261 156.575 72.0779 156.635 71.91C156.784 70.0703 156.584 68.2192 156.045 66.453C156.997 66.3193 157.889 65.9115 158.61 65.28C158.705 65.1595 158.768 65.0167 158.791 64.8652C158.815 64.7138 158.799 64.5589 158.745 64.4155C158.691 64.272 158.6 64.1448 158.482 64.0461C158.364 63.9474 158.223 63.8806 158.072 63.852C154.942 63.444 155.943 65.8665 155.122 61.863C155.122 61.6534 155.038 61.4523 154.889 61.304C154.74 61.1558 154.538 61.0725 154.327 61.0725C154.116 61.0725 153.914 61.1558 153.764 61.304C153.615 61.4523 153.531 61.6534 153.531 61.863C153.531 62.271 153.531 62.0925 153.711 64.719C152.788 64.974 151.967 65.28 151.146 65.6115C150.325 65.943 151.762 62.832 152.069 58.8285C152.072 58.6958 152.027 58.5666 151.942 58.4639C151.857 58.3612 151.739 58.2916 151.608 58.2675C150.684 58.089 150.659 59.058 148.812 66.81C148.715 67.0338 148.709 67.2862 148.795 67.5144C148.881 67.7425 149.053 67.9287 149.274 68.034Z" fill="white"/>
<path d="M164.33 68.6206C169.947 68.6206 171.23 59.3641 165.792 55.4371C163.047 53.4736 160.329 53.9581 159.097 57.1456C157.558 61.4551 159.867 68.6206 164.33 68.6206ZM165.689 58.4206C167.87 61.1746 167.305 65.6371 164.817 66.5551C162.329 67.4731 160.226 63.4696 160.431 59.8741C160.765 54.9526 163.843 55.8706 165.766 58.3186L165.689 58.4206Z" fill="white"/>
<path d="M175.206 66.2999C181.49 66.2999 182.901 55.8449 177.36 52.2239C176.852 51.8369 176.262 51.5688 175.635 51.4397C175.008 51.3106 174.36 51.3237 173.739 51.4781C173.118 51.6325 172.539 51.9242 172.047 52.3314C171.555 52.7387 171.162 53.2511 170.896 53.8304C170.211 54.8385 169.804 56.0081 169.717 57.2219C168.742 61.1999 170.999 66.2999 175.206 66.2999ZM171.743 55.3349C171.888 54.9243 172.118 54.5485 172.418 54.2318C172.718 53.9152 173.082 53.6646 173.486 53.4964C173.889 53.3282 174.324 53.246 174.762 53.2552C175.199 53.2644 175.63 53.3648 176.026 53.5499C180.053 56.0999 179.258 65.5859 173.615 63.7499C172.803 63.182 172.156 62.412 171.737 61.5169C171.318 60.6219 171.143 59.6332 171.23 58.6499C171.212 57.5241 171.385 56.4033 171.743 55.3349ZM183.26 61.9394C183.747 61.9394 182.695 61.9394 186.158 61.4294C188.005 61.1489 187.723 61.1999 190.365 60.6644C191.286 60.6265 192.176 60.3255 192.93 59.7974C193.141 59.5829 193.26 59.2945 193.26 58.9942C193.26 58.6938 193.141 58.4054 192.93 58.1909C192.314 57.5789 190.775 57.8084 189.98 58.1909C187.184 58.8029 187.569 58.7009 185.825 59.1854C187.144 57.1258 188.017 54.8159 188.39 52.4024C188.723 49.8524 186.569 47.5829 184.465 48.2969C184.043 48.4176 183.668 48.6639 183.39 49.0027C183.112 49.3415 182.946 49.7566 182.912 50.1924C182.879 50.6281 182.98 51.0636 183.203 51.4404C183.425 51.8172 183.758 52.1173 184.157 52.3004C185.568 52.9124 185.645 51.2039 185.081 51.1274C184.955 51.0923 184.845 51.0146 184.77 50.9075C184.695 50.8005 184.66 50.6709 184.67 50.5409C184.67 49.6484 185.543 49.6994 186.03 50.1329C188.108 52.1474 184.696 57.9104 182.542 60.3329C182.445 60.4792 182.387 60.6472 182.373 60.8216C182.358 60.9959 182.388 61.1711 182.46 61.3309C182.531 61.4908 182.642 61.6302 182.782 61.7365C182.922 61.8429 183.086 61.9126 183.26 61.9394ZM195.29 55.1819C196.187 55.1819 195.931 54.6719 197.162 50.4389C198.958 58.0889 199.06 58.5734 199.984 59.0069C200.123 59.1144 200.294 59.1728 200.471 59.1728C200.647 59.1728 200.819 59.1144 200.958 59.0069C201.625 58.1144 201.343 57.7064 199.624 51.6884C198.188 46.7159 198.188 46.4609 197.213 46.4354C197.032 46.4448 196.859 46.5157 196.724 46.6363C196.588 46.7569 196.499 46.92 196.469 47.0984C195.982 49.4699 195.341 51.7904 194.597 54.3659C194.6 54.5606 194.67 54.7483 194.796 54.8971C194.923 55.0459 195.097 55.1465 195.29 55.1819ZM276.036 330.888L279.396 334.101C280.191 335.095 282.166 337.084 283.423 337.084C284.68 337.084 285.988 335.325 286.911 333.948C289.257 331.278 291.053 328.177 292.195 324.819C293.35 318.877 285.808 314.262 282.089 322.269C279.293 317.883 268.7 319.183 270.906 324.819C272.122 327.208 273.878 329.285 276.036 330.888ZM362.912 158.661C362.063 158.109 361.057 157.845 360.044 157.909C359.031 157.974 358.067 158.363 357.295 159.018C355.453 160.893 354.136 163.213 353.473 165.75C352.081 168.954 350.865 172.232 349.831 175.567C349.343 177.633 350.498 177.633 350.959 177.25C355.525 177.607 370.71 174.139 370.376 169.039C370.116 167.839 369.401 166.785 368.378 166.096C367.356 165.407 366.105 165.137 364.887 165.342C365.262 164.159 365.275 162.892 364.923 161.702C364.571 160.513 363.871 159.454 362.912 158.661ZM362.322 243.601C365.965 238.68 369.274 232.84 368.581 226.159C368.512 224.402 368.053 222.681 367.237 221.121C366.421 219.56 365.269 218.198 363.861 217.132C360.629 215.22 356.962 217.974 354.499 219.835C342.033 229.168 338.16 245.055 334.672 258.672C333.953 261.553 333.184 264.511 332.748 267.418C331.132 272.952 335.492 274.099 339.212 274.405C350.216 275.247 366.324 269.05 377.456 265.939C382.842 264.435 391.871 261.91 391.717 254.107C391.615 245.514 376.225 237.558 362.322 243.601ZM347.958 155.167C348.054 155.294 348.178 155.397 348.32 155.468C348.463 155.539 348.62 155.575 348.779 155.575C348.938 155.575 349.096 155.539 349.238 155.468C349.38 155.397 349.504 155.294 349.6 155.167C357.093 144.23 363.796 132.777 369.658 120.895C374.404 110.695 368.632 97.5629 357.834 99.8834C353.422 100.903 349.6 104.295 346.496 109.956C345.442 106.405 343.066 103.387 339.853 101.515C329.208 95.5484 317.076 107.023 322.95 117.606C329.777 131.057 338.171 143.664 347.958 155.167ZM174.59 174.114C174.609 174.827 174.704 175.537 174.872 176.23C175.026 177.76 175.231 179.392 176.77 179.392C176.972 179.386 177.171 179.34 177.355 179.257C177.54 179.174 177.706 179.055 177.844 178.908C177.982 178.762 178.09 178.589 178.161 178.401C178.232 178.213 178.265 178.012 178.258 177.811C178.016 176.429 177.647 175.072 177.155 173.757C177.03 173.499 176.826 173.287 176.572 173.151C176.318 173.016 176.027 172.964 175.741 173.004C175.456 173.044 175.191 173.173 174.984 173.372C174.777 173.572 174.639 173.831 174.59 174.114ZM204.011 169.983C203.734 169.775 203.39 169.676 203.045 169.704C202.7 169.733 202.377 169.886 202.138 170.136C201.035 170.646 200.856 176.613 203.292 176.613C203.664 176.624 204.027 176.501 204.315 176.267C204.603 176.033 204.795 175.703 204.857 175.338C204.857 174.19 204.703 174.318 204.703 173.553C204.703 170.85 204.498 170.365 204.011 169.983ZM285.449 391.119C284.295 389.002 281.268 389.665 280.319 391.858C280.075 391.546 279.769 391.286 279.421 391.095C279.072 390.904 278.688 390.786 278.292 390.748C277.895 390.709 277.495 390.752 277.116 390.873C276.737 390.994 276.387 391.19 276.087 391.45C275.657 391.837 275.316 392.312 275.088 392.841C274.859 393.371 274.749 393.944 274.763 394.52C274.778 395.096 274.917 395.663 275.172 396.18C275.427 396.698 275.792 397.155 276.241 397.519C277.78 398.608 279.42 399.548 281.14 400.324C281.408 400.501 281.717 400.607 282.038 400.63C282.756 400.63 283.064 399.483 283.346 398.947C285.09 395.403 286.244 393.541 285.449 391.119ZM252.925 397.978C253.361 400.528 253.746 403.384 253.925 404.226L258.799 403.104C259.158 403.104 259.184 403.282 257.901 397.06C256.216 397.203 254.549 397.51 252.925 397.978Z" fill="white"/>
<path d="M253.182 391.272C251.324 391.999 249.7 393.213 248.48 394.785C247.261 396.356 246.492 398.226 246.256 400.197C246.04 401.443 246.1 402.72 246.43 403.941C246.76 405.161 247.353 406.296 248.168 407.266C248.983 408.236 250 409.019 251.149 409.559C252.298 410.1 253.552 410.386 254.823 410.397C256.795 410.311 258.711 409.721 260.386 408.685C262.062 407.649 263.441 406.201 264.391 404.481C267.263 397.8 260.902 389.13 253.182 391.272ZM260.877 403.461V403.818C260.312 405.195 259.491 405.322 254.951 406.113L254.233 406.241C253.964 406.328 253.679 406.359 253.396 406.333C253.114 406.307 252.84 406.223 252.592 406.088C252.39 405.956 252.222 405.779 252.101 405.57C251.981 405.362 251.912 405.129 251.899 404.889C251.899 404.634 251.899 403.895 251.694 402.951C251.402 401.266 251.24 399.561 251.206 397.851C251.104 397.527 251.104 397.18 251.206 396.857C251.295 396.655 251.429 396.477 251.598 396.335C251.767 396.194 251.967 396.093 252.181 396.041C254.086 395.543 256.023 395.177 257.978 394.944C258.319 394.939 258.653 395.042 258.93 395.24C259.207 395.437 259.413 395.718 259.517 396.041C260.004 398.438 260.287 399.942 260.492 400.937C260.767 401.749 260.897 402.604 260.877 403.461Z" fill="white"/>
</svg>
