<svg width="55" height="55" viewBox="0 0 55 55" fill="none" xmlns="http://www.w3.org/2000/svg">
<path fill-rule="evenodd" clip-rule="evenodd" d="M27.4548 54.4077C12.2897 54.4077 0.000549316 42.3048 0.000549316 27.3796C0.000549316 12.4543 12.2897 0.354309 27.4548 0.354309C42.617 0.354309 54.909 12.4543 54.909 27.3796C54.909 42.3048 42.617 54.4077 27.4548 54.4077ZM2.54071 27.3799C2.54071 37.7546 9.09844 46.6183 18.3528 50.1875C18.1352 48.2509 17.9411 45.278 18.441 43.1591C18.8909 41.2485 21.3582 30.9867 21.3582 30.9867C21.3582 30.9867 20.6142 29.5191 20.6142 27.3509C20.6142 23.9438 22.6168 21.4022 25.1164 21.4022C27.2366 21.4022 28.2629 22.9712 28.2629 24.8528C28.2629 26.9543 26.9043 30.0951 26.2015 33.0072C25.6163 35.4475 27.4454 37.4333 29.8861 37.4333C34.3089 37.4333 37.7084 32.8422 37.7084 26.2162C37.7084 20.3514 33.4297 16.2525 27.316 16.2525C20.2378 16.2525 16.0826 21.4804 16.0826 26.882C16.0826 28.9864 16.903 31.2443 17.9323 32.4717C18.1352 32.7149 18.1646 32.9262 18.1058 33.1751C17.9176 33.948 17.497 35.6125 17.4147 35.9512C17.3059 36.3999 17.053 36.4954 16.5795 36.2812C13.4742 34.857 11.5333 30.3817 11.5333 26.7922C11.5333 19.0662 17.2353 11.9683 27.9718 11.9683C36.6027 11.9683 43.3104 18.0241 43.3104 26.1149C43.3104 34.5559 37.9025 41.3499 30.4008 41.3499C27.8777 41.3499 25.5075 40.0588 24.6958 38.5362C24.6958 38.5362 23.449 43.2112 23.1461 44.3575C22.5844 46.4851 21.067 49.1512 20.0554 50.778C22.3815 51.4901 24.8546 51.8722 27.4219 51.8722C41.1637 51.8722 52.303 40.907 52.303 27.3799C52.303 13.8499 41.1637 2.88749 27.4219 2.88749C13.68 2.88749 2.54071 13.8499 2.54071 27.3799Z" fill="white"/>
</svg>
